ISO-10303-21;
HEADER;
FILE_DESCRIPTION (( 'STEP AP203' ),
    '1' );
FILE_NAME ('031167-A.STEP',
    '2021-12-06T13:33:25',
    ( '' ),
    ( '' ),
    'SwSTEP 2.0',
    'SolidWorks 2018',
    '' );
FILE_SCHEMA (( 'CONFIG_CONTROL_DESIGN' ));
ENDSEC;

DATA;
#1 = CARTESIAN_POINT ( 'NONE',  ( 20.00000000000000711, -16.00000000000000000, 12.00000000000000000 ) ) ;
#2 = FACE_BOUND ( 'NONE', #642, .T. ) ;
#3 = ORIENTED_EDGE ( 'NONE', *, *, #1018, .F. ) ;
#4 = ORIENTED_EDGE ( 'NONE', *, *, #1280, .F. ) ;
#5 = CARTESIAN_POINT ( 'NONE',  ( -5.350000000000000533, 6.551860375438339695E-16, 5.999999999999998224 ) ) ;
#6 = CARTESIAN_POINT ( 'NONE',  ( -15.99999999999999645, 19.99999999999999289, 0.000000000000000000 ) ) ;
#7 = ADVANCED_FACE ( 'NONE', ( #1250 ), #1266, .T. ) ;
#8 = EDGE_CURVE ( 'NONE', #219, #1071, #1320, .T. ) ;
#9 = DIRECTION ( 'NONE',  ( -0.000000000000000000, -0.000000000000000000, -1.000000000000000000 ) ) ;
#10 = AXIS2_PLACEMENT_3D ( 'NONE', #221, #440, #961 ) ;
#11 = EDGE_CURVE ( 'NONE', #860, #1159, #245, .T. ) ;
#12 = ORIENTED_EDGE ( 'NONE', *, *, #1295, .F. ) ;
#13 = VECTOR ( 'NONE', #853, 1000.000000000000000 ) ;
#14 = DIRECTION ( 'NONE',  ( -0.000000000000000000, -0.000000000000000000, -1.000000000000000000 ) ) ;
#15 = CONICAL_SURFACE ( 'NONE', #351, 4.913946499999998885, 0.03120648702565794949 ) ;
#16 = CARTESIAN_POINT ( 'NONE',  ( -19.99999999999999289, -16.00000000000000711, 0.000000000000000000 ) ) ;
#17 = FACE_OUTER_BOUND ( 'NONE', #1263, .T. ) ;
#18 = VERTEX_POINT ( 'NONE', #99 ) ;
#19 = CARTESIAN_POINT ( 'NONE',  ( 19.02601910021416032, -15.02601910021410880, 4.400000000000001243 ) ) ;
#20 = ORIENTED_EDGE ( 'NONE', *, *, #913, .T. ) ;
#21 = CARTESIAN_POINT ( 'NONE',  ( -15.02601910021416565, 15.02601910021410880, 0.000000000000000000 ) ) ;
#22 = ORIENTED_EDGE ( 'NONE', *, *, #422, .T. ) ;
#23 = DIRECTION ( 'NONE',  ( 0.000000000000000000, 0.000000000000000000, -1.000000000000000000 ) ) ;
#24 = CIRCLE ( 'NONE', #1116, 5.350000000000000533 ) ;
#25 = DIRECTION ( 'NONE',  ( -1.000000000000000000, -8.673617379884035472E-17, 0.000000000000000000 ) ) ;
#26 = AXIS2_PLACEMENT_3D ( 'NONE', #657, #956, #1161 ) ;
#27 = VERTEX_POINT ( 'NONE', #1284 ) ;
#28 = CIRCLE ( 'NONE', #551, 2.249999999999996891 ) ;
#29 = ORIENTED_EDGE ( 'NONE', *, *, #1367, .T. ) ;
#30 = CARTESIAN_POINT ( 'NONE',  ( -4.913946499999998885, 0.000000000000000000, -2.602085213965210642E-15 ) ) ;
#31 = CARTESIAN_POINT ( 'NONE',  ( 19.02601910021415321, 15.02601910021411236, 3.851859888774471706E-31 ) ) ;
#32 = AXIS2_PLACEMENT_3D ( 'NONE', #755, #859, #1072 ) ;
#33 = CARTESIAN_POINT ( 'NONE',  ( 17.27601910021416387, -15.02601910021410880, 4.400000000000001243 ) ) ;
#34 = CC_DESIGN_DATE_AND_TIME_ASSIGNMENT ( #156, #692, ( #432 ) ) ;
#35 = LINE ( 'NONE', #456, #1048 ) ;
#36 = CARTESIAN_POINT ( 'NONE',  ( 15.02601910021416565, -15.02601910021410880, 4.400000000000001243 ) ) ;
#37 = CIRCLE ( 'NONE', #26, 3.999999999999993339 ) ;
#38 = APPROVAL_ROLE ( '' ) ;
#39 = ORIENTED_EDGE ( 'NONE', *, *, #60, .T. ) ;
#40 = DIRECTION ( 'NONE',  ( -1.000000000000000000, 0.000000000000000000, 0.000000000000000000 ) ) ;
#41 = ORIENTED_EDGE ( 'NONE', *, *, #58, .T. ) ;
#42 = CARTESIAN_POINT ( 'NONE',  ( 6.640933000000000419, 0.000000000000000000, 22.00000000000000000 ) ) ;
#43 = CARTESIAN_POINT ( 'NONE',  ( 0.000000000000000000, 0.000000000000000000, 0.000000000000000000 ) ) ;
#44 = AXIS2_PLACEMENT_3D ( 'NONE', #944, #320, #726 ) ;
#45 = DIRECTION ( 'NONE',  ( 1.000000000000000000, 0.000000000000000000, 0.000000000000000000 ) ) ;
#46 = CARTESIAN_POINT ( 'NONE',  ( 15.02601910021416565, -15.02601910021410880, 0.000000000000000000 ) ) ;
#47 = PERSON_AND_ORGANIZATION_ROLE ( 'design_supplier' ) ;
#48 = COORDINATED_UNIVERSAL_TIME_OFFSET ( 0, 0, .AHEAD. ) ;
#49 = CIRCLE ( 'NONE', #313, 3.999999999999991562 ) ;
#50 = EDGE_CURVE ( 'NONE', #331, #368, #972, .T. ) ;
#51 = EDGE_CURVE ( 'NONE', #1041, #704, #898, .T. ) ;
#52 = VERTEX_POINT ( 'NONE', #1345 ) ;
#53 = ORIENTED_EDGE ( 'NONE', *, *, #109, .T. ) ;
#54 = AXIS2_PLACEMENT_3D ( 'NONE', #521, #849, #738 ) ;
#55 = EDGE_LOOP ( 'NONE', ( #3, #437, #271, #1127, #754, #462, #894, #129 ) ) ;
#56 = EDGE_CURVE ( 'NONE', #1302, #807, #128, .T. ) ;
#57 = DIRECTION ( 'NONE',  ( -0.000000000000000000, -0.000000000000000000, -1.000000000000000000 ) ) ;
#58 = EDGE_CURVE ( 'NONE', #65, #18, #1217, .T. ) ;
#59 = AXIS2_PLACEMENT_3D ( 'NONE', #487, #1206, #45 ) ;
#60 = EDGE_CURVE ( 'NONE', #286, #681, #97, .T. ) ;
#61 = DIRECTION ( 'NONE',  ( 1.000000000000000000, 0.000000000000000000, -0.000000000000000000 ) ) ;
#62 = ORIENTED_EDGE ( 'NONE', *, *, #348, .F. ) ;
#63 = ADVANCED_FACE ( 'NONE', ( #427 ), #1042, .F. ) ;
#64 = VECTOR ( 'NONE', #23, 1000.000000000000000 ) ;
#65 = VERTEX_POINT ( 'NONE', #1245 ) ;
#66 = FACE_OUTER_BOUND ( 'NONE', #1209, .T. ) ;
#67 = DIRECTION ( 'NONE',  ( 0.000000000000000000, 0.000000000000000000, -1.000000000000000000 ) ) ;
#68 = DIRECTION ( 'NONE',  ( 1.000000000000000000, 0.000000000000000000, 0.000000000000000000 ) ) ;
#69 = AXIS2_PLACEMENT_3D ( 'NONE', #393, #711, #61 ) ;
#70 = ADVANCED_FACE ( 'NONE', ( #325 ), #820, .F. ) ;
#71 = EDGE_LOOP ( 'NONE', ( #1348, #179, #233, #403 ) ) ;
#72 = CARTESIAN_POINT ( 'NONE',  ( -17.27601910021416387, 15.02601910021410880, 0.000000000000000000 ) ) ;
#73 = ORIENTED_EDGE ( 'NONE', *, *, #873, .T. ) ;
#74 = AXIS2_PLACEMENT_3D ( 'NONE', #1145, #523, #430 ) ;
#75 = DIRECTION ( 'NONE',  ( -0.000000000000000000, -0.000000000000000000, -1.000000000000000000 ) ) ;
#76 = CARTESIAN_POINT ( 'NONE',  ( 15.02601910021416209, 15.02601910021411236, 4.400000000000001243 ) ) ;
#77 = DIRECTION ( 'NONE',  ( -1.000000000000000000, -8.673617379884035472E-17, 0.000000000000000000 ) ) ;
#78 = ADVANCED_FACE ( 'NONE', ( #357 ), #572, .F. ) ;
#79 = CIRCLE ( 'NONE', #355, 3.999999999999996447 ) ;
#80 = LINE ( 'NONE', #222, #291 ) ;
#81 = DIRECTION ( 'NONE',  ( -0.000000000000000000, -0.000000000000000000, -1.000000000000000000 ) ) ;
#82 = EDGE_CURVE ( 'NONE', #424, #1218, #1158, .T. ) ;
#83 = EDGE_CURVE ( 'NONE', #149, #861, #786, .T. ) ;
#84 = ORIENTED_EDGE ( 'NONE', *, *, #931, .T. ) ;
#85 = AXIS2_PLACEMENT_3D ( 'NONE', #482, #725, #68 ) ;
#86 = EDGE_CURVE ( 'NONE', #424, #439, #855, .T. ) ;
#87 = DIRECTION ( 'NONE',  ( 0.000000000000000000, -0.000000000000000000, 1.000000000000000000 ) ) ;
#88 = ADVANCED_FACE ( 'NONE', ( #1057 ), #841, .F. ) ;
#89 = ORGANIZATION ( 'UNSPECIFIED', 'UNSPECIFIED', '' ) ;
#90 = DIRECTION ( 'NONE',  ( 1.000000000000000000, 0.000000000000000000, 0.000000000000000000 ) ) ;
#91 = CIRCLE ( 'NONE', #167, 3.999999999999993339 ) ;
#92 = VERTEX_POINT ( 'NONE', #528 ) ;
#93 = DIRECTION ( 'NONE',  ( -1.000000000000000000, 0.000000000000000000, -0.000000000000000000 ) ) ;
#94 = CARTESIAN_POINT ( 'NONE',  ( 0.000000000000000000, 0.000000000000000000, -2.602085213965210642E-15 ) ) ;
#95 = CARTESIAN_POINT ( 'NONE',  ( 0.000000000000000000, 0.000000000000000000, 8.999999999999998224 ) ) ;
#96 = DIRECTION ( 'NONE',  ( 1.000000000000000000, 0.000000000000000000, 0.000000000000000000 ) ) ;
#97 = CIRCLE ( 'NONE', #1269, 4.913946499999998885 ) ;
#98 = ORIENTED_EDGE ( 'NONE', *, *, #1007, .F. ) ;
#99 = CARTESIAN_POINT ( 'NONE',  ( 17.27601910021416032, -15.02601910021410880, 12.00000000000000000 ) ) ;
#100 = FACE_BOUND ( 'NONE', #120, .T. ) ;
#101 = DIRECTION ( 'NONE',  ( 0.000000000000000000, 0.000000000000000000, -1.000000000000000000 ) ) ;
#102 = AXIS2_PLACEMENT_3D ( 'NONE', #568, #124, #1184 ) ;
#103 = CONICAL_SURFACE ( 'NONE', #125, 9.499999999999987566, 0.7853981633974473908 ) ;
#104 = LINE ( 'NONE', #949, #1359 ) ;
#105 = CARTESIAN_POINT ( 'NONE',  ( -12.77601910021416565, 15.02601910021410880, 12.00000000000000000 ) ) ;
#106 = VERTEX_POINT ( 'NONE', #742 ) ;
#107 = ORIENTED_EDGE ( 'NONE', *, *, #1280, .T. ) ;
#108 = VERTEX_POINT ( 'NONE', #1049 ) ;
#109 = EDGE_CURVE ( 'NONE', #720, #732, #28, .T. ) ;
#110 = CARTESIAN_POINT ( 'NONE',  ( -19.99999999999999289, -16.00000000000000711, 12.00000000000000000 ) ) ;
#111 = CARTESIAN_POINT ( 'NONE',  ( 15.02601910021416565, -15.02601910021410880, 4.400000000000001243 ) ) ;
#112 = CONICAL_SURFACE ( 'NONE', #175, 4.913946499999998885, 0.03120648702565794949 ) ;
#113 = ORIENTED_EDGE ( 'NONE', *, *, #1007, .T. ) ;
#114 = DIRECTION ( 'NONE',  ( -0.000000000000000000, -0.000000000000000000, -1.000000000000000000 ) ) ;
#115 = CC_DESIGN_PERSON_AND_ORGANIZATION_ASSIGNMENT ( #1176, #905, ( #498 ) ) ;
#116 = EDGE_LOOP ( 'NONE', ( #408, #680 ) ) ;
#117 = AXIS2_PLACEMENT_3D ( 'NONE', #1233, #629, #1135 ) ;
#118 = UNCERTAINTY_MEASURE_WITH_UNIT (LENGTH_MEASURE( 1.000000000000000082E-05 ), #166, 'distance_accuracy_value', 'NONE');
#119 = VECTOR ( 'NONE', #269, 1000.000000000000000 ) ;
#120 = EDGE_LOOP ( 'NONE', ( #1111, #1025 ) ) ;
#121 = EDGE_LOOP ( 'NONE', ( #12, #1360, #1014, #1273 ) ) ;
#122 = DIRECTION ( 'NONE',  ( -0.000000000000000000, -0.000000000000000000, -1.000000000000000000 ) ) ;
#123 = EDGE_CURVE ( 'NONE', #106, #92, #709, .T. ) ;
#124 = DIRECTION ( 'NONE',  ( -1.734723475976806848E-16, 1.000000000000000000, 0.000000000000000000 ) ) ;
#125 = AXIS2_PLACEMENT_3D ( 'NONE', #885, #341, #1279 ) ;
#126 = DIRECTION ( 'NONE',  ( 1.000000000000000000, 0.000000000000000000, 0.000000000000000000 ) ) ;
#127 = VERTEX_POINT ( 'NONE', #1015 ) ;
#128 = CIRCLE ( 'NONE', #412, 6.235116926150933381 ) ;
#129 = ORIENTED_EDGE ( 'NONE', *, *, #1370, .T. ) ;
#130 = VECTOR ( 'NONE', #57, 1000.000000000000000 ) ;
#131 = CARTESIAN_POINT ( 'NONE',  ( -15.02601910021416565, 15.02601910021410880, 4.400000000000001243 ) ) ;
#132 = EDGE_CURVE ( 'NONE', #1139, #562, #1140, .T. ) ;
#133 = CC_DESIGN_APPROVAL ( #484, ( #432 ) ) ;
#134 = DIRECTION ( 'NONE',  ( 0.7071067811865469066, 8.659560562354925463E-17, -0.7071067811865481278 ) ) ;
#135 = EDGE_CURVE ( 'NONE', #732, #720, #507, .T. ) ;
#136 = CARTESIAN_POINT ( 'NONE',  ( 0.000000000000000000, 0.000000000000000000, 22.00000000000000000 ) ) ;
#137 = FACE_OUTER_BOUND ( 'NONE', #1035, .T. ) ;
#138 = EDGE_CURVE ( 'NONE', #704, #1041, #869, .T. ) ;
#139 = CIRCLE ( 'NONE', #908, 10.50000000000000000 ) ;
#140 = ORIENTED_EDGE ( 'NONE', *, *, #1314, .T. ) ;
#141 = DIRECTION ( 'NONE',  ( 0.000000000000000000, 1.000000000000000000, 0.000000000000000000 ) ) ;
#142 = ORIENTED_EDGE ( 'NONE', *, *, #872, .T. ) ;
#143 = VERTEX_POINT ( 'NONE', #501 ) ;
#144 = ORIENTED_EDGE ( 'NONE', *, *, #1124, .F. ) ;
#145 = ORIENTED_EDGE ( 'NONE', *, *, #422, .F. ) ;
#146 = DIRECTION ( 'NONE',  ( -1.000000000000000000, 0.000000000000000000, 0.000000000000000000 ) ) ;
#147 = AXIS2_PLACEMENT_3D ( 'NONE', #945, #636, #1254 ) ;
#148 = CARTESIAN_POINT ( 'NONE',  ( 0.000000000000000000, 0.000000000000000000, 8.999999999999998224 ) ) ;
#149 = VERTEX_POINT ( 'NONE', #827 ) ;
#150 = DIRECTION ( 'NONE',  ( -1.000000000000000000, 0.000000000000000000, 0.000000000000000000 ) ) ;
#151 = APPLICATION_PROTOCOL_DEFINITION ( 'international standard', 'config_control_design', 1994, #705 ) ;
#152 = DIRECTION ( 'NONE',  ( 0.000000000000000000, -0.000000000000000000, 1.000000000000000000 ) ) ;
#153 = EDGE_CURVE ( 'NONE', #162, #469, #596, .T. ) ;
#154 = DIRECTION ( 'NONE',  ( -0.000000000000000000, -0.000000000000000000, -1.000000000000000000 ) ) ;
#155 = EDGE_CURVE ( 'NONE', #406, #1337, #1220, .T. ) ;
#156 = DATE_AND_TIME ( #1253, #214 ) ;
#157 = DIRECTION ( 'NONE',  ( -0.000000000000000000, -0.000000000000000000, -1.000000000000000000 ) ) ;
#158 = VECTOR ( 'NONE', #578, 1000.000000000000000 ) ;
#159 = FACE_OUTER_BOUND ( 'NONE', #654, .T. ) ;
#160 = PERSON_AND_ORGANIZATION_ROLE ( 'design_owner' ) ;
#161 = AXIS2_PLACEMENT_3D ( 'NONE', #298, #633, #1353 ) ;
#162 = VERTEX_POINT ( 'NONE', #923 ) ;
#163 = ORIENTED_EDGE ( 'NONE', *, *, #1060, .T. ) ;
#164 = EDGE_CURVE ( 'NONE', #860, #561, #808, .T. ) ;
#165 = FACE_BOUND ( 'NONE', #665, .T. ) ;
#166 =( LENGTH_UNIT ( ) NAMED_UNIT ( * ) SI_UNIT ( .MILLI., .METRE. ) );
#167 = AXIS2_PLACEMENT_3D ( 'NONE', #792, #997, #372 ) ;
#168 = DIRECTION ( 'NONE',  ( 1.000000000000000000, 0.000000000000000000, -0.000000000000000000 ) ) ;
#169 = DIRECTION ( 'NONE',  ( -0.000000000000000000, -0.000000000000000000, -1.000000000000000000 ) ) ;
#170 = CIRCLE ( 'NONE', #147, 4.000000000000000000 ) ;
#171 = APPROVAL_DATE_TIME ( #278, #837 ) ;
#172 = ADVANCED_FACE ( 'NONE', ( #492, #100 ), #184, .T. ) ;
#173 = VECTOR ( 'NONE', #1305, 1000.000000000000000 ) ;
#174 = CARTESIAN_POINT ( 'NONE',  ( 20.00000000000000711, -20.00000000000000000, 12.00000000000000000 ) ) ;
#175 = AXIS2_PLACEMENT_3D ( 'NONE', #94, #1156, #220 ) ;
#176 = CYLINDRICAL_SURFACE ( 'NONE', #683, 3.999999999999996447 ) ;
#177 = ORIENTED_EDGE ( 'NONE', *, *, #781, .T. ) ;
#178 = ORIENTED_EDGE ( 'NONE', *, *, #8, .F. ) ;
#179 = ORIENTED_EDGE ( 'NONE', *, *, #493, .F. ) ;
#180 = ORIENTED_EDGE ( 'NONE', *, *, #490, .F. ) ;
#181 = EDGE_LOOP ( 'NONE', ( #877, #794, #623, #1179 ) ) ;
#182 = ADVANCED_FACE ( 'NONE', ( #823 ), #815, .F. ) ;
#183 = PLANE ( 'NONE',  #1102 ) ;
#184 = PLANE ( 'NONE',  #69 ) ;
#185 = ORIENTED_EDGE ( 'NONE', *, *, #155, .T. ) ;
#186 = FACE_BOUND ( 'NONE', #540, .T. ) ;
#187 = CARTESIAN_POINT ( 'NONE',  ( 0.000000000000000000, 0.000000000000000000, 5.999999999999998224 ) ) ;
#188 = ORIENTED_EDGE ( 'NONE', *, *, #457, .F. ) ;
#189 = ADVANCED_FACE ( 'NONE', ( #1304 ), #1160, .T. ) ;
#190 = DIRECTION ( 'NONE',  ( 0.000000000000000000, 0.000000000000000000, -1.000000000000000000 ) ) ;
#191 = DATE_AND_TIME ( #1046, #1308 ) ;
#192 = CARTESIAN_POINT ( 'NONE',  ( 12.77601910021416387, 15.02601910021411236, 12.00000000000000000 ) ) ;
#193 = VECTOR ( 'NONE', #760, 1000.000000000000000 ) ;
#194 = AXIS2_PLACEMENT_3D ( 'NONE', #213, #1341, #421 ) ;
#195 = DIRECTION ( 'NONE',  ( -0.8571673007021122226, 1.049727191138618696E-16, 0.5150380749100541555 ) ) ;
#196 = CARTESIAN_POINT ( 'NONE',  ( -15.99999999999999645, -16.00000000000000711, 12.00000000000000000 ) ) ;
#197 = ORIENTED_EDGE ( 'NONE', *, *, #1074, .T. ) ;
#198 = ORIENTED_EDGE ( 'NONE', *, *, #1100, .T. ) ;
#199 = DIRECTION ( 'NONE',  ( -1.000000000000000000, 0.000000000000000000, 0.000000000000000000 ) ) ;
#200 = ADVANCED_FACE ( 'NONE', ( #1376 ), #525, .F. ) ;
#201 = CARTESIAN_POINT ( 'NONE',  ( -15.02601910021416565, 15.02601910021410880, 4.400000000000001243 ) ) ;
#202 = VECTOR ( 'NONE', #1303, 1000.000000000000000 ) ;
#203 = CARTESIAN_POINT ( 'NONE',  ( 16.00000000000000711, -20.00000000000000000, 12.00000000000000000 ) ) ;
#204 = EDGE_CURVE ( 'NONE', #368, #1166, #743, .T. ) ;
#205 = ORIENTED_EDGE ( 'NONE', *, *, #1100, .F. ) ;
#206 = DIRECTION ( 'NONE',  ( -1.000000000000000000, 0.000000000000000000, 0.000000000000000000 ) ) ;
#207 = VECTOR ( 'NONE', #974, 1000.000000000000000 ) ;
#208 = AXIS2_PLACEMENT_3D ( 'NONE', #33, #590, #168 ) ;
#209 = CARTESIAN_POINT ( 'NONE',  ( 6.235116926150933381, 0.000000000000000000, 8.999999999999998224 ) ) ;
#210 = CYLINDRICAL_SURFACE ( 'NONE', #74, 2.249999999999996891 ) ;
#211 = DIRECTION ( 'NONE',  ( -1.000000000000000000, 0.000000000000000000, 0.000000000000000000 ) ) ;
#212 = EDGE_CURVE ( 'NONE', #937, #27, #274, .T. ) ;
#213 = CARTESIAN_POINT ( 'NONE',  ( 0.000000000000000000, 0.000000000000000000, 20.99999999999998224 ) ) ;
#214 = LOCAL_TIME ( 13, 33, 25.00000000000000000, #48 ) ;
#215 = VECTOR ( 'NONE', #463, 1000.000000000000000 ) ;
#216 = VECTOR ( 'NONE', #141, 1000.000000000000000 ) ;
#217 = ORIENTED_EDGE ( 'NONE', *, *, #1314, .F. ) ;
#218 = PLANE ( 'NONE',  #1052 ) ;
#219 = VERTEX_POINT ( 'NONE', #1138 ) ;
#220 = DIRECTION ( 'NONE',  ( -1.000000000000000000, 0.000000000000000000, 0.000000000000000000 ) ) ;
#221 = CARTESIAN_POINT ( 'NONE',  ( -15.99999999999999645, -16.00000000000000711, 12.00000000000000000 ) ) ;
#222 = CARTESIAN_POINT ( 'NONE',  ( 17.27601910021416032, 15.02601910021411236, 0.000000000000000000 ) ) ;
#223 = ORIENTED_EDGE ( 'NONE', *, *, #448, .F. ) ;
#224 = VECTOR ( 'NONE', #870, 1000.000000000000000 ) ;
#225 = AXIS2_PLACEMENT_3D ( 'NONE', #321, #844, #739 ) ;
#226 = VERTEX_POINT ( 'NONE', #736 ) ;
#227 = AXIS2_PLACEMENT_3D ( 'NONE', #324, #727, #928 ) ;
#228 = VECTOR ( 'NONE', #1368, 1000.000000000000000 ) ;
#229 = CARTESIAN_POINT ( 'NONE',  ( 10.50000000000000000, 1.285879139104720831E-15, 20.99999999999998224 ) ) ;
#230 = DIRECTION ( 'NONE',  ( -0.000000000000000000, -0.000000000000000000, -1.000000000000000000 ) ) ;
#231 = CALENDAR_DATE ( 2021, 6, 12 ) ;
#232 = LINE ( 'NONE', #235, #602 ) ;
#233 = ORIENTED_EDGE ( 'NONE', *, *, #546, .T. ) ;
#234 = EDGE_LOOP ( 'NONE', ( #466, #850, #339, #29 ) ) ;
#235 = CARTESIAN_POINT ( 'NONE',  ( -12.77601910021427045, -15.02601910021400755, 0.000000000000000000 ) ) ;
#236 = EDGE_CURVE ( 'NONE', #27, #937, #361, .T. ) ;
#237 = EDGE_CURVE ( 'NONE', #561, #969, #170, .T. ) ;
#238 = DIRECTION ( 'NONE',  ( -0.000000000000000000, -0.000000000000000000, -1.000000000000000000 ) ) ;
#239 = AXIS2_PLACEMENT_3D ( 'NONE', #643, #753, #455 ) ;
#240 = CARTESIAN_POINT ( 'NONE',  ( 12.77601910021416565, -15.02601910021410880, 4.400000000000001243 ) ) ;
#241 = EDGE_CURVE ( 'NONE', #937, #1218, #884, .T. ) ;
#242 = CARTESIAN_POINT ( 'NONE',  ( -11.02601910021417098, 15.02601910021410880, 3.851859888774471706E-31 ) ) ;
#243 = ORIENTED_EDGE ( 'NONE', *, *, #284, .T. ) ;
#244 = AXIS2_PLACEMENT_3D ( 'NONE', #46, #1101, #479 ) ;
#245 = LINE ( 'NONE', #772, #207 ) ;
#246 = EDGE_CURVE ( 'NONE', #1226, #439, #1322, .T. ) ;
#247 = CARTESIAN_POINT ( 'NONE',  ( -19.99999999999999289, -20.00000000000000711, 12.00000000000000000 ) ) ;
#248 = FACE_OUTER_BOUND ( 'NONE', #121, .T. ) ;
#249 = CARTESIAN_POINT ( 'NONE',  ( -10.50000000000000000, 0.000000000000000000, 12.00000000000000000 ) ) ;
#250 = LINE ( 'NONE', #1089, #216 ) ;
#251 = VERTEX_POINT ( 'NONE', #835 ) ;
#252 = DIRECTION ( 'NONE',  ( 1.000000000000000000, 0.000000000000000000, 0.000000000000000000 ) ) ;
#253 = ORIENTED_EDGE ( 'NONE', *, *, #1370, .F. ) ;
#254 = AXIS2_PLACEMENT_3D ( 'NONE', #800, #1200, #1309 ) ;
#255 = CARTESIAN_POINT ( 'NONE',  ( 16.00000000000000711, -16.00000000000000000, 12.00000000000000000 ) ) ;
#256 = DIRECTION ( 'NONE',  ( -0.000000000000000000, -0.000000000000000000, 1.000000000000000000 ) ) ;
#257 = ORIENTED_EDGE ( 'NONE', *, *, #236, .F. ) ;
#258 = VECTOR ( 'NONE', #454, 1000.000000000000000 ) ;
#259 = CARTESIAN_POINT ( 'NONE',  ( -15.02601910021426690, -15.02601910021400755, 4.400000000000001243 ) ) ;
#260 = DIRECTION ( 'NONE',  ( 1.000000000000000000, 1.734723475976807094E-16, -0.000000000000000000 ) ) ;
#261 = CC_DESIGN_SECURITY_CLASSIFICATION ( #432, ( #1365 ) ) ;
#262 = CARTESIAN_POINT ( 'NONE',  ( 15.02601910021416209, 15.02601910021411236, 0.000000000000000000 ) ) ;
#263 = CIRCLE ( 'NONE', #1256, 3.999999999999993339 ) ;
#264 = DIRECTION ( 'NONE',  ( -0.000000000000000000, -0.000000000000000000, -1.000000000000000000 ) ) ;
#265 = EDGE_LOOP ( 'NONE', ( #548, #821, #1281, #399 ) ) ;
#266 = DIRECTION ( 'NONE',  ( 8.673617379884034239E-17, -1.000000000000000000, 0.000000000000000000 ) ) ;
#267 = ORIENTED_EDGE ( 'NONE', *, *, #8, .T. ) ;
#268 = ORIENTED_EDGE ( 'NONE', *, *, #518, .T. ) ;
#269 = DIRECTION ( 'NONE',  ( -0.000000000000000000, -0.000000000000000000, -1.000000000000000000 ) ) ;
#270 = DIRECTION ( 'NONE',  ( -1.000000000000000000, 0.000000000000000000, 0.000000000000000000 ) ) ;
#271 = ORIENTED_EDGE ( 'NONE', *, *, #868, .F. ) ;
#272 = ORIENTED_EDGE ( 'NONE', *, *, #668, .F. ) ;
#273 = SECURITY_CLASSIFICATION_LEVEL ( 'unclassified' ) ;
#274 = CIRCLE ( 'NONE', #1297, 9.499999999999987566 ) ;
#275 = ADVANCED_FACE ( 'NONE', ( #66 ), #210, .F. ) ;
#276 = EDGE_CURVE ( 'NONE', #640, #704, #1332, .T. ) ;
#277 = CARTESIAN_POINT ( 'NONE',  ( 15.02601910021416209, 15.02601910021411236, 4.400000000000001243 ) ) ;
#278 = DATE_AND_TIME ( #626, #380 ) ;
#279 = CYLINDRICAL_SURFACE ( 'NONE', #677, 3.999999999999996447 ) ;
#280 = PERSON_AND_ORGANIZATION_ROLE ( 'creator' ) ;
#281 = AXIS2_PLACEMENT_3D ( 'NONE', #785, #264, #491 ) ;
#282 = CIRCLE ( 'NONE', #304, 4.738123639534806308 ) ;
#283 = ORIENTED_EDGE ( 'NONE', *, *, #164, .F. ) ;
#284 = EDGE_CURVE ( 'NONE', #368, #143, #1028, .T. ) ;
#285 = DIRECTION ( 'NONE',  ( 1.000000000000000000, 0.000000000000000000, 0.000000000000000000 ) ) ;
#286 = VERTEX_POINT ( 'NONE', #1246 ) ;
#287 = ADVANCED_FACE ( 'NONE', ( #309 ), #1186, .T. ) ;
#288 = AXIS2_PLACEMENT_3D ( 'NONE', #995, #1204, #687 ) ;
#289 = DIRECTION ( 'NONE',  ( -1.000000000000000000, 0.000000000000000000, 0.000000000000000000 ) ) ;
#290 = DIRECTION ( 'NONE',  ( 0.000000000000000000, 0.000000000000000000, 1.000000000000000000 ) ) ;
#291 = VECTOR ( 'NONE', #653, 1000.000000000000000 ) ;
#292 = CYLINDRICAL_SURFACE ( 'NONE', #1327, 2.249999999999998668 ) ;
#293 = DIRECTION ( 'NONE',  ( 1.000000000000000000, 0.000000000000000000, 0.000000000000000000 ) ) ;
#294 = ORIENTED_EDGE ( 'NONE', *, *, #518, .F. ) ;
#295 = EDGE_LOOP ( 'NONE', ( #1004, #374, #993, #1198 ) ) ;
#296 = DIRECTION ( 'NONE',  ( 0.000000000000000000, 0.000000000000000000, 1.000000000000000000 ) ) ;
#297 = EDGE_LOOP ( 'NONE', ( #1187, #682, #1106, #267 ) ) ;
#298 = CARTESIAN_POINT ( 'NONE',  ( 0.000000000000000000, 0.000000000000000000, 22.00000000000000000 ) ) ;
#299 = CARTESIAN_POINT ( 'NONE',  ( 10.50000000000000000, 1.285879139104720831E-15, 22.00000000000000000 ) ) ;
#300 = EDGE_CURVE ( 'NONE', #108, #661, #761, .T. ) ;
#301 = EDGE_CURVE ( 'NONE', #971, #631, #505, .T. ) ;
#302 = ADVANCED_FACE ( 'NONE', ( #1120 ), #112, .F. ) ;
#303 = DIRECTION ( 'NONE',  ( 1.000000000000000000, 0.000000000000000000, 0.000000000000000000 ) ) ;
#304 = AXIS2_PLACEMENT_3D ( 'NONE', #1252, #1157, #1244 ) ;
#305 = ORIENTED_EDGE ( 'NONE', *, *, #1318, .T. ) ;
#306 = EDGE_CURVE ( 'NONE', #631, #971, #655, .T. ) ;
#307 = ORIENTED_EDGE ( 'NONE', *, *, #647, .F. ) ;
#308 = DIRECTION ( 'NONE',  ( 1.000000000000000000, 0.000000000000000000, 0.000000000000000000 ) ) ;
#309 = FACE_OUTER_BOUND ( 'NONE', #656, .T. ) ;
#310 = DIRECTION ( 'NONE',  ( 1.000000000000000000, 0.000000000000000000, 0.000000000000000000 ) ) ;
#311 = DIRECTION ( 'NONE',  ( 1.000000000000000000, 0.000000000000000000, 0.000000000000000000 ) ) ;
#312 = LOCAL_TIME ( 13, 33, 25.00000000000000000, #342 ) ;
#313 = AXIS2_PLACEMENT_3D ( 'NONE', #1005, #379, #899 ) ;
#314 = CARTESIAN_POINT ( 'NONE',  ( 12.77601910021416209, 15.02601910021411236, 4.400000000000001243 ) ) ;
#315 = FACE_BOUND ( 'NONE', #650, .T. ) ;
#316 = CIRCLE ( 'NONE', #520, 2.249999999999998668 ) ;
#317 = EDGE_LOOP ( 'NONE', ( #1282, #1080, #113, #684 ) ) ;
#318 = ADVANCED_BREP_SHAPE_REPRESENTATION ( '031167-A', ( #1144, #900 ), #1316 ) ;
#319 = DIRECTION ( 'NONE',  ( -1.000000000000000000, 0.000000000000000000, 0.000000000000000000 ) ) ;
#320 = DIRECTION ( 'NONE',  ( -0.000000000000000000, -0.000000000000000000, -1.000000000000000000 ) ) ;
#321 = CARTESIAN_POINT ( 'NONE',  ( 0.000000000000000000, 0.000000000000000000, 12.00000000000000000 ) ) ;
#322 = CARTESIAN_POINT ( 'NONE',  ( -17.27601910021426335, -15.02601910021400755, 12.00000000000000000 ) ) ;
#323 = ORIENTED_EDGE ( 'NONE', *, *, #664, .T. ) ;
#324 = CARTESIAN_POINT ( 'NONE',  ( 0.000000000000000000, 0.000000000000000000, 5.999999999999998224 ) ) ;
#325 = FACE_OUTER_BOUND ( 'NONE', #1051, .T. ) ;
#326 = AXIS2_PLACEMENT_3D ( 'NONE', #247, #569, #1086 ) ;
#327 = DIRECTION ( 'NONE',  ( -1.000000000000000000, 0.000000000000000000, 0.000000000000000000 ) ) ;
#328 = FACE_BOUND ( 'NONE', #1362, .T. ) ;
#329 = CARTESIAN_POINT ( 'NONE',  ( 0.000000000000000000, 0.000000000000000000, 22.00000000000000000 ) ) ;
#330 = LINE ( 'NONE', #203, #1223 ) ;
#331 = VERTEX_POINT ( 'NONE', #1068 ) ;
#332 = ORIENTED_EDGE ( 'NONE', *, *, #943, .F. ) ;
#333 = ORIENTED_EDGE ( 'NONE', *, *, #867, .T. ) ;
#334 = DIRECTION ( 'NONE',  ( 1.000000000000000000, 0.000000000000000000, 0.000000000000000000 ) ) ;
#335 = DIRECTION ( 'NONE',  ( -1.000000000000000000, 0.000000000000000000, 0.000000000000000000 ) ) ;
#336 = CARTESIAN_POINT ( 'NONE',  ( 15.02601910021416565, -15.02601910021410880, 4.400000000000001243 ) ) ;
#337 = CARTESIAN_POINT ( 'NONE',  ( 11.02601910021416742, -15.02601910021410880, 4.400000000000001243 ) ) ;
#338 = AXIS2_PLACEMENT_3D ( 'NONE', #428, #81, #922 ) ;
#339 = ORIENTED_EDGE ( 'NONE', *, *, #638, .T. ) ;
#340 = CARTESIAN_POINT ( 'NONE',  ( -19.99999999999999289, -20.00000000000000711, 0.000000000000000000 ) ) ;
#341 = DIRECTION ( 'NONE',  ( 0.000000000000000000, 0.000000000000000000, -1.000000000000000000 ) ) ;
#342 = COORDINATED_UNIVERSAL_TIME_OFFSET ( 0, 0, .AHEAD. ) ;
#343 = CYLINDRICAL_SURFACE ( 'NONE', #244, 3.999999999999994671 ) ;
#344 = EDGE_LOOP ( 'NONE', ( #257, #875, #307, #1229 ) ) ;
#345 = VERTEX_POINT ( 'NONE', #105 ) ;
#346 = DIRECTION ( 'NONE',  ( -1.000000000000000000, 0.000000000000000000, 0.000000000000000000 ) ) ;
#347 = ORIENTED_EDGE ( 'NONE', *, *, #781, .F. ) ;
#348 = EDGE_CURVE ( 'NONE', #345, #106, #541, .T. ) ;
#349 = VERTEX_POINT ( 'NONE', #964 ) ;
#350 = CARTESIAN_POINT ( 'NONE',  ( 16.00000000000000711, -20.00000000000000000, 12.00000000000000000 ) ) ;
#351 = AXIS2_PLACEMENT_3D ( 'NONE', #1099, #488, #1211 ) ;
#352 = EDGE_CURVE ( 'NONE', #513, #1159, #925, .T. ) ;
#353 = DIRECTION ( 'NONE',  ( -0.000000000000000000, -0.000000000000000000, -1.000000000000000000 ) ) ;
#354 = DIRECTION ( 'NONE',  ( -1.000000000000000000, 0.000000000000000000, 0.000000000000000000 ) ) ;
#355 = AXIS2_PLACEMENT_3D ( 'NONE', #336, #773, #354 ) ;
#356 = ORIENTED_EDGE ( 'NONE', *, *, #939, .F. ) ;
#357 = FACE_OUTER_BOUND ( 'NONE', #438, .T. ) ;
#358 = ORIENTED_EDGE ( 'NONE', *, *, #155, .F. ) ;
#359 = DIRECTION ( 'NONE',  ( -0.000000000000000000, 0.000000000000000000, -1.000000000000000000 ) ) ;
#360 = EDGE_CURVE ( 'NONE', #603, #108, #1171, .T. ) ;
#361 = CIRCLE ( 'NONE', #1377, 9.499999999999987566 ) ;
#362 = EDGE_CURVE ( 'NONE', #561, #513, #758, .T. ) ;
#363 = CYLINDRICAL_SURFACE ( 'NONE', #526, 3.999999999999994671 ) ;
#364 = DIRECTION ( 'NONE',  ( -0.03120142222625903183, 0.000000000000000000, -0.9995131170980492419 ) ) ;
#365 = CIRCLE ( 'NONE', #618, 2.249999999999998668 ) ;
#366 = ORIENTED_EDGE ( 'NONE', *, *, #453, .T. ) ;
#367 = CARTESIAN_POINT ( 'NONE',  ( -19.99999999999999289, 15.99999999999999645, 0.000000000000000000 ) ) ;
#368 = VERTEX_POINT ( 'NONE', #5 ) ;
#369 = VERTEX_POINT ( 'NONE', #1172 ) ;
#370 = ORIENTED_EDGE ( 'NONE', *, *, #1012, .T. ) ;
#371 = CARTESIAN_POINT ( 'NONE',  ( 11.02601910021416565, 15.02601910021411236, 4.400000000000001243 ) ) ;
#372 = DIRECTION ( 'NONE',  ( -1.000000000000000000, 0.000000000000000000, 0.000000000000000000 ) ) ;
#373 = DATE_TIME_ROLE ( 'creation_date' ) ;
#374 = ORIENTED_EDGE ( 'NONE', *, *, #82, .T. ) ;
#375 = CARTESIAN_POINT ( 'NONE',  ( -11.02601910021416742, 15.02601910021410880, 4.400000000000001243 ) ) ;
#376 = ORIENTED_EDGE ( 'NONE', *, *, #943, .T. ) ;
#377 = EDGE_CURVE ( 'NONE', #345, #127, #503, .T. ) ;
#378 = PLANE ( 'NONE',  #776 ) ;
#379 = DIRECTION ( 'NONE',  ( -0.000000000000000000, -0.000000000000000000, -1.000000000000000000 ) ) ;
#380 = LOCAL_TIME ( 13, 33, 25.00000000000000000, #1333 ) ;
#381 = EDGE_CURVE ( 'NONE', #92, #127, #1118, .T. ) ;
#382 = LINE ( 'NONE', #702, #614 ) ;
#383 = CIRCLE ( 'NONE', #85, 2.249999999999998668 ) ;
#384 = ORIENTED_EDGE ( 'NONE', *, *, #1311, .T. ) ;
#385 = ADVANCED_FACE ( 'NONE', ( #571 ), #1301, .T. ) ;
#386 = ORIENTED_EDGE ( 'NONE', *, *, #56, .F. ) ;
#387 = CARTESIAN_POINT ( 'NONE',  ( 0.000000000000000000, 0.000000000000000000, 5.999999999999998224 ) ) ;
#388 = CARTESIAN_POINT ( 'NONE',  ( 0.000000000000000000, 0.000000000000000000, 8.999999999999998224 ) ) ;
#389 =( NAMED_UNIT ( * ) SI_UNIT ( $, .STERADIAN. ) SOLID_ANGLE_UNIT ( ) );
#390 = ORIENTED_EDGE ( 'NONE', *, *, #527, .F. ) ;
#391 = ORIENTED_EDGE ( 'NONE', *, *, #559, .T. ) ;
#392 = VECTOR ( 'NONE', #190, 1000.000000000000000 ) ;
#393 = CARTESIAN_POINT ( 'NONE',  ( 0.000000000000000000, 0.000000000000000000, 22.00000000000000000 ) ) ;
#394 = DESIGN_CONTEXT ( 'detailed design', #705, 'design' ) ;
#395 = AXIS2_PLACEMENT_3D ( 'NONE', #866, #1175, #334 ) ;
#396 = ADVANCED_FACE ( 'NONE', ( #186, #1264 ), #1069, .F. ) ;
#397 = VECTOR ( 'NONE', #364, 1000.000000000000000 ) ;
#398 = CIRCLE ( 'NONE', #1236, 3.999999999999996447 ) ;
#399 = ORIENTED_EDGE ( 'NONE', *, *, #668, .T. ) ;
#400 = EDGE_LOOP ( 'NONE', ( #953, #323 ) ) ;
#401 = ORIENTED_EDGE ( 'NONE', *, *, #1215, .T. ) ;
#402 = ORIENTED_EDGE ( 'NONE', *, *, #381, .T. ) ;
#403 = ORIENTED_EDGE ( 'NONE', *, *, #1277, .T. ) ;
#404 = CC_DESIGN_APPROVAL ( #837, ( #1365 ) ) ;
#405 = CARTESIAN_POINT ( 'NONE',  ( 16.00000000000000711, 15.99999999999999645, 12.00000000000000000 ) ) ;
#406 = VERTEX_POINT ( 'NONE', #552 ) ;
#407 = DIRECTION ( 'NONE',  ( -1.000000000000000000, 0.000000000000000000, 0.000000000000000000 ) ) ;
#408 = ORIENTED_EDGE ( 'NONE', *, *, #1367, .F. ) ;
#409 = CARTESIAN_POINT ( 'NONE',  ( -15.02601910021426690, -15.02601910021400755, 12.00000000000000000 ) ) ;
#410 = ADVANCED_FACE ( 'NONE', ( #994 ), #819, .F. ) ;
#411 = CC_DESIGN_PERSON_AND_ORGANIZATION_ASSIGNMENT ( #1062, #160, ( #829 ) ) ;
#412 = AXIS2_PLACEMENT_3D ( 'NONE', #1155, #930, #734 ) ;
#413 = LOCAL_TIME ( 13, 33, 25.00000000000000000, #1107 ) ;
#414 = CIRCLE ( 'NONE', #1188, 5.350000000000000533 ) ;
#415 = DIRECTION ( 'NONE',  ( -0.000000000000000000, -0.000000000000000000, -1.000000000000000000 ) ) ;
#416 = ORIENTED_EDGE ( 'NONE', *, *, #762, .F. ) ;
#417 = DIRECTION ( 'NONE',  ( 1.000000000000000000, 0.000000000000000000, -0.000000000000000000 ) ) ;
#418 = DIRECTION ( 'NONE',  ( -1.000000000000000000, 0.000000000000000000, 0.000000000000000000 ) ) ;
#419 = CARTESIAN_POINT ( 'NONE',  ( -5.350000000000000533, 6.551860375438339695E-16, 22.00000000000000000 ) ) ;
#420 = CARTESIAN_POINT ( 'NONE',  ( 0.000000000000000000, 0.000000000000000000, 22.00000000000000000 ) ) ;
#421 = DIRECTION ( 'NONE',  ( 1.000000000000000000, 0.000000000000000000, 0.000000000000000000 ) ) ;
#422 = EDGE_CURVE ( 'NONE', #349, #1041, #80, .T. ) ;
#423 = CARTESIAN_POINT ( 'NONE',  ( -17.27601910021426690, -15.02601910021400755, 4.400000000000001243 ) ) ;
#424 = VERTEX_POINT ( 'NONE', #229 ) ;
#425 = DIRECTION ( 'NONE',  ( -0.000000000000000000, -0.000000000000000000, 1.000000000000000000 ) ) ;
#426 = EDGE_CURVE ( 'NONE', #226, #1232, #1329, .T. ) ;
#427 = FACE_OUTER_BOUND ( 'NONE', #749, .T. ) ;
#428 = CARTESIAN_POINT ( 'NONE',  ( 15.02601910021416209, 15.02601910021411236, 4.400000000000001243 ) ) ;
#429 = VECTOR ( 'NONE', #67, 1000.000000000000000 ) ;
#430 = DIRECTION ( 'NONE',  ( -1.000000000000000000, 0.000000000000000000, 0.000000000000000000 ) ) ;
#431 = AXIS2_PLACEMENT_3D ( 'NONE', #1167, #122, #652 ) ;
#432 = SECURITY_CLASSIFICATION ( '', '', #273 ) ;
#433 = DIRECTION ( 'NONE',  ( 0.000000000000000000, 0.000000000000000000, 1.000000000000000000 ) ) ;
#434 = FACE_BOUND ( 'NONE', #723, .T. ) ;
#435 = CYLINDRICAL_SURFACE ( 'NONE', #161, 5.350000000000000533 ) ;
#436 = CARTESIAN_POINT ( 'NONE',  ( 0.000000000000000000, 0.000000000000000000, 22.00000000000000000 ) ) ;
#437 = ORIENTED_EDGE ( 'NONE', *, *, #1276, .T. ) ;
#438 = EDGE_LOOP ( 'NONE', ( #145, #830, #1152, #685 ) ) ;
#439 = VERTEX_POINT ( 'NONE', #970 ) ;
#440 = DIRECTION ( 'NONE',  ( 0.000000000000000000, -0.000000000000000000, 1.000000000000000000 ) ) ;
#441 = EDGE_LOOP ( 'NONE', ( #917, #347, #1227, #910 ) ) ;
#442 = CARTESIAN_POINT ( 'NONE',  ( 0.000000000000000000, 0.000000000000000000, 5.999999999999998224 ) ) ;
#443 = ORIENTED_EDGE ( 'NONE', *, *, #457, .T. ) ;
#444 = CIRCLE ( 'NONE', #1073, 2.250000000000000444 ) ;
#445 = DIRECTION ( 'NONE',  ( -1.000000000000000000, 0.000000000000000000, 0.000000000000000000 ) ) ;
#446 = ORIENTED_EDGE ( 'NONE', *, *, #1018, .T. ) ;
#447 = FACE_BOUND ( 'NONE', #1371, .T. ) ;
#448 = EDGE_CURVE ( 'NONE', #1082, #996, #79, .T. ) ;
#449 = EDGE_CURVE ( 'NONE', #349, #640, #783, .T. ) ;
#450 = ORIENTED_EDGE ( 'NONE', *, *, #1210, .T. ) ;
#451 = ORIENTED_EDGE ( 'NONE', *, *, #1124, .T. ) ;
#452 = AXIS2_PLACEMENT_3D ( 'NONE', #1247, #1355, #319 ) ;
#453 = EDGE_CURVE ( 'NONE', #1337, #969, #489, .T. ) ;
#454 = DIRECTION ( 'NONE',  ( -0.000000000000000000, -0.000000000000000000, 1.000000000000000000 ) ) ;
#455 = DIRECTION ( 'NONE',  ( 1.000000000000000000, 0.000000000000000000, 0.000000000000000000 ) ) ;
#456 = CARTESIAN_POINT ( 'NONE',  ( -15.99999999999999645, 19.99999999999999289, 12.00000000000000000 ) ) ;
#457 = EDGE_CURVE ( 'NONE', #720, #861, #588, .T. ) ;
#458 = CARTESIAN_POINT ( 'NONE',  ( 15.02601910021416565, -15.02601910021410880, 4.400000000000001243 ) ) ;
#459 = FACE_OUTER_BOUND ( 'NONE', #234, .T. ) ;
#460 = CARTESIAN_POINT ( 'NONE',  ( 0.000000000000000000, 0.000000000000000000, 12.00000000000000000 ) ) ;
#461 = FACE_OUTER_BOUND ( 'NONE', #1180, .T. ) ;
#462 = ORIENTED_EDGE ( 'NONE', *, *, #237, .T. ) ;
#463 = DIRECTION ( 'NONE',  ( 0.03120142222625903183, 3.821072185823320856E-18, -0.9995131170980492419 ) ) ;
#464 = EDGE_LOOP ( 'NONE', ( #333, #1024 ) ) ;
#465 = CARTESIAN_POINT ( 'NONE',  ( -10.50000000000000000, 0.000000000000000000, 20.99999999999998224 ) ) ;
#466 = ORIENTED_EDGE ( 'NONE', *, *, #426, .F. ) ;
#467 = ORIENTED_EDGE ( 'NONE', *, *, #589, .F. ) ;
#468 = AXIS2_PLACEMENT_3D ( 'NONE', #759, #238, #549 ) ;
#469 = VERTEX_POINT ( 'NONE', #31 ) ;
#470 = CARTESIAN_POINT ( 'NONE',  ( 4.738123639534806308, 5.910188400763523670E-16, 5.632347591282560018 ) ) ;
#471 = AXIS2_PLACEMENT_3D ( 'NONE', #460, #888, #895 ) ;
#472 = DIRECTION ( 'NONE',  ( 0.000000000000000000, -0.000000000000000000, 1.000000000000000000 ) ) ;
#473 = ORIENTED_EDGE ( 'NONE', *, *, #559, .F. ) ;
#474 = ORIENTED_EDGE ( 'NONE', *, *, #377, .T. ) ;
#475 = VERTEX_POINT ( 'NONE', #350 ) ;
#476 = PERSON_AND_ORGANIZATION_ROLE ( 'classification_officer' ) ;
#477 = PLANE ( 'NONE',  #471 ) ;
#478 = DATE_AND_TIME ( #231, #413 ) ;
#479 = DIRECTION ( 'NONE',  ( -1.000000000000000000, 0.000000000000000000, 0.000000000000000000 ) ) ;
#480 = LINE ( 'NONE', #1347, #714 ) ;
#481 = ORIENTED_EDGE ( 'NONE', *, *, #664, .F. ) ;
#482 = CARTESIAN_POINT ( 'NONE',  ( 15.02601910021416209, 15.02601910021411236, 12.00000000000000000 ) ) ;
#483 = VERTEX_POINT ( 'NONE', #470 ) ;
#484 = APPROVAL ( #896, 'UNSPECIFIED' ) ;
#485 = AXIS2_PLACEMENT_3D ( 'NONE', #534, #833, #621 ) ;
#486 = DIRECTION ( 'NONE',  ( -0.000000000000000000, 0.000000000000000000, -1.000000000000000000 ) ) ;
#487 = CARTESIAN_POINT ( 'NONE',  ( 0.000000000000000000, 0.000000000000000000, 22.00000000000000000 ) ) ;
#488 = DIRECTION ( 'NONE',  ( -0.000000000000000000, -0.000000000000000000, -1.000000000000000000 ) ) ;
#489 = LINE ( 'NONE', #883, #1022 ) ;
#490 = EDGE_CURVE ( 'NONE', #1058, #1166, #1230, .T. ) ;
#491 = DIRECTION ( 'NONE',  ( -1.000000000000000000, 0.000000000000000000, 0.000000000000000000 ) ) ;
#492 = FACE_OUTER_BOUND ( 'NONE', #952, .T. ) ;
#493 = EDGE_CURVE ( 'NONE', #996, #1082, #757, .T. ) ;
#494 = CIRCLE ( 'NONE', #1331, 4.000000000000000000 ) ;
#495 = FACE_OUTER_BOUND ( 'NONE', #1361, .T. ) ;
#496 = ORIENTED_EDGE ( 'NONE', *, *, #132, .T. ) ;
#497 = DIRECTION ( 'NONE',  ( 1.000000000000000000, 0.000000000000000000, -0.000000000000000000 ) ) ;
#498 = PRODUCT_DEFINITION ( 'UNKNOWN', '', #1365, #394 ) ;
#499 = ADVANCED_FACE ( 'NONE', ( #1216 ), #1096, .F. ) ;
#500 = AXIS2_PLACEMENT_3D ( 'NONE', #148, #1191, #1085 ) ;
#501 = CARTESIAN_POINT ( 'NONE',  ( 5.350000000000000533, 0.000000000000000000, 5.999999999999998224 ) ) ;
#502 = VERTEX_POINT ( 'NONE', #242 ) ;
#503 = LINE ( 'NONE', #856, #224 ) ;
#504 = ADVANCED_FACE ( 'NONE', ( #1274 ), #1240, .T. ) ;
#505 = CIRCLE ( 'NONE', #975, 6.640933000000000419 ) ;
#506 = DIRECTION ( 'NONE',  ( 1.000000000000000000, 0.000000000000000000, 0.000000000000000000 ) ) ;
#507 = CIRCLE ( 'NONE', #701, 2.249999999999996891 ) ;
#508 = DIRECTION ( 'NONE',  ( -1.000000000000000000, 0.000000000000000000, 0.000000000000000000 ) ) ;
#509 = CARTESIAN_POINT ( 'NONE',  ( 20.00000000000000711, -20.00000000000000000, 0.000000000000000000 ) ) ;
#510 = PERSON_AND_ORGANIZATION ( #592, #89 ) ;
#511 = CONICAL_SURFACE ( 'NONE', #613, 6.640933000000000419, 0.03120648702565840746 ) ;
#512 = ADVANCED_FACE ( 'NONE', ( #982, #678, #769, #165, #1006, #798 ), #477, .T. ) ;
#513 = VERTEX_POINT ( 'NONE', #16 ) ;
#514 = ORIENTED_EDGE ( 'NONE', *, *, #246, .F. ) ;
#515 = EDGE_LOOP ( 'NONE', ( #180, #553 ) ) ;
#516 = FACE_OUTER_BOUND ( 'NONE', #1066, .T. ) ;
#517 = DIRECTION ( 'NONE',  ( -0.000000000000000000, -0.000000000000000000, -1.000000000000000000 ) ) ;
#518 = EDGE_CURVE ( 'NONE', #861, #149, #444, .T. ) ;
#519 = EDGE_CURVE ( 'NONE', #369, #226, #542, .T. ) ;
#520 = AXIS2_PLACEMENT_3D ( 'NONE', #131, #575, #554 ) ;
#521 = CARTESIAN_POINT ( 'NONE',  ( -15.02601910021426690, -15.02601910021400755, 4.400000000000001243 ) ) ;
#522 = CARTESIAN_POINT ( 'NONE',  ( 0.000000000000000000, 0.000000000000000000, -2.602085213965210642E-15 ) ) ;
#523 = DIRECTION ( 'NONE',  ( -0.000000000000000000, -0.000000000000000000, -1.000000000000000000 ) ) ;
#524 = DIRECTION ( 'NONE',  ( -1.000000000000000000, 0.000000000000000000, 0.000000000000000000 ) ) ;
#525 = CYLINDRICAL_SURFACE ( 'NONE', #1162, 3.999999999999994671 ) ;
#526 = AXIS2_PLACEMENT_3D ( 'NONE', #1291, #690, #150 ) ;
#527 = EDGE_CURVE ( 'NONE', #1218, #1226, #1178, .T. ) ;
#528 = CARTESIAN_POINT ( 'NONE',  ( -17.27601910021416387, 15.02601910021410880, 4.400000000000001243 ) ) ;
#529 = DIRECTION ( 'NONE',  ( 0.000000000000000000, 0.000000000000000000, 1.000000000000000000 ) ) ;
#530 = LINE ( 'NONE', #770, #1076 ) ;
#531 = VECTOR ( 'NONE', #1363, 1000.000000000000000 ) ;
#532 = ORIENTED_EDGE ( 'NONE', *, *, #1169, .T. ) ;
#533 = DIRECTION ( 'NONE',  ( -0.000000000000000000, -0.000000000000000000, -1.000000000000000000 ) ) ;
#534 = CARTESIAN_POINT ( 'NONE',  ( 15.02601910021416209, 15.02601910021411236, 0.000000000000000000 ) ) ;
#535 = EDGE_LOOP ( 'NONE', ( #605, #741, #446, #20 ) ) ;
#536 = AXIS2_PLACEMENT_3D ( 'NONE', #864, #955, #1262 ) ;
#537 = DIRECTION ( 'NONE',  ( 1.000000000000000000, 0.000000000000000000, 0.000000000000000000 ) ) ;
#538 = AXIS2_PLACEMENT_3D ( 'NONE', #846, #1231, #1153 ) ;
#539 = DIRECTION ( 'NONE',  ( 1.000000000000000000, 0.000000000000000000, 0.000000000000000000 ) ) ;
#540 = EDGE_LOOP ( 'NONE', ( #1259, #778 ) ) ;
#541 = CIRCLE ( 'NONE', #468, 2.249999999999998668 ) ;
#542 = CIRCLE ( 'NONE', #960, 3.999999999999998224 ) ;
#543 = VECTOR ( 'NONE', #744, 1000.000000000000000 ) ;
#544 = AXIS2_PLACEMENT_3D ( 'NONE', #768, #957, #1061 ) ;
#545 = CARTESIAN_POINT ( 'NONE',  ( 15.02601910021416209, 15.02601910021411236, 3.851859888774471706E-31 ) ) ;
#546 = EDGE_CURVE ( 'NONE', #996, #1294, #1372, .T. ) ;
#547 = VECTOR ( 'NONE', #1344, 1000.000000000000000 ) ;
#548 = ORIENTED_EDGE ( 'NONE', *, *, #1356, .F. ) ;
#549 = DIRECTION ( 'NONE',  ( -1.000000000000000000, 0.000000000000000000, 0.000000000000000000 ) ) ;
#550 = DIRECTION ( 'NONE',  ( -0.000000000000000000, -0.000000000000000000, -1.000000000000000000 ) ) ;
#551 = AXIS2_PLACEMENT_3D ( 'NONE', #409, #617, #285 ) ;
#552 = CARTESIAN_POINT ( 'NONE',  ( 16.00000000000000711, 19.99999999999999645, 12.00000000000000000 ) ) ;
#553 = ORIENTED_EDGE ( 'NONE', *, *, #1210, .F. ) ;
#554 = DIRECTION ( 'NONE',  ( -1.000000000000000000, 0.000000000000000000, 0.000000000000000000 ) ) ;
#555 = DIRECTION ( 'NONE',  ( 0.000000000000000000, 0.000000000000000000, -1.000000000000000000 ) ) ;
#556 = DIRECTION ( 'NONE',  ( -1.000000000000000000, 0.000000000000000000, 0.000000000000000000 ) ) ;
#557 = LINE ( 'NONE', #904, #173 ) ;
#558 = CARTESIAN_POINT ( 'NONE',  ( -6.235116926150933381, 7.884306663861127750E-16, 8.999999999999998224 ) ) ;
#559 = EDGE_CURVE ( 'NONE', #681, #286, #1078, .T. ) ;
#560 = LINE ( 'NONE', #990, #215 ) ;
#561 = VERTEX_POINT ( 'NONE', #367 ) ;
#562 = VERTEX_POINT ( 'NONE', #1114 ) ;
#563 = AXIS2_PLACEMENT_3D ( 'NONE', #1199, #486, #797 ) ;
#564 = ORIENTED_EDGE ( 'NONE', *, *, #931, .F. ) ;
#565 = CARTESIAN_POINT ( 'NONE',  ( -15.02601910021426690, -15.02601910021400755, 3.851859888774471706E-31 ) ) ;
#566 = EDGE_CURVE ( 'NONE', #143, #368, #24, .T. ) ;
#567 = CARTESIAN_POINT ( 'NONE',  ( 9.499999999999987566, 1.163414459189984105E-15, 22.00000000000000000 ) ) ;
#568 = CARTESIAN_POINT ( 'NONE',  ( 20.00000000000000711, -20.00000000000000000, 12.00000000000000000 ) ) ;
#569 = DIRECTION ( 'NONE',  ( 1.000000000000000000, 0.000000000000000000, 0.000000000000000000 ) ) ;
#570 = AXIS2_PLACEMENT_3D ( 'NONE', #458, #1077, #986 ) ;
#571 = FACE_OUTER_BOUND ( 'NONE', #1149, .T. ) ;
#572 = CYLINDRICAL_SURFACE ( 'NONE', #485, 2.249999999999996891 ) ;
#573 = EDGE_CURVE ( 'NONE', #1330, #406, #574, .T. ) ;
#574 = CIRCLE ( 'NONE', #595, 4.000000000000000000 ) ;
#575 = DIRECTION ( 'NONE',  ( -0.000000000000000000, -0.000000000000000000, -1.000000000000000000 ) ) ;
#576 = CARTESIAN_POINT ( 'NONE',  ( 16.00000000000000711, -16.00000000000000000, 0.000000000000000000 ) ) ;
#577 = PERSON_AND_ORGANIZATION ( #592, #89 ) ;
#578 = DIRECTION ( 'NONE',  ( -0.000000000000000000, -0.000000000000000000, -1.000000000000000000 ) ) ;
#579 = CIRCLE ( 'NONE', #10, 4.000000000000000000 ) ;
#580 = AXIS2_PLACEMENT_3D ( 'NONE', #76, #169, #1117 ) ;
#581 = CARTESIAN_POINT ( 'NONE',  ( 12.77601910021416742, -15.02601910021410880, 0.000000000000000000 ) ) ;
#582 = ORIENTED_EDGE ( 'NONE', *, *, #762, .T. ) ;
#583 = DIRECTION ( 'NONE',  ( -0.000000000000000000, -0.000000000000000000, -1.000000000000000000 ) ) ;
#584 = CLOSED_SHELL ( 'NONE', ( #504, #1342, #88, #926, #806, #275, #745, #70, #410, #1225, #1136, #7, #1023, #902, #1213, #1030, #499, #182, #1238, #512, #825, #619, #1270, #385, #287, #189, #1115, #730, #172, #302, #78, #396, #200, #1130, #1122, #1358, #63, #722, #1317, #834, #817, #710, #912, #1109 ) ) ;
#585 = ORIENTED_EDGE ( 'NONE', *, *, #805, .T. ) ;
#586 = DIRECTION ( 'NONE',  ( 1.000000000000000000, 0.000000000000000000, 0.000000000000000000 ) ) ;
#587 = DIRECTION ( 'NONE',  ( -0.03120142222625948633, 3.821072185823376323E-18, 0.9995131170980491309 ) ) ;
#588 = LINE ( 'NONE', #670, #202 ) ;
#589 = EDGE_CURVE ( 'NONE', #640, #349, #383, .T. ) ;
#590 = DIRECTION ( 'NONE',  ( 0.000000000000000000, 0.000000000000000000, 1.000000000000000000 ) ) ;
#591 = ORIENTED_EDGE ( 'NONE', *, *, #715, .F. ) ;
#592 = PERSON ( 'UNSPECIFIED', 'UNSPECIFIED', 'UNSPECIFIED', ('UNSPECIFIED'), ('UNSPECIFIED'), ('UNSPECIFIED') ) ;
#593 = ORIENTED_EDGE ( 'NONE', *, *, #941, .F. ) ;
#594 = APPROVAL_STATUS ( 'not_yet_approved' ) ;
#595 = AXIS2_PLACEMENT_3D ( 'NONE', #601, #152, #999 ) ;
#596 = LINE ( 'NONE', #1219, #674 ) ;
#597 = EDGE_CURVE ( 'NONE', #439, #1226, #1000, .T. ) ;
#598 = DIRECTION ( 'NONE',  ( -1.000000000000000000, 0.000000000000000000, 0.000000000000000000 ) ) ;
#599 = PERSON_AND_ORGANIZATION ( #592, #89 ) ;
#600 = LINE ( 'NONE', #581, #119 ) ;
#601 = CARTESIAN_POINT ( 'NONE',  ( 16.00000000000000711, 15.99999999999999645, 12.00000000000000000 ) ) ;
#602 = VECTOR ( 'NONE', #230, 1000.000000000000000 ) ;
#603 = VERTEX_POINT ( 'NONE', #375 ) ;
#604 = PLANE ( 'NONE',  #208 ) ;
#605 = ORIENTED_EDGE ( 'NONE', *, *, #805, .F. ) ;
#606 = EDGE_LOOP ( 'NONE', ( #608, #1053, #384, #39 ) ) ;
#607 = CARTESIAN_POINT ( 'NONE',  ( 0.000000000000000000, 0.000000000000000000, 20.99999999999998224 ) ) ;
#608 = ORIENTED_EDGE ( 'NONE', *, *, #1060, .F. ) ;
#609 = ORIENTED_EDGE ( 'NONE', *, *, #360, .T. ) ;
#610 = DIRECTION ( 'NONE',  ( 0.000000000000000000, 0.000000000000000000, 1.000000000000000000 ) ) ;
#611 = AXIS2_PLACEMENT_3D ( 'NONE', #771, #1165, #445 ) ;
#612 = VECTOR ( 'NONE', #1343, 1000.000000000000114 ) ;
#613 = AXIS2_PLACEMENT_3D ( 'NONE', #329, #1168, #539 ) ;
#614 = VECTOR ( 'NONE', #157, 1000.000000000000000 ) ;
#615 = CYLINDRICAL_SURFACE ( 'NONE', #897, 2.249999999999998668 ) ;
#616 = ORIENTED_EDGE ( 'NONE', *, *, #135, .T. ) ;
#617 = DIRECTION ( 'NONE',  ( 0.000000000000000000, -0.000000000000000000, 1.000000000000000000 ) ) ;
#618 = AXIS2_PLACEMENT_3D ( 'NONE', #1029, #415, #1336 ) ;
#619 = ADVANCED_FACE ( 'NONE', ( #641, #516 ), #183, .F. ) ;
#620 = CARTESIAN_POINT ( 'NONE',  ( -19.02601910021426335, -15.02601910021400755, 0.000000000000000000 ) ) ;
#621 = DIRECTION ( 'NONE',  ( -1.000000000000000000, 0.000000000000000000, 0.000000000000000000 ) ) ;
#622 = CARTESIAN_POINT ( 'NONE',  ( -9.499999999999987566, 0.000000000000000000, 22.00000000000000000 ) ) ;
#623 = ORIENTED_EDGE ( 'NONE', *, *, #939, .T. ) ;
#624 = AXIS2_PLACEMENT_3D ( 'NONE', #1043, #87, #308 ) ;
#625 = DIRECTION ( 'NONE',  ( 1.000000000000000000, 0.000000000000000000, 0.000000000000000000 ) ) ;
#626 = CALENDAR_DATE ( 2021, 6, 12 ) ;
#627 = CARTESIAN_POINT ( 'NONE',  ( -15.02601910021416565, 15.02601910021410880, 3.851859888774471706E-31 ) ) ;
#628 = CIRCLE ( 'NONE', #660, 4.000000000000000000 ) ;
#629 = DIRECTION ( 'NONE',  ( -0.000000000000000000, -0.000000000000000000, -1.000000000000000000 ) ) ;
#630 = VERTEX_POINT ( 'NONE', #1011 ) ;
#631 = VERTEX_POINT ( 'NONE', #906 ) ;
#632 = ORIENTED_EDGE ( 'NONE', *, *, #153, .F. ) ;
#633 = DIRECTION ( 'NONE',  ( -0.000000000000000000, -0.000000000000000000, 1.000000000000000000 ) ) ;
#634 = CARTESIAN_POINT ( 'NONE',  ( -12.77601910021427045, -15.02601910021400755, 12.00000000000000000 ) ) ;
#635 = DIRECTION ( 'NONE',  ( -0.000000000000000000, -0.000000000000000000, -1.000000000000000000 ) ) ;
#636 = DIRECTION ( 'NONE',  ( -0.000000000000000000, 0.000000000000000000, -1.000000000000000000 ) ) ;
#637 = AXIS2_PLACEMENT_3D ( 'NONE', #187, #1045, #293 ) ;
#638 = EDGE_CURVE ( 'NONE', #369, #813, #932, .T. ) ;
#639 = CARTESIAN_POINT ( 'NONE',  ( 0.000000000000000000, 0.000000000000000000, 22.00000000000000000 ) ) ;
#640 = VERTEX_POINT ( 'NONE', #192 ) ;
#641 = FACE_BOUND ( 'NONE', #751, .T. ) ;
#642 = EDGE_LOOP ( 'NONE', ( #294, #1293 ) ) ;
#643 = CARTESIAN_POINT ( 'NONE',  ( 15.02601910021416565, -15.02601910021410880, 12.00000000000000000 ) ) ;
#644 = VECTOR ( 'NONE', #1026, 1000.000000000000000 ) ;
#645 = DIRECTION ( 'NONE',  ( 0.000000000000000000, -0.000000000000000000, 1.000000000000000000 ) ) ;
#646 = FACE_OUTER_BOUND ( 'NONE', #55, .T. ) ;
#647 = EDGE_CURVE ( 'NONE', #1218, #424, #139, .T. ) ;
#648 = CONICAL_SURFACE ( 'NONE', #637, 5.350000000000000533, 1.029744258676654534 ) ;
#649 = ORIENTED_EDGE ( 'NONE', *, *, #204, .T. ) ;
#650 = EDGE_LOOP ( 'NONE', ( #272, #356 ) ) ;
#651 = VERTEX_POINT ( 'NONE', #1021 ) ;
#652 = DIRECTION ( 'NONE',  ( -1.000000000000000000, 0.000000000000000000, 0.000000000000000000 ) ) ;
#653 = DIRECTION ( 'NONE',  ( -0.000000000000000000, -0.000000000000000000, -1.000000000000000000 ) ) ;
#654 = EDGE_LOOP ( 'NONE', ( #416, #185, #366, #107 ) ) ;
#655 = CIRCLE ( 'NONE', #395, 6.640933000000000419 ) ;
#656 = EDGE_LOOP ( 'NONE', ( #848, #671, #1126, #178 ) ) ;
#657 = CARTESIAN_POINT ( 'NONE',  ( 15.02601910021416209, 15.02601910021411236, 3.851859888774471706E-31 ) ) ;
#658 = EDGE_CURVE ( 'NONE', #1350, #860, #1257, .T. ) ;
#659 = CIRCLE ( 'NONE', #563, 4.000000000000000000 ) ;
#660 = AXIS2_PLACEMENT_3D ( 'NONE', #255, #1298, #967 ) ;
#661 = VERTEX_POINT ( 'NONE', #838 ) ;
#662 = ORIENTED_EDGE ( 'NONE', *, *, #352, .T. ) ;
#663 = CARTESIAN_POINT ( 'NONE',  ( 5.350000000000000533, 0.000000000000000000, 8.999999999999998224 ) ) ;
#664 = EDGE_CURVE ( 'NONE', #226, #369, #826, .T. ) ;
#665 = EDGE_LOOP ( 'NONE', ( #514, #1201 ) ) ;
#666 = EDGE_LOOP ( 'NONE', ( #401, #451 ) ) ;
#667 = DIRECTION ( 'NONE',  ( -1.000000000000000000, 0.000000000000000000, 0.000000000000000000 ) ) ;
#668 = EDGE_CURVE ( 'NONE', #661, #502, #1271, .T. ) ;
#669 = CARTESIAN_POINT ( 'NONE',  ( -15.99999999999999645, -20.00000000000000711, 12.00000000000000000 ) ) ;
#670 = CARTESIAN_POINT ( 'NONE',  ( -17.27601910021426335, -15.02601910021400755, 0.000000000000000000 ) ) ;
#671 = ORIENTED_EDGE ( 'NONE', *, *, #352, .F. ) ;
#672 = ORIENTED_EDGE ( 'NONE', *, *, #1169, .F. ) ;
#673 = ORIENTED_EDGE ( 'NONE', *, *, #237, .F. ) ;
#674 = VECTOR ( 'NONE', #824, 1000.000000000000000 ) ;
#675 = DIRECTION ( 'NONE',  ( -1.000000000000000000, 0.000000000000000000, 0.000000000000000000 ) ) ;
#676 = LINE ( 'NONE', #30, #397 ) ;
#677 = AXIS2_PLACEMENT_3D ( 'NONE', #21, #353, #1092 ) ;
#678 = FACE_BOUND ( 'NONE', #863, .T. ) ;
#679 = FACE_OUTER_BOUND ( 'NONE', #779, .T. ) ;
#680 = ORIENTED_EDGE ( 'NONE', *, *, #1074, .F. ) ;
#681 = VERTEX_POINT ( 'NONE', #947 ) ;
#682 = ORIENTED_EDGE ( 'NONE', *, *, #715, .T. ) ;
#683 = AXIS2_PLACEMENT_3D ( 'NONE', #1181, #1189, #556 ) ;
#684 = ORIENTED_EDGE ( 'NONE', *, *, #566, .T. ) ;
#685 = ORIENTED_EDGE ( 'NONE', *, *, #138, .T. ) ;
#686 = DIRECTION ( 'NONE',  ( 0.000000000000000000, 0.000000000000000000, -1.000000000000000000 ) ) ;
#687 = DIRECTION ( 'NONE',  ( 1.000000000000000000, 0.000000000000000000, 0.000000000000000000 ) ) ;
#688 = DIRECTION ( 'NONE',  ( -0.000000000000000000, -0.000000000000000000, -1.000000000000000000 ) ) ;
#689 = VECTOR ( 'NONE', #1037, 1000.000000000000000 ) ;
#690 = DIRECTION ( 'NONE',  ( -0.000000000000000000, -0.000000000000000000, -1.000000000000000000 ) ) ;
#691 = ORIENTED_EDGE ( 'NONE', *, *, #597, .T. ) ;
#692 = DATE_TIME_ROLE ( 'classification_date' ) ;
#693 = AXIS2_PLACEMENT_3D ( 'NONE', #1091, #266, #1299 ) ;
#694 = ORIENTED_EDGE ( 'NONE', *, *, #1008, .T. ) ;
#695 = EDGE_LOOP ( 'NONE', ( #1088, #4, #673, #283 ) ) ;
#696 = CARTESIAN_POINT ( 'NONE',  ( 20.00000000000000711, 15.99999999999999645, 12.00000000000000000 ) ) ;
#697 = DIRECTION ( 'NONE',  ( -0.000000000000000000, 0.000000000000000000, -1.000000000000000000 ) ) ;
#698 = DIRECTION ( 'NONE',  ( -0.000000000000000000, -0.000000000000000000, 1.000000000000000000 ) ) ;
#699 = APPROVAL ( #594, 'UNSPECIFIED' ) ;
#700 = FACE_OUTER_BOUND ( 'NONE', #71, .T. ) ;
#701 = AXIS2_PLACEMENT_3D ( 'NONE', #1235, #811, #1134 ) ;
#702 = CARTESIAN_POINT ( 'NONE',  ( -11.02601910021416920, 15.02601910021410880, 0.000000000000000000 ) ) ;
#703 = ORIENTED_EDGE ( 'NONE', *, *, #546, .F. ) ;
#704 = VERTEX_POINT ( 'NONE', #314 ) ;
#705 = APPLICATION_CONTEXT ( 'configuration controlled 3d designs of mechanical parts and assemblies' ) ;
#706 = ORIENTED_EDGE ( 'NONE', *, *, #11, .F. ) ;
#707 = VECTOR ( 'NONE', #195, 1000.000000000000114 ) ;
#708 = AXIS2_PLACEMENT_3D ( 'NONE', #1283, #583, #667 ) ;
#709 = LINE ( 'NONE', #72, #644 ) ;
#710 = ADVANCED_FACE ( 'NONE', ( #1324, #1019 ), #218, .F. ) ;
#711 = DIRECTION ( 'NONE',  ( 0.000000000000000000, 0.000000000000000000, 1.000000000000000000 ) ) ;
#712 = CIRCLE ( 'NONE', #803, 3.999999999999996447 ) ;
#713 = DIRECTION ( 'NONE',  ( 0.000000000000000000, 0.000000000000000000, -1.000000000000000000 ) ) ;
#714 = VECTOR ( 'NONE', #77, 1000.000000000000000 ) ;
#715 = EDGE_CURVE ( 'NONE', #52, #475, #330, .T. ) ;
#716 = EDGE_LOOP ( 'NONE', ( #828, #662, #706, #954 ) ) ;
#717 = CARTESIAN_POINT ( 'NONE',  ( 15.02601910021416209, 15.02601910021411236, 0.000000000000000000 ) ) ;
#718 = ORIENTED_EDGE ( 'NONE', *, *, #426, .T. ) ;
#719 = EDGE_LOOP ( 'NONE', ( #177, #985 ) ) ;
#720 = VERTEX_POINT ( 'NONE', #322 ) ;
#721 = AXIS2_PLACEMENT_3D ( 'NONE', #174, #911, #610 ) ;
#722 = ADVANCED_FACE ( 'NONE', ( #2, #748 ), #852, .F. ) ;
#723 = EDGE_LOOP ( 'NONE', ( #1036, #473 ) ) ;
#724 = CARTESIAN_POINT ( 'NONE',  ( 11.02601910021416742, 15.02601910021411236, 0.000000000000000000 ) ) ;
#725 = DIRECTION ( 'NONE',  ( 0.000000000000000000, -0.000000000000000000, 1.000000000000000000 ) ) ;
#726 = DIRECTION ( 'NONE',  ( -1.000000000000000000, 0.000000000000000000, 0.000000000000000000 ) ) ;
#727 = DIRECTION ( 'NONE',  ( -0.000000000000000000, -0.000000000000000000, 1.000000000000000000 ) ) ;
#728 = FACE_OUTER_BOUND ( 'NONE', #733, .T. ) ;
#729 = CARTESIAN_POINT ( 'NONE',  ( -19.99999999999999289, 15.99999999999999645, 12.00000000000000000 ) ) ;
#730 = ADVANCED_FACE ( 'NONE', ( #847 ), #1125, .T. ) ;
#731 = ORIENTED_EDGE ( 'NONE', *, *, #109, .F. ) ;
#732 = VERTEX_POINT ( 'NONE', #634 ) ;
#733 = EDGE_LOOP ( 'NONE', ( #787, #694, #839, #376 ) ) ;
#734 = DIRECTION ( 'NONE',  ( 1.000000000000000000, 0.000000000000000000, 0.000000000000000000 ) ) ;
#735 = EDGE_CURVE ( 'NONE', #331, #483, #282, .T. ) ;
#736 = CARTESIAN_POINT ( 'NONE',  ( -11.02601910021427045, -15.02601910021400755, 4.400000000000001243 ) ) ;
#737 = AXIS2_PLACEMENT_3D ( 'NONE', #1103, #686, #270 ) ;
#738 = DIRECTION ( 'NONE',  ( -1.000000000000000000, 0.000000000000000000, 0.000000000000000000 ) ) ;
#739 = DIRECTION ( 'NONE',  ( 1.000000000000000000, 0.000000000000000000, 0.000000000000000000 ) ) ;
#740 = CARTESIAN_POINT ( 'NONE',  ( -15.02601910021416565, 15.02601910021410880, 0.000000000000000000 ) ) ;
#741 = ORIENTED_EDGE ( 'NONE', *, *, #941, .T. ) ;
#742 = CARTESIAN_POINT ( 'NONE',  ( -17.27601910021416387, 15.02601910021410880, 12.00000000000000000 ) ) ;
#743 = LINE ( 'NONE', #419, #543 ) ;
#744 = DIRECTION ( 'NONE',  ( -0.000000000000000000, -0.000000000000000000, 1.000000000000000000 ) ) ;
#745 = ADVANCED_FACE ( 'NONE', ( #461 ), #1335, .F. ) ;
#746 = CARTESIAN_POINT ( 'NONE',  ( 5.350000000000000533, 0.000000000000000000, 8.999999999999998224 ) ) ;
#747 = FACE_OUTER_BOUND ( 'NONE', #1248, .T. ) ;
#748 = FACE_OUTER_BOUND ( 'NONE', #400, .T. ) ;
#749 = EDGE_LOOP ( 'NONE', ( #1056, #616, #443, #268 ) ) ;
#750 = ORIENTED_EDGE ( 'NONE', *, *, #958, .T. ) ;
#751 = EDGE_LOOP ( 'NONE', ( #796, #1325 ) ) ;
#752 = ORIENTED_EDGE ( 'NONE', *, *, #449, .F. ) ;
#753 = DIRECTION ( 'NONE',  ( 0.000000000000000000, -0.000000000000000000, 1.000000000000000000 ) ) ;
#754 = ORIENTED_EDGE ( 'NONE', *, *, #362, .F. ) ;
#755 = CARTESIAN_POINT ( 'NONE',  ( 16.00000000000000711, -16.00000000000000000, 12.00000000000000000 ) ) ;
#756 = CARTESIAN_POINT ( 'NONE',  ( 5.350000000000000533, 0.000000000000000000, 5.999999999999998224 ) ) ;
#757 = CIRCLE ( 'NONE', #570, 3.999999999999996447 ) ;
#758 = LINE ( 'NONE', #340, #1203 ) ;
#759 = CARTESIAN_POINT ( 'NONE',  ( -15.02601910021416565, 15.02601910021410880, 12.00000000000000000 ) ) ;
#760 = DIRECTION ( 'NONE',  ( 0.000000000000000000, 0.000000000000000000, -1.000000000000000000 ) ) ;
#761 = LINE ( 'NONE', #1242, #13 ) ;
#762 = EDGE_CURVE ( 'NONE', #406, #1350, #480, .T. ) ;
#763 = AXIS2_PLACEMENT_3D ( 'NONE', #262, #788, #973 ) ;
#764 = DIRECTION ( 'NONE',  ( -0.000000000000000000, -0.000000000000000000, 1.000000000000000000 ) ) ;
#765 = CIRCLE ( 'NONE', #239, 2.249999999999995115 ) ;
#766 = ORIENTED_EDGE ( 'NONE', *, *, #284, .F. ) ;
#767 = ORIENTED_EDGE ( 'NONE', *, *, #1070, .T. ) ;
#768 = CARTESIAN_POINT ( 'NONE',  ( 17.27601910021416032, 15.02601910021411236, 4.400000000000001243 ) ) ;
#769 = FACE_BOUND ( 'NONE', #882, .T. ) ;
#770 = CARTESIAN_POINT ( 'NONE',  ( 17.27601910021416032, -15.02601910021410880, 0.000000000000000000 ) ) ;
#771 = CARTESIAN_POINT ( 'NONE',  ( -15.02601910021416565, 15.02601910021410880, 4.400000000000001243 ) ) ;
#772 = CARTESIAN_POINT ( 'NONE',  ( -19.99999999999999289, -20.00000000000000711, 12.00000000000000000 ) ) ;
#773 = DIRECTION ( 'NONE',  ( -0.000000000000000000, -0.000000000000000000, -1.000000000000000000 ) ) ;
#774 = APPROVAL_PERSON_ORGANIZATION ( #1031, #837, #38 ) ;
#775 = CYLINDRICAL_SURFACE ( 'NONE', #763, 2.249999999999996891 ) ;
#776 = AXIS2_PLACEMENT_3D ( 'NONE', #1205, #645, #497 ) ;
#777 = FACE_OUTER_BOUND ( 'NONE', #317, .T. ) ;
#778 = ORIENTED_EDGE ( 'NONE', *, *, #51, .F. ) ;
#779 = EDGE_LOOP ( 'NONE', ( #1067, #1197, #927, #402 ) ) ;
#780 = CARTESIAN_POINT ( 'NONE',  ( -10.50000000000000000, 0.000000000000000000, 22.00000000000000000 ) ) ;
#781 = EDGE_CURVE ( 'NONE', #807, #1302, #950, .T. ) ;
#782 = DIRECTION ( 'NONE',  ( -0.000000000000000000, -0.000000000000000000, -1.000000000000000000 ) ) ;
#783 = CIRCLE ( 'NONE', #854, 2.249999999999998668 ) ;
#784 = VECTOR ( 'NONE', #789, 1000.000000000000000 ) ;
#785 = CARTESIAN_POINT ( 'NONE',  ( 15.02601910021416565, -15.02601910021410880, 0.000000000000000000 ) ) ;
#786 = CIRCLE ( 'NONE', #44, 2.250000000000000444 ) ;
#787 = ORIENTED_EDGE ( 'NONE', *, *, #1070, .F. ) ;
#788 = DIRECTION ( 'NONE',  ( -0.000000000000000000, -0.000000000000000000, -1.000000000000000000 ) ) ;
#789 = DIRECTION ( 'NONE',  ( -0.000000000000000000, -0.000000000000000000, -1.000000000000000000 ) ) ;
#790 = AXIS2_PLACEMENT_3D ( 'NONE', #405, #1328, #289 ) ;
#791 = PERSON_AND_ORGANIZATION ( #592, #89 ) ;
#792 = CARTESIAN_POINT ( 'NONE',  ( 15.02601910021416565, -15.02601910021410880, 3.851859888774471706E-31 ) ) ;
#793 = FACE_OUTER_BOUND ( 'NONE', #795, .T. ) ;
#794 = ORIENTED_EDGE ( 'NONE', *, *, #1356, .T. ) ;
#795 = EDGE_LOOP ( 'NONE', ( #1338, #1195, #243, #98 ) ) ;
#796 = ORIENTED_EDGE ( 'NONE', *, *, #381, .F. ) ;
#797 = DIRECTION ( 'NONE',  ( 1.000000000000000000, 0.000000000000000000, 0.000000000000000000 ) ) ;
#798 = FACE_OUTER_BOUND ( 'NONE', #987, .T. ) ;
#799 = APPROVAL_ROLE ( '' ) ;
#800 = CARTESIAN_POINT ( 'NONE',  ( 0.000000000000000000, 0.000000000000000000, -2.602085213965210642E-15 ) ) ;
#801 = EDGE_CURVE ( 'NONE', #108, #603, #398, .T. ) ;
#802 = CARTESIAN_POINT ( 'NONE',  ( -19.99999999999999289, -16.00000000000000711, 12.00000000000000000 ) ) ;
#803 = AXIS2_PLACEMENT_3D ( 'NONE', #277, #154, #598 ) ;
#804 = ORIENTED_EDGE ( 'NONE', *, *, #490, .T. ) ;
#805 = EDGE_CURVE ( 'NONE', #1224, #1330, #1192, .T. ) ;
#806 = ADVANCED_FACE ( 'NONE', ( #1148 ), #858, .F. ) ;
#807 = VERTEX_POINT ( 'NONE', #209 ) ;
#808 = LINE ( 'NONE', #1222, #392 ) ;
#809 = CIRCLE ( 'NONE', #708, 3.999999999999996447 ) ;
#810 = EDGE_CURVE ( 'NONE', #1082, #651, #983, .T. ) ;
#811 = DIRECTION ( 'NONE',  ( 0.000000000000000000, -0.000000000000000000, 1.000000000000000000 ) ) ;
#812 = LINE ( 'NONE', #1, #193 ) ;
#813 = VERTEX_POINT ( 'NONE', #920 ) ;
#814 = ORIENTED_EDGE ( 'NONE', *, *, #236, .T. ) ;
#815 = PLANE ( 'NONE',  #721 ) ;
#816 = DIRECTION ( 'NONE',  ( 1.000000000000000000, 0.000000000000000000, 0.000000000000000000 ) ) ;
#817 = ADVANCED_FACE ( 'NONE', ( #17 ), #435, .F. ) ;
#818 = ORIENTED_EDGE ( 'NONE', *, *, #1170, .T. ) ;
#819 = CYLINDRICAL_SURFACE ( 'NONE', #431, 3.999999999999994671 ) ;
#820 = CYLINDRICAL_SURFACE ( 'NONE', #117, 2.249999999999996891 ) ;
#821 = ORIENTED_EDGE ( 'NONE', *, *, #801, .F. ) ;
#822 = AXIS2_PLACEMENT_3D ( 'NONE', #565, #14, #346 ) ;
#823 = FACE_OUTER_BOUND ( 'NONE', #535, .T. ) ;
#824 = DIRECTION ( 'NONE',  ( -0.000000000000000000, -0.000000000000000000, -1.000000000000000000 ) ) ;
#825 = ADVANCED_FACE ( 'NONE', ( #679 ), #615, .F. ) ;
#826 = CIRCLE ( 'NONE', #54, 3.999999999999998224 ) ;
#827 = CARTESIAN_POINT ( 'NONE',  ( -12.77601910021426690, -15.02601910021400755, 4.400000000000001243 ) ) ;
#828 = ORIENTED_EDGE ( 'NONE', *, *, #362, .T. ) ;
#829 = PRODUCT ( '031167-A', '031167-A', '', ( #1307 ) ) ;
#830 = ORIENTED_EDGE ( 'NONE', *, *, #449, .T. ) ;
#831 = AXIS2_PLACEMENT_3D ( 'NONE', #576, #359, #126 ) ;
#832 = DIRECTION ( 'NONE',  ( -0.000000000000000000, -0.000000000000000000, -1.000000000000000000 ) ) ;
#833 = DIRECTION ( 'NONE',  ( -0.000000000000000000, -0.000000000000000000, -1.000000000000000000 ) ) ;
#834 = ADVANCED_FACE ( 'NONE', ( #777 ), #648, .F. ) ;
#835 = CARTESIAN_POINT ( 'NONE',  ( 20.00000000000000711, 15.99999999999999645, 0.000000000000000000 ) ) ;
#836 = DIRECTION ( 'NONE',  ( -1.000000000000000000, 0.000000000000000000, 0.000000000000000000 ) ) ;
#837 = APPROVAL ( #1009, 'UNSPECIFIED' ) ;
#838 = CARTESIAN_POINT ( 'NONE',  ( -19.02601910021415677, 15.02601910021410880, 3.851859888774471706E-31 ) ) ;
#839 = ORIENTED_EDGE ( 'NONE', *, *, #1121, .T. ) ;
#840 = ORIENTED_EDGE ( 'NONE', *, *, #276, .F. ) ;
#841 = CYLINDRICAL_SURFACE ( 'NONE', #1132, 5.350000000000000533 ) ;
#842 = CARTESIAN_POINT ( 'NONE',  ( -12.77601910021426690, -15.02601910021400755, 4.400000000000001243 ) ) ;
#843 = CARTESIAN_POINT ( 'NONE',  ( -5.350000000000000533, 6.551860375438339695E-16, 5.999999999999998224 ) ) ;
#844 = DIRECTION ( 'NONE',  ( 0.000000000000000000, 0.000000000000000000, 1.000000000000000000 ) ) ;
#845 = VECTOR ( 'NONE', #134, 1000.000000000000114 ) ;
#846 = CARTESIAN_POINT ( 'NONE',  ( -15.02601910021426690, -15.02601910021400755, 0.000000000000000000 ) ) ;
#847 = FACE_OUTER_BOUND ( 'NONE', #295, .T. ) ;
#848 = ORIENTED_EDGE ( 'NONE', *, *, #872, .F. ) ;
#849 = DIRECTION ( 'NONE',  ( -0.000000000000000000, -0.000000000000000000, -1.000000000000000000 ) ) ;
#850 = ORIENTED_EDGE ( 'NONE', *, *, #519, .F. ) ;
#851 = ORIENTED_EDGE ( 'NONE', *, *, #810, .T. ) ;
#852 = PLANE ( 'NONE',  #936 ) ;
#853 = DIRECTION ( 'NONE',  ( -0.000000000000000000, -0.000000000000000000, -1.000000000000000000 ) ) ;
#854 = AXIS2_PLACEMENT_3D ( 'NONE', #976, #472, #252 ) ;
#855 = LINE ( 'NONE', #299, #1373 ) ;
#856 = CARTESIAN_POINT ( 'NONE',  ( -12.77601910021416565, 15.02601910021410880, 0.000000000000000000 ) ) ;
#857 = CARTESIAN_POINT ( 'NONE',  ( -6.640933000000000419, 8.132797341802030489E-16, 22.00000000000000000 ) ) ;
#858 = CYLINDRICAL_SURFACE ( 'NONE', #538, 3.999999999999994671 ) ;
#859 = DIRECTION ( 'NONE',  ( 0.000000000000000000, 0.000000000000000000, -1.000000000000000000 ) ) ;
#860 = VERTEX_POINT ( 'NONE', #729 ) ;
#861 = VERTEX_POINT ( 'NONE', #423 ) ;
#862 = DIRECTION ( 'NONE',  ( 1.000000000000000000, 0.000000000000000000, 0.000000000000000000 ) ) ;
#863 = EDGE_LOOP ( 'NONE', ( #881, #984 ) ) ;
#864 = CARTESIAN_POINT ( 'NONE',  ( -15.02601910021416565, 15.02601910021410880, 4.400000000000001243 ) ) ;
#865 = DIRECTION ( 'NONE',  ( 0.8571673007021122226, 0.000000000000000000, 0.5150380749100541555 ) ) ;
#866 = CARTESIAN_POINT ( 'NONE',  ( 0.000000000000000000, 0.000000000000000000, 22.00000000000000000 ) ) ;
#867 = EDGE_CURVE ( 'NONE', #106, #345, #365, .T. ) ;
#868 = EDGE_CURVE ( 'NONE', #1071, #52, #1064, .T. ) ;
#869 = CIRCLE ( 'NONE', #580, 2.249999999999998668 ) ;
#870 = DIRECTION ( 'NONE',  ( -0.000000000000000000, -0.000000000000000000, -1.000000000000000000 ) ) ;
#871 = AXIS2_PLACEMENT_3D ( 'NONE', #921, #296, #506 ) ;
#872 = EDGE_CURVE ( 'NONE', #1159, #219, #579, .T. ) ;
#873 = EDGE_CURVE ( 'NONE', #562, #469, #37, .T. ) ;
#874 = CYLINDRICAL_SURFACE ( 'NONE', #281, 2.249999999999996891 ) ;
#875 = ORIENTED_EDGE ( 'NONE', *, *, #1295, .T. ) ;
#876 = ORIENTED_EDGE ( 'NONE', *, *, #1121, .F. ) ;
#877 = ORIENTED_EDGE ( 'NONE', *, *, #360, .F. ) ;
#878 = CARTESIAN_POINT ( 'NONE',  ( 16.00000000000000711, 19.99999999999999645, 0.000000000000000000 ) ) ;
#879 = DIRECTION ( 'NONE',  ( -0.000000000000000000, -0.000000000000000000, -1.000000000000000000 ) ) ;
#880 = CARTESIAN_POINT ( 'NONE',  ( -15.99999999999999645, -20.00000000000000711, 0.000000000000000000 ) ) ;
#881 = ORIENTED_EDGE ( 'NONE', *, *, #58, .F. ) ;
#882 = EDGE_LOOP ( 'NONE', ( #467, #752 ) ) ;
#883 = CARTESIAN_POINT ( 'NONE',  ( 20.00000000000000711, 19.99999999999999645, 0.000000000000000000 ) ) ;
#884 = LINE ( 'NONE', #622, #612 ) ;
#885 = CARTESIAN_POINT ( 'NONE',  ( 0.000000000000000000, 0.000000000000000000, 22.00000000000000000 ) ) ;
#886 = DIRECTION ( 'NONE',  ( -1.000000000000000000, 0.000000000000000000, 0.000000000000000000 ) ) ;
#887 = FACE_OUTER_BOUND ( 'NONE', #1119, .T. ) ;
#888 = DIRECTION ( 'NONE',  ( 0.000000000000000000, -0.000000000000000000, 1.000000000000000000 ) ) ;
#889 = AXIS2_PLACEMENT_3D ( 'NONE', #991, #1185, #886 ) ;
#890 = VECTOR ( 'NONE', #832, 1000.000000000000000 ) ;
#891 = CARTESIAN_POINT ( 'NONE',  ( 20.00000000000000711, -20.00000000000000000, 12.00000000000000000 ) ) ;
#892 = DIRECTION ( 'NONE',  ( 0.03120142222625948633, 0.000000000000000000, 0.9995131170980491309 ) ) ;
#893 = ORIENTED_EDGE ( 'NONE', *, *, #913, .F. ) ;
#894 = ORIENTED_EDGE ( 'NONE', *, *, #453, .F. ) ;
#895 = DIRECTION ( 'NONE',  ( 1.000000000000000000, 0.000000000000000000, -0.000000000000000000 ) ) ;
#896 = APPROVAL_STATUS ( 'not_yet_approved' ) ;
#897 = AXIS2_PLACEMENT_3D ( 'NONE', #740, #1040, #199 ) ;
#898 = CIRCLE ( 'NONE', #338, 2.249999999999998668 ) ;
#899 = DIRECTION ( 'NONE',  ( -1.000000000000000000, 0.000000000000000000, 0.000000000000000000 ) ) ;
#900 = AXIS2_PLACEMENT_3D ( 'NONE', #43, #1105, #1208 ) ;
#901 = APPROVAL_PERSON_ORGANIZATION ( #510, #699, #1112 ) ;
#902 = ADVANCED_FACE ( 'NONE', ( #495 ), #292, .F. ) ;
#903 = EDGE_LOOP ( 'NONE', ( #731, #1243 ) ) ;
#904 = CARTESIAN_POINT ( 'NONE',  ( 5.350000000000000533, 0.000000000000000000, 22.00000000000000000 ) ) ;
#905 = PERSON_AND_ORGANIZATION_ROLE ( 'creator' ) ;
#906 = CARTESIAN_POINT ( 'NONE',  ( 6.640933000000000419, 0.000000000000000000, 22.00000000000000000 ) ) ;
#907 = CARTESIAN_POINT ( 'NONE',  ( 16.00000000000000711, 19.99999999999999645, 12.00000000000000000 ) ) ;
#908 = AXIS2_PLACEMENT_3D ( 'NONE', #607, #713, #816 ) ;
#909 = ORIENTED_EDGE ( 'NONE', *, *, #638, .F. ) ;
#910 = ORIENTED_EDGE ( 'NONE', *, *, #306, .T. ) ;
#911 = DIRECTION ( 'NONE',  ( -1.000000000000000000, 0.000000000000000000, 0.000000000000000000 ) ) ;
#912 = ADVANCED_FACE ( 'NONE', ( #1093 ), #511, .F. ) ;
#913 = EDGE_CURVE ( 'NONE', #251, #1330, #104, .T. ) ;
#914 = LINE ( 'NONE', #42, #1017 ) ;
#915 = FACE_OUTER_BOUND ( 'NONE', #181, .T. ) ;
#916 = ORIENTED_EDGE ( 'NONE', *, *, #212, .T. ) ;
#917 = ORIENTED_EDGE ( 'NONE', *, *, #1318, .F. ) ;
#918 = ORIENTED_EDGE ( 'NONE', *, *, #1215, .F. ) ;
#919 = DIRECTION ( 'NONE',  ( -0.000000000000000000, -0.000000000000000000, -1.000000000000000000 ) ) ;
#920 = CARTESIAN_POINT ( 'NONE',  ( -19.02601910021425979, -15.02601910021400755, 3.851859888774471706E-31 ) ) ;
#921 = CARTESIAN_POINT ( 'NONE',  ( 0.000000000000000000, 0.000000000000000000, 12.00000000000000000 ) ) ;
#922 = DIRECTION ( 'NONE',  ( -1.000000000000000000, 0.000000000000000000, 0.000000000000000000 ) ) ;
#923 = CARTESIAN_POINT ( 'NONE',  ( 19.02601910021415677, 15.02601910021411236, 4.400000000000001243 ) ) ;
#924 = ORIENTED_EDGE ( 'NONE', *, *, #11, .T. ) ;
#925 = LINE ( 'NONE', #110, #258 ) ;
#926 = ADVANCED_FACE ( 'NONE', ( #793 ), #1292, .F. ) ;
#927 = ORIENTED_EDGE ( 'NONE', *, *, #123, .T. ) ;
#928 = DIRECTION ( 'NONE',  ( 1.000000000000000000, 0.000000000000000000, 0.000000000000000000 ) ) ;
#929 = CARTESIAN_POINT ( 'NONE',  ( -15.02601910021416565, 15.02601910021410880, 0.000000000000000000 ) ) ;
#930 = DIRECTION ( 'NONE',  ( -0.000000000000000000, -0.000000000000000000, 1.000000000000000000 ) ) ;
#931 = EDGE_CURVE ( 'NONE', #469, #562, #263, .T. ) ;
#932 = LINE ( 'NONE', #620, #689 ) ;
#933 = DIRECTION ( 'NONE',  ( -0.000000000000000000, -0.000000000000000000, 1.000000000000000000 ) ) ;
#934 = ORIENTED_EDGE ( 'NONE', *, *, #566, .F. ) ;
#935 = ORIENTED_EDGE ( 'NONE', *, *, #658, .T. ) ;
#936 = AXIS2_PLACEMENT_3D ( 'NONE', #842, #433, #940 ) ;
#937 = VERTEX_POINT ( 'NONE', #1369 ) ;
#938 = DIRECTION ( 'NONE',  ( -0.000000000000000000, -0.000000000000000000, 1.000000000000000000 ) ) ;
#939 = EDGE_CURVE ( 'NONE', #502, #661, #1032, .T. ) ;
#940 = DIRECTION ( 'NONE',  ( 1.000000000000000000, 0.000000000000000000, -0.000000000000000000 ) ) ;
#941 = EDGE_CURVE ( 'NONE', #1224, #630, #812, .T. ) ;
#942 = AXIS2_PLACEMENT_3D ( 'NONE', #36, #782, #1196 ) ;
#943 = EDGE_CURVE ( 'NONE', #1097, #1300, #1079, .T. ) ;
#944 = CARTESIAN_POINT ( 'NONE',  ( -15.02601910021426690, -15.02601910021400755, 4.400000000000001243 ) ) ;
#945 = CARTESIAN_POINT ( 'NONE',  ( -15.99999999999999289, 15.99999999999999645, 0.000000000000000000 ) ) ;
#946 = ORIENTED_EDGE ( 'NONE', *, *, #735, .T. ) ;
#947 = CARTESIAN_POINT ( 'NONE',  ( 4.913946499999998885, 6.017848852406337328E-16, -2.602085213965210642E-15 ) ) ;
#948 = CIRCLE ( 'NONE', #831, 4.000000000000000000 ) ;
#949 = CARTESIAN_POINT ( 'NONE',  ( 20.00000000000000711, 15.99999999999999645, 12.00000000000000000 ) ) ;
#950 = CIRCLE ( 'NONE', #1278, 6.235116926150933381 ) ;
#951 = ORIENTED_EDGE ( 'NONE', *, *, #573, .T. ) ;
#952 = EDGE_LOOP ( 'NONE', ( #916, #814 ) ) ;
#953 = ORIENTED_EDGE ( 'NONE', *, *, #519, .T. ) ;
#954 = ORIENTED_EDGE ( 'NONE', *, *, #164, .T. ) ;
#955 = DIRECTION ( 'NONE',  ( -0.000000000000000000, -0.000000000000000000, -1.000000000000000000 ) ) ;
#956 = DIRECTION ( 'NONE',  ( -0.000000000000000000, -0.000000000000000000, -1.000000000000000000 ) ) ;
#957 = DIRECTION ( 'NONE',  ( 0.000000000000000000, 0.000000000000000000, 1.000000000000000000 ) ) ;
#958 = EDGE_CURVE ( 'NONE', #732, #149, #232, .T. ) ;
#959 = EDGE_LOOP ( 'NONE', ( #1312, #893, #253, #358 ) ) ;
#960 = AXIS2_PLACEMENT_3D ( 'NONE', #1285, #879, #675 ) ;
#961 = DIRECTION ( 'NONE',  ( 1.000000000000000000, 0.000000000000000000, 0.000000000000000000 ) ) ;
#962 = PERSON_AND_ORGANIZATION ( #592, #89 ) ;
#963 = LINE ( 'NONE', #1104, #1177 ) ;
#964 = CARTESIAN_POINT ( 'NONE',  ( 17.27601910021416032, 15.02601910021411236, 12.00000000000000000 ) ) ;
#965 = EDGE_LOOP ( 'NONE', ( #481, #718, #197, #909 ) ) ;
#966 = EDGE_LOOP ( 'NONE', ( #144, #988, #84, #1265 ) ) ;
#967 = DIRECTION ( 'NONE',  ( 1.000000000000000000, 0.000000000000000000, 0.000000000000000000 ) ) ;
#968 = CC_DESIGN_PERSON_AND_ORGANIZATION_ASSIGNMENT ( #962, #47, ( #1365 ) ) ;
#969 = VERTEX_POINT ( 'NONE', #6 ) ;
#970 = CARTESIAN_POINT ( 'NONE',  ( 10.50000000000000000, 1.285879139104720831E-15, 12.00000000000000000 ) ) ;
#971 = VERTEX_POINT ( 'NONE', #857 ) ;
#972 = LINE ( 'NONE', #843, #707 ) ;
#973 = DIRECTION ( 'NONE',  ( -1.000000000000000000, 0.000000000000000000, 0.000000000000000000 ) ) ;
#974 = DIRECTION ( 'NONE',  ( -0.000000000000000000, -1.000000000000000000, -0.000000000000000000 ) ) ;
#975 = AXIS2_PLACEMENT_3D ( 'NONE', #1346, #933, #310 ) ;
#976 = CARTESIAN_POINT ( 'NONE',  ( 15.02601910021416209, 15.02601910021411236, 12.00000000000000000 ) ) ;
#977 = AXIS2_PLACEMENT_3D ( 'NONE', #627, #1349, #211 ) ;
#978 = APPROVAL_DATE_TIME ( #1143, #484 ) ;
#979 = PLANE ( 'NONE',  #326 ) ;
#980 = FACE_BOUND ( 'NONE', #116, .T. ) ;
#981 = CARTESIAN_POINT ( 'NONE',  ( 20.00000000000000711, -16.00000000000000000, 12.00000000000000000 ) ) ;
#982 = FACE_BOUND ( 'NONE', #903, .T. ) ;
#983 = LINE ( 'NONE', #1237, #890 ) ;
#984 = ORIENTED_EDGE ( 'NONE', *, *, #1008, .F. ) ;
#985 = ORIENTED_EDGE ( 'NONE', *, *, #56, .T. ) ;
#986 = DIRECTION ( 'NONE',  ( -1.000000000000000000, 0.000000000000000000, 0.000000000000000000 ) ) ;
#987 = EDGE_LOOP ( 'NONE', ( #818, #198, #585, #951, #582, #935, #924, #142 ) ) ;
#988 = ORIENTED_EDGE ( 'NONE', *, *, #153, .T. ) ;
#989 = EDGE_LOOP ( 'NONE', ( #632, #918, #496, #73 ) ) ;
#990 = CARTESIAN_POINT ( 'NONE',  ( 4.913946499999998885, 6.017848852406337328E-16, -2.602085213965210642E-15 ) ) ;
#991 = CARTESIAN_POINT ( 'NONE',  ( 15.02601910021416565, -15.02601910021410880, 3.851859888774471706E-31 ) ) ;
#992 = PLANE ( 'NONE',  #693 ) ;
#993 = ORIENTED_EDGE ( 'NONE', *, *, #527, .T. ) ;
#994 = FACE_OUTER_BOUND ( 'NONE', #966, .T. ) ;
#995 = CARTESIAN_POINT ( 'NONE',  ( 0.000000000000000000, 0.000000000000000000, 5.632347591282560018 ) ) ;
#996 = VERTEX_POINT ( 'NONE', #337 ) ;
#997 = DIRECTION ( 'NONE',  ( -0.000000000000000000, -0.000000000000000000, -1.000000000000000000 ) ) ;
#998 = APPROVAL_PERSON_ORGANIZATION ( #577, #484, #799 ) ;
#999 = DIRECTION ( 'NONE',  ( 1.000000000000000000, 0.000000000000000000, 0.000000000000000000 ) ) ;
#1000 = CIRCLE ( 'NONE', #871, 10.50000000000000000 ) ;
#1001 = LINE ( 'NONE', #891, #1255 ) ;
#1002 = CARTESIAN_POINT ( 'NONE',  ( -5.350000000000000533, 6.551860375438339695E-16, 8.999999999999998224 ) ) ;
#1003 = CARTESIAN_POINT ( 'NONE',  ( -15.99999999999999645, 19.99999999999999289, 12.00000000000000000 ) ) ;
#1004 = ORIENTED_EDGE ( 'NONE', *, *, #86, .F. ) ;
#1005 = CARTESIAN_POINT ( 'NONE',  ( -15.02601910021426690, -15.02601910021400755, 3.851859888774471706E-31 ) ) ;
#1006 = FACE_BOUND ( 'NONE', #464, .T. ) ;
#1007 = EDGE_CURVE ( 'NONE', #483, #143, #1310, .T. ) ;
#1008 = EDGE_CURVE ( 'NONE', #18, #65, #765, .T. ) ;
#1009 = APPROVAL_STATUS ( 'not_yet_approved' ) ;
#1010 = AXIS2_PLACEMENT_3D ( 'NONE', #442, #764, #862 ) ;
#1011 = CARTESIAN_POINT ( 'NONE',  ( 20.00000000000000711, -16.00000000000000000, 0.000000000000000000 ) ) ;
#1012 = EDGE_CURVE ( 'NONE', #127, #92, #316, .T. ) ;
#1013 = EDGE_LOOP ( 'NONE', ( #1374, #1212, #691, #390 ) ) ;
#1014 = ORIENTED_EDGE ( 'NONE', *, *, #241, .T. ) ;
#1015 = CARTESIAN_POINT ( 'NONE',  ( -12.77601910021416565, 15.02601910021410880, 4.400000000000001243 ) ) ;
#1016 = CALENDAR_DATE ( 2021, 6, 12 ) ;
#1017 = VECTOR ( 'NONE', #892, 1000.000000000000114 ) ;
#1018 = EDGE_CURVE ( 'NONE', #630, #251, #250, .T. ) ;
#1019 = FACE_OUTER_BOUND ( 'NONE', #719, .T. ) ;
#1020 = ORIENTED_EDGE ( 'NONE', *, *, #51, .T. ) ;
#1021 = CARTESIAN_POINT ( 'NONE',  ( 19.02601910021415677, -15.02601910021410880, 3.851859888774471706E-31 ) ) ;
#1022 = VECTOR ( 'NONE', #25, 1000.000000000000000 ) ;
#1023 = ADVANCED_FACE ( 'NONE', ( #915 ), #176, .F. ) ;
#1024 = ORIENTED_EDGE ( 'NONE', *, *, #348, .T. ) ;
#1025 = ORIENTED_EDGE ( 'NONE', *, *, #301, .F. ) ;
#1026 = DIRECTION ( 'NONE',  ( -0.000000000000000000, -0.000000000000000000, -1.000000000000000000 ) ) ;
#1027 = PRODUCT_DEFINITION_SHAPE ( 'NONE', 'NONE',  #498 ) ;
#1028 = CIRCLE ( 'NONE', #227, 5.350000000000000533 ) ;
#1029 = CARTESIAN_POINT ( 'NONE',  ( -15.02601910021416565, 15.02601910021410880, 12.00000000000000000 ) ) ;
#1030 = ADVANCED_FACE ( 'NONE', ( #1164 ), #979, .F. ) ;
#1031 = PERSON_AND_ORGANIZATION ( #592, #89 ) ;
#1032 = CIRCLE ( 'NONE', #1147, 3.999999999999993339 ) ;
#1033 = AXIS2_PLACEMENT_3D ( 'NONE', #1087, #555, #146 ) ;
#1034 = DIRECTION ( 'NONE',  ( -0.000000000000000000, -0.000000000000000000, -1.000000000000000000 ) ) ;
#1035 = EDGE_LOOP ( 'NONE', ( #1251, #22, #1020, #840 ) ) ;
#1036 = ORIENTED_EDGE ( 'NONE', *, *, #60, .F. ) ;
#1037 = DIRECTION ( 'NONE',  ( -0.000000000000000000, -0.000000000000000000, -1.000000000000000000 ) ) ;
#1038 = ORIENTED_EDGE ( 'NONE', *, *, #301, .T. ) ;
#1039 = DIRECTION ( 'NONE',  ( -0.000000000000000000, -0.000000000000000000, 1.000000000000000000 ) ) ;
#1040 = DIRECTION ( 'NONE',  ( -0.000000000000000000, -0.000000000000000000, -1.000000000000000000 ) ) ;
#1041 = VERTEX_POINT ( 'NONE', #1193 ) ;
#1042 = CYLINDRICAL_SURFACE ( 'NONE', #1339, 2.249999999999996891 ) ;
#1043 = CARTESIAN_POINT ( 'NONE',  ( 15.02601910021416565, -15.02601910021410880, 12.00000000000000000 ) ) ;
#1044 = CARTESIAN_POINT ( 'NONE',  ( 0.000000000000000000, 0.000000000000000000, 22.00000000000000000 ) ) ;
#1045 = DIRECTION ( 'NONE',  ( -0.000000000000000000, -0.000000000000000000, 1.000000000000000000 ) ) ;
#1046 = CALENDAR_DATE ( 2021, 6, 12 ) ;
#1047 = DIRECTION ( 'NONE',  ( 0.000000000000000000, -0.000000000000000000, 1.000000000000000000 ) ) ;
#1048 = VECTOR ( 'NONE', #256, 1000.000000000000000 ) ;
#1049 = CARTESIAN_POINT ( 'NONE',  ( -19.02601910021416032, 15.02601910021410880, 4.400000000000001243 ) ) ;
#1050 = VECTOR ( 'NONE', #865, 1000.000000000000114 ) ;
#1051 = EDGE_LOOP ( 'NONE', ( #41, #767, #1228, #876 ) ) ;
#1052 = AXIS2_PLACEMENT_3D ( 'NONE', #746, #1366, #93 ) ;
#1053 = ORIENTED_EDGE ( 'NONE', *, *, #1364, .T. ) ;
#1054 = VECTOR ( 'NONE', #9, 1000.000000000000000 ) ;
#1055 = PRODUCT_RELATED_PRODUCT_CATEGORY ( 'detail', '', ( #829 ) ) ;
#1056 = ORIENTED_EDGE ( 'NONE', *, *, #958, .F. ) ;
#1057 = FACE_OUTER_BOUND ( 'NONE', #1098, .T. ) ;
#1058 = VERTEX_POINT ( 'NONE', #663 ) ;
#1059 = DIRECTION ( 'NONE',  ( -0.000000000000000000, -0.000000000000000000, 1.000000000000000000 ) ) ;
#1060 = EDGE_CURVE ( 'NONE', #483, #681, #560, .T. ) ;
#1061 = DIRECTION ( 'NONE',  ( 1.000000000000000000, 0.000000000000000000, -0.000000000000000000 ) ) ;
#1062 = PERSON_AND_ORGANIZATION ( #592, #89 ) ;
#1063 = DIRECTION ( 'NONE',  ( -1.000000000000000000, 0.000000000000000000, 0.000000000000000000 ) ) ;
#1064 = LINE ( 'NONE', #509, #547 ) ;
#1065 = ORIENTED_EDGE ( 'NONE', *, *, #204, .F. ) ;
#1066 = EDGE_LOOP ( 'NONE', ( #1174, #609 ) ) ;
#1067 = ORIENTED_EDGE ( 'NONE', *, *, #377, .F. ) ;
#1068 = CARTESIAN_POINT ( 'NONE',  ( -4.738123639534806308, 0.000000000000000000, 5.632347591282560018 ) ) ;
#1069 = PLANE ( 'NONE',  #544 ) ;
#1070 = EDGE_CURVE ( 'NONE', #18, #1300, #530, .T. ) ;
#1071 = VERTEX_POINT ( 'NONE', #880 ) ;
#1072 = DIRECTION ( 'NONE',  ( -1.000000000000000000, 0.000000000000000000, 0.000000000000000000 ) ) ;
#1073 = AXIS2_PLACEMENT_3D ( 'NONE', #259, #688, #40 ) ;
#1074 = EDGE_CURVE ( 'NONE', #1232, #813, #1290, .T. ) ;
#1075 = DIRECTION ( 'NONE',  ( -0.000000000000000000, -0.000000000000000000, -1.000000000000000000 ) ) ;
#1076 = VECTOR ( 'NONE', #1287, 1000.000000000000000 ) ;
#1077 = DIRECTION ( 'NONE',  ( -0.000000000000000000, -0.000000000000000000, -1.000000000000000000 ) ) ;
#1078 = CIRCLE ( 'NONE', #254, 4.913946499999998885 ) ;
#1079 = CIRCLE ( 'NONE', #1352, 2.249999999999998668 ) ;
#1080 = ORIENTED_EDGE ( 'NONE', *, *, #1364, .F. ) ;
#1081 = CC_DESIGN_APPROVAL ( #699, ( #498 ) ) ;
#1082 = VERTEX_POINT ( 'NONE', #19 ) ;
#1083 = CARTESIAN_POINT ( 'NONE',  ( -11.02601910021427400, -15.02601910021400755, 3.851859888774471706E-31 ) ) ;
#1084 = ORIENTED_EDGE ( 'NONE', *, *, #873, .F. ) ;
#1085 = DIRECTION ( 'NONE',  ( 1.000000000000000000, 0.000000000000000000, 0.000000000000000000 ) ) ;
#1086 = DIRECTION ( 'NONE',  ( 0.000000000000000000, 0.000000000000000000, -1.000000000000000000 ) ) ;
#1087 = CARTESIAN_POINT ( 'NONE',  ( 0.000000000000000000, 0.000000000000000000, 22.00000000000000000 ) ) ;
#1088 = ORIENTED_EDGE ( 'NONE', *, *, #658, .F. ) ;
#1089 = CARTESIAN_POINT ( 'NONE',  ( 20.00000000000000711, -20.00000000000000000, 0.000000000000000000 ) ) ;
#1090 = EDGE_LOOP ( 'NONE', ( #946, #163, #391, #1319 ) ) ;
#1091 = CARTESIAN_POINT ( 'NONE',  ( 20.00000000000000711, 19.99999999999999645, 12.00000000000000000 ) ) ;
#1092 = DIRECTION ( 'NONE',  ( -1.000000000000000000, 0.000000000000000000, 0.000000000000000000 ) ) ;
#1093 = FACE_OUTER_BOUND ( 'NONE', #441, .T. ) ;
#1094 =( NAMED_UNIT ( * ) PLANE_ANGLE_UNIT ( ) SI_UNIT ( $, .RADIAN. ) );
#1095 = ORIENTED_EDGE ( 'NONE', *, *, #1234, .F. ) ;
#1096 = PLANE ( 'NONE',  #102 ) ;
#1097 = VERTEX_POINT ( 'NONE', #240 ) ;
#1098 = EDGE_LOOP ( 'NONE', ( #766, #649, #450, #672 ) ) ;
#1099 = CARTESIAN_POINT ( 'NONE',  ( 0.000000000000000000, 0.000000000000000000, -2.602085213965210642E-15 ) ) ;
#1100 = EDGE_CURVE ( 'NONE', #475, #1224, #628, .T. ) ;
#1101 = DIRECTION ( 'NONE',  ( -0.000000000000000000, -0.000000000000000000, -1.000000000000000000 ) ) ;
#1102 = AXIS2_PLACEMENT_3D ( 'NONE', #1131, #290, #417 ) ;
#1103 = CARTESIAN_POINT ( 'NONE',  ( -15.99999999999999289, 15.99999999999999645, 12.00000000000000000 ) ) ;
#1104 = CARTESIAN_POINT ( 'NONE',  ( -6.640933000000000419, 8.132797341802030489E-16, 22.00000000000000000 ) ) ;
#1105 = DIRECTION ( 'NONE',  ( 0.000000000000000000, 0.000000000000000000, 1.000000000000000000 ) ) ;
#1106 = ORIENTED_EDGE ( 'NONE', *, *, #1170, .F. ) ;
#1107 = COORDINATED_UNIVERSAL_TIME_OFFSET ( 0, 0, .AHEAD. ) ;
#1108 = DIRECTION ( 'NONE',  ( 1.000000000000000000, 0.000000000000000000, 0.000000000000000000 ) ) ;
#1109 = ADVANCED_FACE ( 'NONE', ( #248 ), #103, .T. ) ;
#1110 = LINE ( 'NONE', #567, #845 ) ;
#1111 = ORIENTED_EDGE ( 'NONE', *, *, #306, .F. ) ;
#1112 = APPROVAL_ROLE ( '' ) ;
#1113 = ORIENTED_EDGE ( 'NONE', *, *, #1288, .F. ) ;
#1114 = CARTESIAN_POINT ( 'NONE',  ( 11.02601910021416742, 15.02601910021411236, 3.851859888774471706E-31 ) ) ;
#1115 = ADVANCED_FACE ( 'NONE', ( #1163 ), #1323, .T. ) ;
#1116 = AXIS2_PLACEMENT_3D ( 'NONE', #387, #698, #1108 ) ;
#1117 = DIRECTION ( 'NONE',  ( -1.000000000000000000, 0.000000000000000000, 0.000000000000000000 ) ) ;
#1118 = CIRCLE ( 'NONE', #611, 2.249999999999998668 ) ;
#1119 = EDGE_LOOP ( 'NONE', ( #386, #305, #1038, #1095 ) ) ;
#1120 = FACE_OUTER_BOUND ( 'NONE', #606, .T. ) ;
#1121 = EDGE_CURVE ( 'NONE', #65, #1097, #600, .T. ) ;
#1122 = ADVANCED_FACE ( 'NONE', ( #1357, #747 ), #604, .F. ) ;
#1123 = FACE_OUTER_BOUND ( 'NONE', #1090, .T. ) ;
#1124 = EDGE_CURVE ( 'NONE', #162, #1139, #712, .T. ) ;
#1125 = CYLINDRICAL_SURFACE ( 'NONE', #1173, 10.50000000000000000 ) ;
#1126 = ORIENTED_EDGE ( 'NONE', *, *, #1142, .F. ) ;
#1127 = ORIENTED_EDGE ( 'NONE', *, *, #1142, .T. ) ;
#1128 = ORIENTED_EDGE ( 'NONE', *, *, #123, .F. ) ;
#1129 = CARTESIAN_POINT ( 'NONE',  ( 20.00000000000000711, -20.00000000000000000, 12.00000000000000000 ) ) ;
#1130 = ADVANCED_FACE ( 'NONE', ( #728 ), #874, .F. ) ;
#1131 = CARTESIAN_POINT ( 'NONE',  ( -12.77601910021416565, 15.02601910021410880, 4.400000000000001243 ) ) ;
#1132 = AXIS2_PLACEMENT_3D ( 'NONE', #639, #1039, #625 ) ;
#1133 = DIRECTION ( 'NONE',  ( -0.000000000000000000, -0.000000000000000000, -1.000000000000000000 ) ) ;
#1134 = DIRECTION ( 'NONE',  ( 1.000000000000000000, 0.000000000000000000, 0.000000000000000000 ) ) ;
#1135 = DIRECTION ( 'NONE',  ( -1.000000000000000000, 0.000000000000000000, 0.000000000000000000 ) ) ;
#1136 = ADVANCED_FACE ( 'NONE', ( #1123 ), #15, .F. ) ;
#1137 = ORIENTED_EDGE ( 'NONE', *, *, #448, .T. ) ;
#1138 = CARTESIAN_POINT ( 'NONE',  ( -15.99999999999999645, -20.00000000000000711, 12.00000000000000000 ) ) ;
#1139 = VERTEX_POINT ( 'NONE', #371 ) ;
#1140 = LINE ( 'NONE', #724, #130 ) ;
#1141 = CARTESIAN_POINT ( 'NONE',  ( -15.02601910021426690, -15.02601910021400755, 0.000000000000000000 ) ) ;
#1142 = EDGE_CURVE ( 'NONE', #1071, #513, #659, .T. ) ;
#1143 = DATE_AND_TIME ( #1016, #312 ) ;
#1144 = MANIFOLD_SOLID_BREP ( 'Chamfer1', #584 ) ;
#1145 = CARTESIAN_POINT ( 'NONE',  ( -15.02601910021426690, -15.02601910021400755, 0.000000000000000000 ) ) ;
#1146 = CIRCLE ( 'NONE', #889, 3.999999999999993339 ) ;
#1147 = AXIS2_PLACEMENT_3D ( 'NONE', #1375, #114, #327 ) ;
#1148 = FACE_OUTER_BOUND ( 'NONE', #965, .T. ) ;
#1149 = EDGE_LOOP ( 'NONE', ( #205, #591, #1272, #593 ) ) ;
#1150 = DIRECTION ( 'NONE',  ( -1.000000000000000000, 0.000000000000000000, 0.000000000000000000 ) ) ;
#1151 = ORIENTED_EDGE ( 'NONE', *, *, #493, .T. ) ;
#1152 = ORIENTED_EDGE ( 'NONE', *, *, #276, .T. ) ;
#1153 = DIRECTION ( 'NONE',  ( -1.000000000000000000, 0.000000000000000000, 0.000000000000000000 ) ) ;
#1154 = CARTESIAN_POINT ( 'NONE',  ( -15.99999999999999289, 15.99999999999999645, 12.00000000000000000 ) ) ;
#1155 = CARTESIAN_POINT ( 'NONE',  ( 0.000000000000000000, 0.000000000000000000, 8.999999999999998224 ) ) ;
#1156 = DIRECTION ( 'NONE',  ( -0.000000000000000000, -0.000000000000000000, -1.000000000000000000 ) ) ;
#1157 = DIRECTION ( 'NONE',  ( -0.000000000000000000, -0.000000000000000000, 1.000000000000000000 ) ) ;
#1158 = CIRCLE ( 'NONE', #194, 10.50000000000000000 ) ;
#1159 = VERTEX_POINT ( 'NONE', #802 ) ;
#1160 = CYLINDRICAL_SURFACE ( 'NONE', #790, 4.000000000000000000 ) ;
#1161 = DIRECTION ( 'NONE',  ( -1.000000000000000000, 0.000000000000000000, 0.000000000000000000 ) ) ;
#1162 = AXIS2_PLACEMENT_3D ( 'NONE', #717, #919, #508 ) ;
#1163 = FACE_OUTER_BOUND ( 'NONE', #695, .T. ) ;
#1164 = FACE_OUTER_BOUND ( 'NONE', #716, .T. ) ;
#1165 = DIRECTION ( 'NONE',  ( -0.000000000000000000, -0.000000000000000000, -1.000000000000000000 ) ) ;
#1166 = VERTEX_POINT ( 'NONE', #1002 ) ;
#1167 = CARTESIAN_POINT ( 'NONE',  ( 15.02601910021416209, 15.02601910021411236, 0.000000000000000000 ) ) ;
#1168 = DIRECTION ( 'NONE',  ( -0.000000000000000000, -0.000000000000000000, 1.000000000000000000 ) ) ;
#1169 = EDGE_CURVE ( 'NONE', #143, #1058, #557, .T. ) ;
#1170 = EDGE_CURVE ( 'NONE', #219, #475, #1001, .T. ) ;
#1171 = CIRCLE ( 'NONE', #536, 3.999999999999996447 ) ;
#1172 = CARTESIAN_POINT ( 'NONE',  ( -19.02601910021426690, -15.02601910021400755, 4.400000000000001243 ) ) ;
#1173 = AXIS2_PLACEMENT_3D ( 'NONE', #420, #533, #1150 ) ;
#1174 = ORIENTED_EDGE ( 'NONE', *, *, #801, .T. ) ;
#1175 = DIRECTION ( 'NONE',  ( -0.000000000000000000, -0.000000000000000000, 1.000000000000000000 ) ) ;
#1176 = PERSON_AND_ORGANIZATION ( #592, #89 ) ;
#1177 = VECTOR ( 'NONE', #587, 1000.000000000000114 ) ;
#1178 = LINE ( 'NONE', #780, #158 ) ;
#1179 = ORIENTED_EDGE ( 'NONE', *, *, #300, .F. ) ;
#1180 = EDGE_LOOP ( 'NONE', ( #223, #851, #140, #703 ) ) ;
#1181 = CARTESIAN_POINT ( 'NONE',  ( -15.02601910021416565, 15.02601910021410880, 0.000000000000000000 ) ) ;
#1182 = CARTESIAN_POINT ( 'NONE',  ( 17.27601910021416387, -15.02601910021410880, 4.400000000000001243 ) ) ;
#1183 = DIRECTION ( 'NONE',  ( -1.000000000000000000, 0.000000000000000000, 0.000000000000000000 ) ) ;
#1184 = DIRECTION ( 'NONE',  ( -1.000000000000000000, -1.734723475976806848E-16, 0.000000000000000000 ) ) ;
#1185 = DIRECTION ( 'NONE',  ( -0.000000000000000000, -0.000000000000000000, -1.000000000000000000 ) ) ;
#1186 = CYLINDRICAL_SURFACE ( 'NONE', #1326, 4.000000000000000000 ) ;
#1187 = ORIENTED_EDGE ( 'NONE', *, *, #868, .T. ) ;
#1188 = AXIS2_PLACEMENT_3D ( 'NONE', #388, #1334, #303 ) ;
#1189 = DIRECTION ( 'NONE',  ( -0.000000000000000000, -0.000000000000000000, -1.000000000000000000 ) ) ;
#1190 = CIRCLE ( 'NONE', #942, 2.249999999999998668 ) ;
#1191 = DIRECTION ( 'NONE',  ( -0.000000000000000000, -0.000000000000000000, 1.000000000000000000 ) ) ;
#1192 = LINE ( 'NONE', #1129, #531 ) ;
#1193 = CARTESIAN_POINT ( 'NONE',  ( 17.27601910021416032, 15.02601910021411236, 4.400000000000001243 ) ) ;
#1194 = CC_DESIGN_DATE_AND_TIME_ASSIGNMENT ( #191, #373, ( #498 ) ) ;
#1195 = ORIENTED_EDGE ( 'NONE', *, *, #50, .T. ) ;
#1196 = DIRECTION ( 'NONE',  ( -1.000000000000000000, 0.000000000000000000, 0.000000000000000000 ) ) ;
#1197 = ORIENTED_EDGE ( 'NONE', *, *, #867, .F. ) ;
#1198 = ORIENTED_EDGE ( 'NONE', *, *, #246, .T. ) ;
#1199 = CARTESIAN_POINT ( 'NONE',  ( -15.99999999999999645, -16.00000000000000711, 0.000000000000000000 ) ) ;
#1200 = DIRECTION ( 'NONE',  ( -0.000000000000000000, -0.000000000000000000, -1.000000000000000000 ) ) ;
#1201 = ORIENTED_EDGE ( 'NONE', *, *, #597, .F. ) ;
#1202 = AXIS2_PLACEMENT_3D ( 'NONE', #136, #1075, #1183 ) ;
#1203 = VECTOR ( 'NONE', #1275, 1000.000000000000000 ) ;
#1204 = DIRECTION ( 'NONE',  ( -0.000000000000000000, -0.000000000000000000, 1.000000000000000000 ) ) ;
#1205 = CARTESIAN_POINT ( 'NONE',  ( 0.000000000000000000, 0.000000000000000000, 0.000000000000000000 ) ) ;
#1206 = DIRECTION ( 'NONE',  ( -0.000000000000000000, -0.000000000000000000, 1.000000000000000000 ) ) ;
#1207 = CONICAL_SURFACE ( 'NONE', #59, 6.640933000000000419, 0.03120648702565840746 ) ;
#1208 = DIRECTION ( 'NONE',  ( 1.000000000000000000, 0.000000000000000000, 0.000000000000000000 ) ) ;
#1209 = EDGE_LOOP ( 'NONE', ( #53, #750, #1260, #188 ) ) ;
#1210 = EDGE_CURVE ( 'NONE', #1166, #1058, #414, .T. ) ;
#1211 = DIRECTION ( 'NONE',  ( -1.000000000000000000, 0.000000000000000000, 0.000000000000000000 ) ) ;
#1212 = ORIENTED_EDGE ( 'NONE', *, *, #86, .T. ) ;
#1213 = ADVANCED_FACE ( 'NONE', ( #980, #447, #434, #315, #646, #328 ), #378, .F. ) ;
#1214 = AXIS2_PLACEMENT_3D ( 'NONE', #1154, #1047, #96 ) ;
#1215 = EDGE_CURVE ( 'NONE', #1139, #162, #809, .T. ) ;
#1216 = FACE_OUTER_BOUND ( 'NONE', #297, .T. ) ;
#1217 = CIRCLE ( 'NONE', #624, 2.249999999999995115 ) ;
#1218 = VERTEX_POINT ( 'NONE', #465 ) ;
#1219 = CARTESIAN_POINT ( 'NONE',  ( 19.02601910021415321, 15.02601910021411236, 0.000000000000000000 ) ) ;
#1220 = LINE ( 'NONE', #907, #429 ) ;
#1221 = FACE_OUTER_BOUND ( 'NONE', #265, .T. ) ;
#1222 = CARTESIAN_POINT ( 'NONE',  ( -19.99999999999999289, 15.99999999999999645, 12.00000000000000000 ) ) ;
#1223 = VECTOR ( 'NONE', #425, 1000.000000000000000 ) ;
#1224 = VERTEX_POINT ( 'NONE', #981 ) ;
#1225 = ADVANCED_FACE ( 'NONE', ( #137 ), #775, .F. ) ;
#1226 = VERTEX_POINT ( 'NONE', #249 ) ;
#1227 = ORIENTED_EDGE ( 'NONE', *, *, #1234, .T. ) ;
#1228 = ORIENTED_EDGE ( 'NONE', *, *, #1288, .T. ) ;
#1229 = ORIENTED_EDGE ( 'NONE', *, *, #241, .F. ) ;
#1230 = CIRCLE ( 'NONE', #500, 5.350000000000000533 ) ;
#1231 = DIRECTION ( 'NONE',  ( -0.000000000000000000, -0.000000000000000000, -1.000000000000000000 ) ) ;
#1232 = VERTEX_POINT ( 'NONE', #1083 ) ;
#1233 = CARTESIAN_POINT ( 'NONE',  ( 15.02601910021416565, -15.02601910021410880, 0.000000000000000000 ) ) ;
#1234 = EDGE_CURVE ( 'NONE', #807, #631, #914, .T. ) ;
#1235 = CARTESIAN_POINT ( 'NONE',  ( -15.02601910021426690, -15.02601910021400755, 12.00000000000000000 ) ) ;
#1236 = AXIS2_PLACEMENT_3D ( 'NONE', #201, #75, #524 ) ;
#1237 = CARTESIAN_POINT ( 'NONE',  ( 19.02601910021416032, -15.02601910021410880, 0.000000000000000000 ) ) ;
#1238 = ADVANCED_FACE ( 'NONE', ( #159 ), #992, .F. ) ;
#1239 = APPROVAL_DATE_TIME ( #478, #699 ) ;
#1240 = CONICAL_SURFACE ( 'NONE', #1033, 9.499999999999987566, 0.7853981633974473908 ) ;
#1241 = CIRCLE ( 'NONE', #288, 4.738123639534806308 ) ;
#1242 = CARTESIAN_POINT ( 'NONE',  ( -19.02601910021416032, 15.02601910021410880, 0.000000000000000000 ) ) ;
#1243 = ORIENTED_EDGE ( 'NONE', *, *, #135, .F. ) ;
#1244 = DIRECTION ( 'NONE',  ( 1.000000000000000000, 0.000000000000000000, 0.000000000000000000 ) ) ;
#1245 = CARTESIAN_POINT ( 'NONE',  ( 12.77601910021416742, -15.02601910021410880, 12.00000000000000000 ) ) ;
#1246 = CARTESIAN_POINT ( 'NONE',  ( -4.913946499999998885, 0.000000000000000000, -2.602085213965210642E-15 ) ) ;
#1247 = CARTESIAN_POINT ( 'NONE',  ( 15.02601910021416565, -15.02601910021410880, 0.000000000000000000 ) ) ;
#1248 = EDGE_LOOP ( 'NONE', ( #1151, #1137 ) ) ;
#1249 = CARTESIAN_POINT ( 'NONE',  ( 12.77601910021416387, 15.02601910021411236, 0.000000000000000000 ) ) ;
#1250 = FACE_OUTER_BOUND ( 'NONE', #1013, .T. ) ;
#1251 = ORIENTED_EDGE ( 'NONE', *, *, #589, .T. ) ;
#1252 = CARTESIAN_POINT ( 'NONE',  ( 0.000000000000000000, 0.000000000000000000, 5.632347591282560018 ) ) ;
#1253 = CALENDAR_DATE ( 2021, 6, 12 ) ;
#1254 = DIRECTION ( 'NONE',  ( 1.000000000000000000, 0.000000000000000000, 0.000000000000000000 ) ) ;
#1255 = VECTOR ( 'NONE', #260, 1000.000000000000000 ) ;
#1256 = AXIS2_PLACEMENT_3D ( 'NONE', #545, #1268, #335 ) ;
#1257 = CIRCLE ( 'NONE', #1214, 4.000000000000000000 ) ;
#1258 = EDGE_LOOP ( 'NONE', ( #332, #1113 ) ) ;
#1259 = ORIENTED_EDGE ( 'NONE', *, *, #138, .F. ) ;
#1260 = ORIENTED_EDGE ( 'NONE', *, *, #83, .T. ) ;
#1261 = CC_DESIGN_PERSON_AND_ORGANIZATION_ASSIGNMENT ( #791, #280, ( #1365 ) ) ;
#1262 = DIRECTION ( 'NONE',  ( -1.000000000000000000, 0.000000000000000000, 0.000000000000000000 ) ) ;
#1263 = EDGE_LOOP ( 'NONE', ( #1065, #934, #532, #804 ) ) ;
#1264 = FACE_OUTER_BOUND ( 'NONE', #666, .T. ) ;
#1265 = ORIENTED_EDGE ( 'NONE', *, *, #132, .F. ) ;
#1266 = CYLINDRICAL_SURFACE ( 'NONE', #1202, 10.50000000000000000 ) ;
#1267 = CARTESIAN_POINT ( 'NONE',  ( -11.02601910021427223, -15.02601910021400755, 0.000000000000000000 ) ) ;
#1268 = DIRECTION ( 'NONE',  ( -0.000000000000000000, -0.000000000000000000, -1.000000000000000000 ) ) ;
#1269 = AXIS2_PLACEMENT_3D ( 'NONE', #522, #1133, #407 ) ;
#1270 = ADVANCED_FACE ( 'NONE', ( #1221 ), #279, .F. ) ;
#1271 = CIRCLE ( 'NONE', #977, 3.999999999999993339 ) ;
#1272 = ORIENTED_EDGE ( 'NONE', *, *, #1276, .F. ) ;
#1273 = ORIENTED_EDGE ( 'NONE', *, *, #82, .F. ) ;
#1274 = FACE_OUTER_BOUND ( 'NONE', #344, .T. ) ;
#1275 = DIRECTION ( 'NONE',  ( -0.000000000000000000, -1.000000000000000000, -0.000000000000000000 ) ) ;
#1276 = EDGE_CURVE ( 'NONE', #630, #52, #948, .T. ) ;
#1277 = EDGE_CURVE ( 'NONE', #1294, #651, #1146, .T. ) ;
#1278 = AXIS2_PLACEMENT_3D ( 'NONE', #95, #938, #311 ) ;
#1279 = DIRECTION ( 'NONE',  ( -1.000000000000000000, 0.000000000000000000, 0.000000000000000000 ) ) ;
#1280 = EDGE_CURVE ( 'NONE', #969, #1350, #35, .T. ) ;
#1281 = ORIENTED_EDGE ( 'NONE', *, *, #300, .T. ) ;
#1282 = ORIENTED_EDGE ( 'NONE', *, *, #50, .F. ) ;
#1283 = CARTESIAN_POINT ( 'NONE',  ( 15.02601910021416209, 15.02601910021411236, 4.400000000000001243 ) ) ;
#1284 = CARTESIAN_POINT ( 'NONE',  ( 9.499999999999987566, 1.224646799147352468E-15, 22.00000000000000000 ) ) ;
#1285 = CARTESIAN_POINT ( 'NONE',  ( -15.02601910021426690, -15.02601910021400755, 4.400000000000001243 ) ) ;
#1286 = COORDINATED_UNIVERSAL_TIME_OFFSET ( 0, 0, .AHEAD. ) ;
#1287 = DIRECTION ( 'NONE',  ( -0.000000000000000000, -0.000000000000000000, -1.000000000000000000 ) ) ;
#1288 = EDGE_CURVE ( 'NONE', #1300, #1097, #1190, .T. ) ;
#1289 = CC_DESIGN_PERSON_AND_ORGANIZATION_ASSIGNMENT ( #599, #476, ( #432 ) ) ;
#1290 = CIRCLE ( 'NONE', #822, 3.999999999999991562 ) ;
#1291 = CARTESIAN_POINT ( 'NONE',  ( -15.02601910021426690, -15.02601910021400755, 0.000000000000000000 ) ) ;
#1292 = CONICAL_SURFACE ( 'NONE', #1010, 5.350000000000000533, 1.029744258676654534 ) ;
#1293 = ORIENTED_EDGE ( 'NONE', *, *, #83, .F. ) ;
#1294 = VERTEX_POINT ( 'NONE', #1306 ) ;
#1295 = EDGE_CURVE ( 'NONE', #27, #424, #1110, .T. ) ;
#1296 = CARTESIAN_POINT ( 'NONE',  ( 11.02601910021416920, -15.02601910021410880, 0.000000000000000000 ) ) ;
#1297 = AXIS2_PLACEMENT_3D ( 'NONE', #1044, #1351, #90 ) ;
#1298 = DIRECTION ( 'NONE',  ( 0.000000000000000000, -0.000000000000000000, 1.000000000000000000 ) ) ;
#1299 = DIRECTION ( 'NONE',  ( 1.000000000000000000, 8.673617379884034239E-17, 0.000000000000000000 ) ) ;
#1300 = VERTEX_POINT ( 'NONE', #1182 ) ;
#1301 = CYLINDRICAL_SURFACE ( 'NONE', #32, 4.000000000000000000 ) ;
#1302 = VERTEX_POINT ( 'NONE', #558 ) ;
#1303 = DIRECTION ( 'NONE',  ( -0.000000000000000000, -0.000000000000000000, -1.000000000000000000 ) ) ;
#1304 = FACE_OUTER_BOUND ( 'NONE', #959, .T. ) ;
#1305 = DIRECTION ( 'NONE',  ( -0.000000000000000000, -0.000000000000000000, 1.000000000000000000 ) ) ;
#1306 = CARTESIAN_POINT ( 'NONE',  ( 11.02601910021417098, -15.02601910021410880, 3.851859888774471706E-31 ) ) ;
#1307 = MECHANICAL_CONTEXT ( 'NONE', #1321, 'mechanical' ) ;
#1308 = LOCAL_TIME ( 13, 33, 25.00000000000000000, #1286 ) ;
#1309 = DIRECTION ( 'NONE',  ( -1.000000000000000000, 0.000000000000000000, 0.000000000000000000 ) ) ;
#1310 = LINE ( 'NONE', #756, #1050 ) ;
#1311 = EDGE_CURVE ( 'NONE', #331, #286, #676, .T. ) ;
#1312 = ORIENTED_EDGE ( 'NONE', *, *, #573, .F. ) ;
#1313 = CARTESIAN_POINT ( 'NONE',  ( 16.00000000000000711, 15.99999999999999645, 0.000000000000000000 ) ) ;
#1314 = EDGE_CURVE ( 'NONE', #651, #1294, #91, .T. ) ;
#1315 = APPLICATION_PROTOCOL_DEFINITION ( 'international standard', 'config_control_design', 1994, #1321 ) ;
#1316 =( GEOMETRIC_REPRESENTATION_CONTEXT ( 3 ) GLOBAL_UNCERTAINTY_ASSIGNED_CONTEXT ( ( #118 ) ) GLOBAL_UNIT_ASSIGNED_CONTEXT ( ( #166, #1094, #389 ) ) REPRESENTATION_CONTEXT ( 'NONE', 'WORKASPACE' ) );
#1317 = ADVANCED_FACE ( 'NONE', ( #459 ), #363, .F. ) ;
#1318 = EDGE_CURVE ( 'NONE', #1302, #971, #963, .T. ) ;
#1319 = ORIENTED_EDGE ( 'NONE', *, *, #1311, .F. ) ;
#1320 = LINE ( 'NONE', #669, #64 ) ;
#1321 = APPLICATION_CONTEXT ( 'configuration controlled 3d designs of mechanical parts and assemblies' ) ;
#1322 = CIRCLE ( 'NONE', #225, 10.50000000000000000 ) ;
#1323 = CYLINDRICAL_SURFACE ( 'NONE', #737, 4.000000000000000000 ) ;
#1324 = FACE_BOUND ( 'NONE', #515, .T. ) ;
#1325 = ORIENTED_EDGE ( 'NONE', *, *, #1012, .F. ) ;
#1326 = AXIS2_PLACEMENT_3D ( 'NONE', #196, #101, #206 ) ;
#1327 = AXIS2_PLACEMENT_3D ( 'NONE', #929, #1034, #836 ) ;
#1328 = DIRECTION ( 'NONE',  ( 0.000000000000000000, 0.000000000000000000, -1.000000000000000000 ) ) ;
#1329 = LINE ( 'NONE', #1267, #1054 ) ;
#1330 = VERTEX_POINT ( 'NONE', #696 ) ;
#1331 = AXIS2_PLACEMENT_3D ( 'NONE', #1313, #697, #586 ) ;
#1332 = LINE ( 'NONE', #1249, #228 ) ;
#1333 = COORDINATED_UNIVERSAL_TIME_OFFSET ( 0, 0, .AHEAD. ) ;
#1334 = DIRECTION ( 'NONE',  ( -0.000000000000000000, -0.000000000000000000, 1.000000000000000000 ) ) ;
#1335 = CYLINDRICAL_SURFACE ( 'NONE', #452, 3.999999999999994671 ) ;
#1336 = DIRECTION ( 'NONE',  ( -1.000000000000000000, 0.000000000000000000, 0.000000000000000000 ) ) ;
#1337 = VERTEX_POINT ( 'NONE', #878 ) ;
#1338 = ORIENTED_EDGE ( 'NONE', *, *, #735, .F. ) ;
#1339 = AXIS2_PLACEMENT_3D ( 'NONE', #1141, #635, #418 ) ;
#1340 = ORIENTED_EDGE ( 'NONE', *, *, #1277, .F. ) ;
#1341 = DIRECTION ( 'NONE',  ( 0.000000000000000000, 0.000000000000000000, -1.000000000000000000 ) ) ;
#1342 = ADVANCED_FACE ( 'NONE', ( #887 ), #1207, .F. ) ;
#1343 = DIRECTION ( 'NONE',  ( -0.7071067811865469066, 0.000000000000000000, -0.7071067811865481278 ) ) ;
#1344 = DIRECTION ( 'NONE',  ( 1.000000000000000000, 1.734723475976807094E-16, -0.000000000000000000 ) ) ;
#1345 = CARTESIAN_POINT ( 'NONE',  ( 16.00000000000000711, -20.00000000000000000, 0.000000000000000000 ) ) ;
#1346 = CARTESIAN_POINT ( 'NONE',  ( 0.000000000000000000, 0.000000000000000000, 22.00000000000000000 ) ) ;
#1347 = CARTESIAN_POINT ( 'NONE',  ( 20.00000000000000711, 19.99999999999999645, 12.00000000000000000 ) ) ;
#1348 = ORIENTED_EDGE ( 'NONE', *, *, #810, .F. ) ;
#1349 = DIRECTION ( 'NONE',  ( -0.000000000000000000, -0.000000000000000000, -1.000000000000000000 ) ) ;
#1350 = VERTEX_POINT ( 'NONE', #1003 ) ;
#1351 = DIRECTION ( 'NONE',  ( 0.000000000000000000, 0.000000000000000000, 1.000000000000000000 ) ) ;
#1352 = AXIS2_PLACEMENT_3D ( 'NONE', #111, #550, #1063 ) ;
#1353 = DIRECTION ( 'NONE',  ( 1.000000000000000000, 0.000000000000000000, 0.000000000000000000 ) ) ;
#1354 = SHAPE_DEFINITION_REPRESENTATION ( #1027, #318 ) ;
#1355 = DIRECTION ( 'NONE',  ( -0.000000000000000000, -0.000000000000000000, -1.000000000000000000 ) ) ;
#1356 = EDGE_CURVE ( 'NONE', #603, #502, #382, .T. ) ;
#1357 = FACE_BOUND ( 'NONE', #1258, .T. ) ;
#1358 = ADVANCED_FACE ( 'NONE', ( #700 ), #343, .F. ) ;
#1359 = VECTOR ( 'NONE', #1059, 1000.000000000000000 ) ;
#1360 = ORIENTED_EDGE ( 'NONE', *, *, #212, .F. ) ;
#1361 = EDGE_LOOP ( 'NONE', ( #62, #474, #370, #1128 ) ) ;
#1362 = EDGE_LOOP ( 'NONE', ( #1084, #564 ) ) ;
#1363 = DIRECTION ( 'NONE',  ( 0.000000000000000000, 1.000000000000000000, 0.000000000000000000 ) ) ;
#1364 = EDGE_CURVE ( 'NONE', #483, #331, #1241, .T. ) ;
#1365 = PRODUCT_DEFINITION_FORMATION_WITH_SPECIFIED_SOURCE ( 'ANY', '', #829, .NOT_KNOWN. ) ;
#1366 = DIRECTION ( 'NONE',  ( 0.000000000000000000, 0.000000000000000000, -1.000000000000000000 ) ) ;
#1367 = EDGE_CURVE ( 'NONE', #813, #1232, #49, .T. ) ;
#1368 = DIRECTION ( 'NONE',  ( -0.000000000000000000, -0.000000000000000000, -1.000000000000000000 ) ) ;
#1369 = CARTESIAN_POINT ( 'NONE',  ( -9.499999999999987566, 0.000000000000000000, 22.00000000000000000 ) ) ;
#1370 = EDGE_CURVE ( 'NONE', #1337, #251, #494, .T. ) ;
#1371 = EDGE_LOOP ( 'NONE', ( #1340, #217 ) ) ;
#1372 = LINE ( 'NONE', #1296, #784 ) ;
#1373 = VECTOR ( 'NONE', #517, 1000.000000000000000 ) ;
#1374 = ORIENTED_EDGE ( 'NONE', *, *, #647, .T. ) ;
#1375 = CARTESIAN_POINT ( 'NONE',  ( -15.02601910021416565, 15.02601910021410880, 3.851859888774471706E-31 ) ) ;
#1376 = FACE_OUTER_BOUND ( 'NONE', #989, .T. ) ;
#1377 = AXIS2_PLACEMENT_3D ( 'NONE', #436, #529, #537 ) ;
ENDSEC;
END-ISO-10303-21;
