ISO-10303-21;
HEADER;
FILE_DESCRIPTION (( 'STEP AP203' ),
    '1' );
FILE_NAME ('NAUT_01695-C.step',
    '2026-06-25T09:40:05',
    ( '' ),
    ( '' ),
    'SwSTEP 2.0',
    'SolidWorks 2022',
    '' );
FILE_SCHEMA (( 'CONFIG_CONTROL_DESIGN' ));
ENDSEC;

DATA;
#1 = DIRECTION ( 'NONE',  ( 1.000000000000000000, 0.000000000000000000, 0.000000000000000000 ) ) ;
#2 = DIRECTION ( 'NONE',  ( 1.000000000000000000, 0.000000000000000000, 0.000000000000000000 ) ) ;
#3 = EDGE_CURVE ( 'NONE', #1113, #901, #865, .T. ) ;
#4 = ORIENTED_EDGE ( 'NONE', *, *, #673, .T. ) ;
#5 = DATE_AND_TIME ( #188, #663 ) ;
#6 = DIRECTION ( 'NONE',  ( 1.000000000000000000, 0.000000000000000000, 0.000000000000000000 ) ) ;
#7 = LINE ( 'NONE', #808, #632 ) ;
#8 = AXIS2_PLACEMENT_3D ( 'NONE', #1073, #876, #277 ) ;
#9 = EDGE_CURVE ( 'NONE', #1051, #79, #1126, .T. ) ;
#10 = VERTEX_POINT ( 'NONE', #113 ) ;
#11 = VERTEX_POINT ( 'NONE', #720 ) ;
#12 = CARTESIAN_POINT ( 'NONE',  ( -2.309401076758503368, 7.037028111042856199E-16, -63.00000000000000000 ) ) ;
#13 = CARTESIAN_POINT ( 'NONE',  ( -3.462698137830985581E-17, 0.000000000000000000, -66.00000000000000000 ) ) ;
#14 = AXIS2_PLACEMENT_3D ( 'NONE', #118, #136, #486 ) ;
#15 = VECTOR ( 'NONE', #314, 1000.000000000000000 ) ;
#16 = ORIENTED_EDGE ( 'NONE', *, *, #390, .T. ) ;
#17 = COORDINATED_UNIVERSAL_TIME_OFFSET ( 0, 0, .AHEAD. ) ;
#18 = CARTESIAN_POINT ( 'NONE',  ( -1.732050807568877415, 1.000000000000000888, -66.00000000000000000 ) ) ;
#19 = CARTESIAN_POINT ( 'NONE',  ( 1.924500897298752511, 0.6666666666666666297, -66.00000000000000000 ) ) ;
#20 = EDGE_LOOP ( 'NONE', ( #493, #154, #731 ) ) ;
#21 = CARTESIAN_POINT ( 'NONE',  ( -1.154700538379251018, -1.999999999999999556, -65.88738721760999795 ) ) ;
#22 = CARTESIAN_POINT ( 'NONE',  ( -1.550000000000009592, 0.000000000000000000, 1.600000000000000089 ) ) ;
#23 = CIRCLE ( 'NONE', #176, 2.899999999999986144 ) ;
#24 = ORIENTED_EDGE ( 'NONE', *, *, #550, .F. ) ;
#25 = VECTOR ( 'NONE', #617, 1000.000000000000000 ) ;
#26 = CONICAL_SURFACE ( 'NONE', #317, 2.199999999999993516, 0.7853981633974447263 ) ;
#27 = DIRECTION ( 'NONE',  ( -1.000000000000000000, 0.000000000000000000, -0.000000000000000000 ) ) ;
#28 = ADVANCED_FACE ( 'NONE', ( #468 ), #897, .T. ) ;
#29 = SECURITY_CLASSIFICATION ( '', '', #967 ) ;
#30 = LINE ( 'NONE', #480, #196 ) ;
#31 = EDGE_CURVE ( 'NONE', #1034, #773, #382, .T. ) ;
#32 = ORIENTED_EDGE ( 'NONE', *, *, #401, .F. ) ;
#33 = AXIS2_PLACEMENT_3D ( 'NONE', #224, #473, #236 ) ;
#34 = VECTOR ( 'NONE', #1067, 1000.000000000000000 ) ;
#35 = CARTESIAN_POINT ( 'NONE',  ( 2.900000000000006128, 0.000000000000000000, -63.00000000000000000 ) ) ;
#36 = CARTESIAN_POINT ( 'NONE',  ( -1.154700538379251018, -1.999999999999999556, -65.88738721760999795 ) ) ;
#37 = DIRECTION ( 'NONE',  ( 0.000000000000000000, 0.000000000000000000, 1.000000000000000000 ) ) ;
#38 = EDGE_CURVE ( 'NONE', #1119, #397, #630, .T. ) ;
#39 = DIRECTION ( 'NONE',  ( 0.000000000000000000, 0.000000000000000000, -1.000000000000000000 ) ) ;
#40 = ORIENTED_EDGE ( 'NONE', *, *, #31, .T. ) ;
#41 = ADVANCED_FACE ( 'NONE', ( #832 ), #119, .F. ) ;
#42 = DIRECTION ( 'NONE',  ( -0.000000000000000000, -0.000000000000000000, 1.000000000000000000 ) ) ;
#43 = CARTESIAN_POINT ( 'NONE',  ( 0.000000000000000000, 0.000000000000000000, -63.00000000000000000 ) ) ;
#44 = EDGE_CURVE ( 'NONE', #1051, #10, #59, .T. ) ;
#45 = APPROVAL ( #975, 'UNSPECIFIED' ) ;
#46 = VERTEX_POINT ( 'NONE', #837 ) ;
#47 = CARTESIAN_POINT ( 'NONE',  ( -1.154700538379252350, 1.999999999999999556, -65.88738721760999795 ) ) ;
#48 = DIRECTION ( 'NONE',  ( -0.4999999999999999445, -0.8660254037844387076, 0.000000000000000000 ) ) ;
#49 = DIRECTION ( 'NONE',  ( 6.570922257487905217E-18, 0.000000000000000000, 1.000000000000000000 ) ) ;
#50 = CIRCLE ( 'NONE', #784, 2.000000000000000888 ) ;
#51 = EDGE_LOOP ( 'NONE', ( #163, #785, #16, #833 ) ) ;
#52 = AXIS2_PLACEMENT_3D ( 'NONE', #275, #502, #247 ) ;
#53 = FACE_OUTER_BOUND ( 'NONE', #950, .T. ) ;
#54 = ORIENTED_EDGE ( 'NONE', *, *, #843, .T. ) ;
#55 = DIRECTION ( 'NONE',  ( 0.7071067811865450192, 8.659560562354902043E-17, -0.7071067811865501263 ) ) ;
#56 = DIRECTION ( 'NONE',  ( 6.570922257487905217E-18, 0.000000000000000000, 1.000000000000000000 ) ) ;
#57 = ORIENTED_EDGE ( 'NONE', *, *, #3, .T. ) ;
#58 = CARTESIAN_POINT ( 'NONE',  ( 1.154700538379251462, -1.999999999999999556, -63.00000000000000000 ) ) ;
#59 = LINE ( 'NONE', #1104, #237 ) ;
#60 = ADVANCED_FACE ( 'NONE', ( #129 ), #653, .T. ) ;
#61 = ORIENTED_EDGE ( 'NONE', *, *, #646, .F. ) ;
#62 = ORIENTED_EDGE ( 'NONE', *, *, #890, .T. ) ;
#63 = VECTOR ( 'NONE', #781, 1000.000000000000000 ) ;
#64 = LOCAL_TIME ( 10, 40, 5.000000000000000000, #345 ) ;
#65 = CARTESIAN_POINT ( 'NONE',  ( 2.309401076758502924, 4.336808689942017736E-16, -66.00000000000000000 ) ) ;
#66 = CARTESIAN_POINT ( 'NONE',  ( 0.000000000000000000, 0.000000000000000000, -0.3000000000000085931 ) ) ;
#67 = EDGE_CURVE ( 'NONE', #296, #658, #421, .T. ) ;
#68 = ORIENTED_EDGE ( 'NONE', *, *, #364, .T. ) ;
#69 = ORIENTED_EDGE ( 'NONE', *, *, #673, .F. ) ;
#70 = PERSON_AND_ORGANIZATION ( #760, #726 ) ;
#71 = AXIS2_PLACEMENT_3D ( 'NONE', #889, #982, #354 ) ;
#72 = DIRECTION ( 'NONE',  ( 1.000000000000000000, 0.000000000000000000, 0.000000000000000000 ) ) ;
#73 = CARTESIAN_POINT ( 'NONE',  ( -2.285499999999999865, 2.798930259451275412E-16, -7.200000000000000178 ) ) ;
#74 = ORIENTED_EDGE ( 'NONE', *, *, #352, .T. ) ;
#75 = APPLICATION_PROTOCOL_DEFINITION ( 'international standard', 'config_control_design', 1994, #190 ) ;
#76 = CARTESIAN_POINT ( 'NONE',  ( 0.000000000000000000, 0.000000000000000000, -8.000000000000000000 ) ) ;
#77 = ADVANCED_FACE ( 'NONE', ( #220 ), #562, .F. ) ;
#78 = CARTESIAN_POINT ( 'NONE',  ( 0.000000000000000000, 0.000000000000000000, 0.000000000000000000 ) ) ;
#79 = VERTEX_POINT ( 'NONE', #1009 ) ;
#80 = CARTESIAN_POINT ( 'NONE',  ( 1.154700538379251684, 1.999999999999999556, -66.00000000000000000 ) ) ;
#81 = CIRCLE ( 'NONE', #906, 2.485500000000000043 ) ;
#82 = CARTESIAN_POINT ( 'NONE',  ( 0.000000000000000000, 0.000000000000000000, -62.89999999999999858 ) ) ;
#83 = ORIENTED_EDGE ( 'NONE', *, *, #496, .T. ) ;
#84 = VERTEX_POINT ( 'NONE', #578 ) ;
#85 = DATE_TIME_ROLE ( 'classification_date' ) ;
#86 = CARTESIAN_POINT ( 'NONE',  ( 0.000000000000000000, 0.000000000000000000, -8.000000000000000000 ) ) ;
#87 = CIRCLE ( 'NONE', #14, 2.285499999999999865 ) ;
#88 = CIRCLE ( 'NONE', #1021, 3.000000000000000000 ) ;
#89 = DIRECTION ( 'NONE',  ( 1.000000000000000000, 0.000000000000000000, 0.000000000000000000 ) ) ;
#90 = ORIENTED_EDGE ( 'NONE', *, *, #1092, .T. ) ;
#91 = LINE ( 'NONE', #708, #516 ) ;
#92 = CARTESIAN_POINT ( 'NONE',  ( -2.285499999999999865, 2.798930259451275412E-16, 0.000000000000000000 ) ) ;
#93 = ORIENTED_EDGE ( 'NONE', *, *, #646, .T. ) ;
#94 = ADVANCED_FACE ( 'NONE', ( #400 ), #596, .T. ) ;
#95 = CARTESIAN_POINT ( 'NONE',  ( -3.462698137830987430E-17, 2.000000000000000444, -66.00000000000000000 ) ) ;
#96 = CARTESIAN_POINT ( 'NONE',  ( 0.000000000000000000, 0.000000000000000000, 1.600000000000000089 ) ) ;
#97 = AXIS2_PLACEMENT_3D ( 'NONE', #812, #721, #1048 ) ;
#98 = ORIENTED_EDGE ( 'NONE', *, *, #885, .F. ) ;
#99 = APPROVAL_DATE_TIME ( #1054, #960 ) ;
#100 = FACE_OUTER_BOUND ( 'NONE', #537, .T. ) ;
#101 = CARTESIAN_POINT ( 'NONE',  ( -3.000000000000000000, 3.673940397442059868E-16, -62.89999999999999858 ) ) ;
#102 = AXIS2_PLACEMENT_3D ( 'NONE', #395, #228, #993 ) ;
#103 = CIRCLE ( 'NONE', #203, 2.500000000000000000 ) ;
#104 = EDGE_LOOP ( 'NONE', ( #794, #1016, #676, #827 ) ) ;
#105 = CALENDAR_DATE ( 2026, 25, 6 ) ;
#106 = DIRECTION ( 'NONE',  ( 0.7071067811865383579, 8.659560562354820692E-17, -0.7071067811865567876 ) ) ;
#107 = CARTESIAN_POINT ( 'NONE',  ( -3.462698137830987430E-17, 2.000000000000000444, -66.00000000000000000 ) ) ;
#108 = VERTEX_POINT ( 'NONE', #826 ) ;
#109 = CC_DESIGN_DATE_AND_TIME_ASSIGNMENT ( #5, #715, ( #648 ) ) ;
#110 = CARTESIAN_POINT ( 'NONE',  ( -0.1944327734641469740, -1.999999999999999556, -66.00000000000007105 ) ) ;
#111 = DIRECTION ( 'NONE',  ( -1.000000000000000000, 0.000000000000000000, 0.000000000000000000 ) ) ;
#112 = AXIS2_PLACEMENT_3D ( 'NONE', #1110, #1129, #340 ) ;
#113 = CARTESIAN_POINT ( 'NONE',  ( -2.309401076758503368, 7.037028111042856199E-16, -63.00000000000000000 ) ) ;
#114 = AXIS2_PLACEMENT_3D ( 'NONE', #424, #847, #415 ) ;
#115 = CARTESIAN_POINT ( 'NONE',  ( 0.000000000000000000, 0.000000000000000000, -8.000000000000000000 ) ) ;
#116 = CARTESIAN_POINT ( 'NONE',  ( 2.500000000000000000, 0.000000000000000000, -0.3000000000000085931 ) ) ;
#117 = ADVANCED_FACE ( 'NONE', ( #410 ), #1004, .T. ) ;
#118 = CARTESIAN_POINT ( 'NONE',  ( 0.000000000000000000, 0.000000000000000000, -7.800000000000000711 ) ) ;
#119 = TOROIDAL_SURFACE ( 'NONE', #616, 2.485500000000000043, 0.2000000000000000111 ) ;
#120 = FACE_OUTER_BOUND ( 'NONE', #104, .T. ) ;
#121 = EDGE_LOOP ( 'NONE', ( #779, #61, #1023, #4 ) ) ;
#122 = EDGE_CURVE ( 'NONE', #679, #953, #87, .T. ) ;
#123 = ADVANCED_FACE ( 'NONE', ( #312 ), #657, .T. ) ;
#124 = CARTESIAN_POINT ( 'NONE',  ( -3.462698137830987430E-17, 2.000000000000000444, -66.00000000000000000 ) ) ;
#125 = CARTESIAN_POINT ( 'NONE',  ( -3.462698137830985581E-17, 0.000000000000000000, -66.00000000000000000 ) ) ;
#126 = ORIENTED_EDGE ( 'NONE', *, *, #941, .T. ) ;
#127 = CARTESIAN_POINT ( 'NONE',  ( 3.000000000000000000, 0.000000000000000000, -8.100000000000017408 ) ) ;
#128 = DIRECTION ( 'NONE',  ( -0.000000000000000000, -0.000000000000000000, -1.000000000000000000 ) ) ;
#129 = FACE_OUTER_BOUND ( 'NONE', #443, .T. ) ;
#130 = ORIENTED_EDGE ( 'NONE', *, *, #411, .T. ) ;
#131 = AXIS2_PLACEMENT_3D ( 'NONE', #1102, #600, #428 ) ;
#132 = CARTESIAN_POINT ( 'NONE',  ( 0.000000000000000000, 0.000000000000000000, -7.800000000000000711 ) ) ;
#133 = ORIENTED_EDGE ( 'NONE', *, *, #1078, .T. ) ;
#134 = ORIENTED_EDGE ( 'NONE', *, *, #768, .F. ) ;
#135 = DIRECTION ( 'NONE',  ( 1.000000000000000000, 0.000000000000000000, 0.000000000000000000 ) ) ;
#136 = DIRECTION ( 'NONE',  ( -0.000000000000000000, -0.000000000000000000, 1.000000000000000000 ) ) ;
#137 = VECTOR ( 'NONE', #699, 1000.000000000000000 ) ;
#138 = ORIENTED_EDGE ( 'NONE', *, *, #479, .F. ) ;
#139 = PRODUCT_DEFINITION_SHAPE ( 'NONE', 'NONE',  #648 ) ;
#140 = ORIENTED_EDGE ( 'NONE', *, *, #302, .F. ) ;
#141 = AXIS2_PLACEMENT_3D ( 'NONE', #373, #274, #793 ) ;
#142 =( NAMED_UNIT ( * ) SI_UNIT ( $, .STERADIAN. ) SOLID_ANGLE_UNIT ( ) );
#143 = EDGE_LOOP ( 'NONE', ( #420, #629, #281 ) ) ;
#144 = CARTESIAN_POINT ( 'NONE',  ( 1.154700538379251684, 1.999999999999999556, -63.00000000000000000 ) ) ;
#145 = ADVANCED_FACE ( 'NONE', ( #822 ), #858, .T. ) ;
#146 = CARTESIAN_POINT ( 'NONE',  ( 0.000000000000000000, 0.000000000000000000, 0.000000000000000000 ) ) ;
#147 = ORIENTED_EDGE ( 'NONE', *, *, #276, .T. ) ;
#148 = ORIENTED_EDGE ( 'NONE', *, *, #719, .F. ) ;
#149 = EDGE_LOOP ( 'NONE', ( #379, #891 ) ) ;
#150 = DIRECTION ( 'NONE',  ( -0.000000000000000000, -0.000000000000000000, 1.000000000000000000 ) ) ;
#151 = CARTESIAN_POINT ( 'NONE',  ( -2.899999999999986144, 0.000000000000000000, -8.000000000000000000 ) ) ;
#152 = EDGE_CURVE ( 'NONE', #1085, #11, #747, .T. ) ;
#153 = DIRECTION ( 'NONE',  ( 0.000000000000000000, 0.000000000000000000, -1.000000000000000000 ) ) ;
#154 = ORIENTED_EDGE ( 'NONE', *, *, #1088, .T. ) ;
#155 = ORIENTED_EDGE ( 'NONE', *, *, #977, .F. ) ;
#156 = ORIENTED_EDGE ( 'NONE', *, *, #192, .T. ) ;
#157 = AXIS2_PLACEMENT_3D ( 'NONE', #409, #255, #246 ) ;
#158 = DIRECTION ( 'NONE',  ( -1.000000000000000000, 0.000000000000000000, 0.000000000000000000 ) ) ;
#159 = CARTESIAN_POINT ( 'NONE',  ( 0.000000000000000000, 0.000000000000000000, 1.600000000000000089 ) ) ;
#160 = FACE_OUTER_BOUND ( 'NONE', #804, .T. ) ;
#161 = EDGE_CURVE ( 'NONE', #783, #84, #538, .T. ) ;
#162 = ORIENTED_EDGE ( 'NONE', *, *, #368, .F. ) ;
#163 = ORIENTED_EDGE ( 'NONE', *, *, #991, .F. ) ;
#164 = CARTESIAN_POINT ( 'NONE',  ( 1.924500897298752511, -0.6666666666666660745, -66.00000000000000000 ) ) ;
#165 = ADVANCED_FACE ( 'NONE', ( #491 ), #819, .T. ) ;
#166 = VECTOR ( 'NONE', #623, 1000.000000000000000 ) ;
#167 = DIRECTION ( 'NONE',  ( -0.7071067811865383579, 0.000000000000000000, -0.7071067811865567876 ) ) ;
#168 = EDGE_CURVE ( 'NONE', #874, #1051, #209, .T. ) ;
#169 = EDGE_CURVE ( 'NONE', #959, #422, #573, .T. ) ;
#170 = DIRECTION ( 'NONE',  ( -1.000000000000000000, 0.000000000000000000, 0.000000000000000000 ) ) ;
#171 = ORIENTED_EDGE ( 'NONE', *, *, #568, .T. ) ;
#172 = CARTESIAN_POINT ( 'NONE',  ( 1.539600717839002098, -1.333333333333332815, -66.00000000000000000 ) ) ;
#173 = CARTESIAN_POINT ( 'NONE',  ( -1.347150628109126780, 1.666666666666666297, -65.95743332185352870 ) ) ;
#174 = ORIENTED_EDGE ( 'NONE', *, *, #401, .T. ) ;
#175 = ORIENTED_EDGE ( 'NONE', *, *, #325, .T. ) ;
#176 = AXIS2_PLACEMENT_3D ( 'NONE', #86, #189, #530 ) ;
#177 = CARTESIAN_POINT ( 'NONE',  ( -0.7750340072517210022, -2.000000000000000444, -65.95015486615990596 ) ) ;
#178 = CONICAL_SURFACE ( 'NONE', #273, 3.000000000000000000, 0.7853981633974026488 ) ;
#179 = AXIS2_PLACEMENT_3D ( 'NONE', #310, #1080, #549 ) ;
#180 = CARTESIAN_POINT ( 'NONE',  ( -2.500000000000000000, 3.061616997868383141E-16, -0.3000000000000085931 ) ) ;
#181 = EDGE_LOOP ( 'NONE', ( #938, #677, #762, #521, #672 ) ) ;
#182 = DIRECTION ( 'NONE',  ( -0.5000000000000001110, 0.8660254037844385966, 0.000000000000000000 ) ) ;
#183 = AXIS2_PLACEMENT_3D ( 'NONE', #146, #308, #570 ) ;
#184 = ADVANCED_FACE ( 'NONE', ( #944 ), #323, .T. ) ;
#185 = CONICAL_SURFACE ( 'NONE', #71, 2.199999999999993516, 0.7853981633974447263 ) ;
#186 = DIRECTION ( 'NONE',  ( 0.000000000000000000, 0.000000000000000000, 1.000000000000000000 ) ) ;
#187 = DIRECTION ( 'NONE',  ( 1.000000000000000000, 0.000000000000000000, 0.000000000000000000 ) ) ;
#188 = CALENDAR_DATE ( 2026, 25, 6 ) ;
#189 = DIRECTION ( 'NONE',  ( -0.000000000000000000, -0.000000000000000000, 1.000000000000000000 ) ) ;
#190 = APPLICATION_CONTEXT ( 'configuration controlled 3d designs of mechanical parts and assemblies' ) ;
#191 = CARTESIAN_POINT ( 'NONE',  ( 2.116950987028627384, 0.3333333333333338699, -65.95743332185352870 ) ) ;
#192 = EDGE_CURVE ( 'NONE', #728, #108, #256, .T. ) ;
#193 = ORIENTED_EDGE ( 'NONE', *, *, #122, .T. ) ;
#194 = CARTESIAN_POINT ( 'NONE',  ( 0.000000000000000000, 0.000000000000000000, -63.00000000000000000 ) ) ;
#195 = CYLINDRICAL_SURFACE ( 'NONE', #670, 3.000000000000000000 ) ;
#196 = VECTOR ( 'NONE', #914, 1000.000000000000114 ) ;
#197 = AXIS2_PLACEMENT_3D ( 'NONE', #132, #913, #834 ) ;
#198 = CARTESIAN_POINT ( 'NONE',  ( 0.7760961912465916823, -1.999999999999999556, -65.95628757407003206 ) ) ;
#199 = ADVANCED_FACE ( 'NONE', ( #1111 ), #278, .T. ) ;
#200 = CARTESIAN_POINT ( 'NONE',  ( 1.154700538379252350, -1.999999999999999556, -65.88738721760999795 ) ) ;
#201 = DIRECTION ( 'NONE',  ( 1.000000000000000000, 0.000000000000000000, 0.000000000000000000 ) ) ;
#202 = AXIS2_PLACEMENT_3D ( 'NONE', #495, #589, #690 ) ;
#203 = AXIS2_PLACEMENT_3D ( 'NONE', #992, #752, #743 ) ;
#204 = EDGE_LOOP ( 'NONE', ( #840, #597, #1138, #905, #557 ) ) ;
#205 = CARTESIAN_POINT ( 'NONE',  ( 2.309401076758502924, 4.336808689942017736E-16, -66.00000000000000000 ) ) ;
#206 = ORIENTED_EDGE ( 'NONE', *, *, #423, .F. ) ;
#207 = PLANE ( 'NONE',  #1079 ) ;
#208 = CARTESIAN_POINT ( 'NONE',  ( -2.309401076758503368, 1.517883041479706208E-15, -65.88738721760999795 ) ) ;
#209 = B_SPLINE_CURVE_WITH_KNOTS ( 'NONE', 3,
 ( #844, #1082, #554, #911 ),
 .UNSPECIFIED., .F., .F.,
 ( 4, 4 ),
 ( 0.001154931478486927480, 0.002309632016866178857 ),
 .UNSPECIFIED. ) ;
#210 = ADVANCED_FACE ( 'NONE', ( #772 ), #713, .F. ) ;
#211 = CARTESIAN_POINT ( 'NONE',  ( 0.000000000000000000, 0.000000000000000000, -66.00000000000000000 ) ) ;
#212 = LINE ( 'NONE', #381, #714 ) ;
#213 = CONICAL_SURFACE ( 'NONE', #412, 2.309401076758503368, 1.221730476396017950 ) ;
#214 = CARTESIAN_POINT ( 'NONE',  ( -2.485500000000000043, 0.000000000000000000, -7.200000000000000178 ) ) ;
#215 = VECTOR ( 'NONE', #226, 1000.000000000000000 ) ;
#216 = EDGE_CURVE ( 'NONE', #533, #330, #471, .T. ) ;
#217 = CARTESIAN_POINT ( 'NONE',  ( 0.000000000000000000, 0.000000000000000000, -62.89999999999999858 ) ) ;
#218 = ORIENTED_EDGE ( 'NONE', *, *, #192, .F. ) ;
#219 = CARTESIAN_POINT ( 'NONE',  ( 0.000000000000000000, 0.000000000000000000, -62.89999999999999858 ) ) ;
#220 = FACE_OUTER_BOUND ( 'NONE', #204, .T. ) ;
#221 = CONICAL_SURFACE ( 'NONE', #694, 1.550000000000009592, 0.7853981633974743692 ) ;
#222 = FACE_OUTER_BOUND ( 'NONE', #250, .T. ) ;
#223 = CARTESIAN_POINT ( 'NONE',  ( 1.347150628109126780, 1.666666666666666519, -65.95743332185352870 ) ) ;
#224 = CARTESIAN_POINT ( 'NONE',  ( 0.000000000000000000, 0.000000000000000000, -63.00000000000000000 ) ) ;
#225 = VERTEX_POINT ( 'NONE', #322 ) ;
#226 = DIRECTION ( 'NONE',  ( -0.4631414470763685620, 5.671846907145480851E-17, 0.8862843787408234419 ) ) ;
#227 = FACE_OUTER_BOUND ( 'NONE', #608, .T. ) ;
#228 = DIRECTION ( 'NONE',  ( 0.000000000000000000, 0.000000000000000000, 1.000000000000000000 ) ) ;
#229 = VECTOR ( 'NONE', #111, 1000.000000000000000 ) ;
#230 = ORIENTED_EDGE ( 'NONE', *, *, #640, .F. ) ;
#231 = ORIENTED_EDGE ( 'NONE', *, *, #216, .F. ) ;
#232 = AXIS2_PLACEMENT_3D ( 'NONE', #566, #985, #306 ) ;
#233 = COORDINATED_UNIVERSAL_TIME_OFFSET ( 0, 0, .AHEAD. ) ;
#234 = LINE ( 'NONE', #577, #229 ) ;
#235 = APPROVAL_PERSON_ORGANIZATION ( #353, #45, #448 ) ;
#236 = DIRECTION ( 'NONE',  ( 1.000000000000000000, 0.000000000000000000, 0.000000000000000000 ) ) ;
#237 = VECTOR ( 'NONE', #923, 1000.000000000000000 ) ;
#238 = ORIENTED_EDGE ( 'NONE', *, *, #168, .F. ) ;
#239 = AXIS2_PLACEMENT_3D ( 'NONE', #279, #186, #788 ) ;
#240 = EDGE_CURVE ( 'NONE', #585, #46, #328, .T. ) ;
#241 = LINE ( 'NONE', #1019, #378 ) ;
#242 = CARTESIAN_POINT ( 'NONE',  ( 1.347150628109127002, -1.666666666666665853, -65.95743332185352870 ) ) ;
#243 = CARTESIAN_POINT ( 'NONE',  ( -1.539600717839001653, 1.333333333333333481, -66.00000000000000000 ) ) ;
#244 = APPROVAL_ROLE ( '' ) ;
#245 = ADVANCED_FACE ( 'NONE', ( #952 ), #485, .T. ) ;
#246 = DIRECTION ( 'NONE',  ( -1.000000000000000000, 0.000000000000000000, 0.000000000000000000 ) ) ;
#247 = DIRECTION ( 'NONE',  ( 1.000000000000000000, 0.000000000000000000, 0.000000000000000000 ) ) ;
#248 = EDGE_CURVE ( 'NONE', #1112, #1119, #50, .T. ) ;
#249 = ORIENTED_EDGE ( 'NONE', *, *, #795, .F. ) ;
#250 = EDGE_LOOP ( 'NONE', ( #342, #919, #520, #620 ) ) ;
#251 = AXIS2_PLACEMENT_3D ( 'NONE', #716, #807, #6 ) ;
#252 = ADVANCED_FACE ( 'NONE', ( #160 ), #519, .T. ) ;
#253 = CC_DESIGN_PERSON_AND_ORGANIZATION_ASSIGNMENT ( #887, #706, ( #29 ) ) ;
#254 = ORIENTED_EDGE ( 'NONE', *, *, #1005, .T. ) ;
#255 = DIRECTION ( 'NONE',  ( -0.000000000000000000, -0.000000000000000000, -1.000000000000000000 ) ) ;
#256 = LINE ( 'NONE', #594, #965 ) ;
#257 = ORIENTED_EDGE ( 'NONE', *, *, #974, .T. ) ;
#258 = EDGE_LOOP ( 'NONE', ( #174, #133, #1060, #162 ) ) ;
#259 = DIRECTION ( 'NONE',  ( 0.000000000000000000, 0.000000000000000000, -1.000000000000000000 ) ) ;
#260 = AXIS2_PLACEMENT_3D ( 'NONE', #484, #42, #1081 ) ;
#261 = CYLINDRICAL_SURFACE ( 'NONE', #157, 1.650000000000000133 ) ;
#262 = DIRECTION ( 'NONE',  ( 0.000000000000000000, 0.000000000000000000, -1.000000000000000000 ) ) ;
#263 = ORIENTED_EDGE ( 'NONE', *, *, #811, .T. ) ;
#264 = APPROVAL_DATE_TIME ( #806, #45 ) ;
#265 = CARTESIAN_POINT ( 'NONE',  ( 2.309401076758503368, 6.505213034913026604E-16, -65.88738721760999795 ) ) ;
#266 = DIRECTION ( 'NONE',  ( -0.000000000000000000, -0.000000000000000000, 1.000000000000000000 ) ) ;
#267 = B_SPLINE_CURVE_WITH_KNOTS ( 'NONE', 3,
 ( #1123, #173, #243, #1026 ),
 .UNSPECIFIED., .F., .F.,
 ( 4, 4 ),
 ( 2.309401076774635882E-07, 0.001154931478486927480 ),
 .UNSPECIFIED. ) ;
#268 = B_SPLINE_CURVE_WITH_KNOTS ( 'NONE', 3,
 ( #733, #1003, #223, #569 ),
 .UNSPECIFIED., .F., .F.,
 ( 4, 4 ),
 ( 0.001154931478486928131, 0.002309632016866178857 ),
 .UNSPECIFIED. ) ;
#269 = ORIENTED_EDGE ( 'NONE', *, *, #856, .T. ) ;
#270 = EDGE_CURVE ( 'NONE', #1010, #874, #267, .T. ) ;
#271 = AXIS2_PLACEMENT_3D ( 'NONE', #1031, #934, #927 ) ;
#272 = DIRECTION ( 'NONE',  ( 0.5000000000000003331, 0.8660254037844383745, 0.000000000000000000 ) ) ;
#273 = AXIS2_PLACEMENT_3D ( 'NONE', #217, #829, #920 ) ;
#274 = DIRECTION ( 'NONE',  ( 0.000000000000000000, 0.000000000000000000, -1.000000000000000000 ) ) ;
#275 = CARTESIAN_POINT ( 'NONE',  ( 0.000000000000000000, 0.000000000000000000, -0.3000000000000085931 ) ) ;
#276 = EDGE_CURVE ( 'NONE', #1113, #973, #1077, .T. ) ;
#277 = DIRECTION ( 'NONE',  ( 1.000000000000000000, 0.000000000000000000, 0.000000000000000000 ) ) ;
#278 = CONICAL_SURFACE ( 'NONE', #1059, 2.500000000000000000, 0.4815364429796590851 ) ;
#279 = CARTESIAN_POINT ( 'NONE',  ( 0.000000000000000000, 0.000000000000000000, 1.600000000000000089 ) ) ;
#280 = ORIENTED_EDGE ( 'NONE', *, *, #368, .T. ) ;
#281 = ORIENTED_EDGE ( 'NONE', *, *, #635, .F. ) ;
#282 = ORIENTED_EDGE ( 'NONE', *, *, #895, .T. ) ;
#283 = CALENDAR_DATE ( 2026, 25, 6 ) ;
#284 = CARTESIAN_POINT ( 'NONE',  ( 1.154700538379251462, -1.999999999999999556, -66.00000000000000000 ) ) ;
#285 = DIRECTION ( 'NONE',  ( 0.000000000000000000, -1.000000000000000000, 0.000000000000000000 ) ) ;
#286 = ORIENTED_EDGE ( 'NONE', *, *, #991, .T. ) ;
#287 = EDGE_CURVE ( 'NONE', #330, #533, #383, .T. ) ;
#288 = PLANE ( 'NONE',  #394 ) ;
#289 = FACE_OUTER_BOUND ( 'NONE', #477, .T. ) ;
#290 = AXIS2_PLACEMENT_3D ( 'NONE', #787, #612, #800 ) ;
#291 = ORIENTED_EDGE ( 'NONE', *, *, #601, .T. ) ;
#292 = EDGE_LOOP ( 'NONE', ( #543, #436, #90, #683, #937, #1006, #701 ) ) ;
#293 = DIRECTION ( 'NONE',  ( -0.4999999999999998890, -0.8660254037844387076, 0.000000000000000000 ) ) ;
#294 = CARTESIAN_POINT ( 'NONE',  ( -1.650000000000000133, 0.000000000000000000, 1.600000000000000089 ) ) ;
#295 = AXIS2_PLACEMENT_3D ( 'NONE', #606, #955, #201 ) ;
#296 = VERTEX_POINT ( 'NONE', #73 ) ;
#297 = CYLINDRICAL_SURFACE ( 'NONE', #232, 1.650000000000000133 ) ;
#298 = MANIFOLD_SOLID_BREP ( 'Cut-Revolve2', #879 ) ;
#299 = DIRECTION ( 'NONE',  ( 0.000000000000000000, -0.000000000000000000, -1.000000000000000000 ) ) ;
#300 = DIRECTION ( 'NONE',  ( 0.000000000000000000, 0.000000000000000000, -1.000000000000000000 ) ) ;
#301 = LINE ( 'NONE', #641, #215 ) ;
#302 = EDGE_CURVE ( 'NONE', #801, #533, #426, .T. ) ;
#303 = PLANE ( 'NONE',  #980 ) ;
#304 = AXIS2_PLACEMENT_3D ( 'NONE', #821, #1086, #1099 ) ;
#305 = DIRECTION ( 'NONE',  ( -0.000000000000000000, -1.000000000000000000, -0.000000000000000000 ) ) ;
#306 = DIRECTION ( 'NONE',  ( -1.000000000000000000, 0.000000000000000000, 0.000000000000000000 ) ) ;
#307 = FACE_OUTER_BOUND ( 'NONE', #741, .T. ) ;
#308 = DIRECTION ( 'NONE',  ( 0.000000000000000000, 0.000000000000000000, 1.000000000000000000 ) ) ;
#309 = VECTOR ( 'NONE', #1070, 1000.000000000000000 ) ;
#310 = CARTESIAN_POINT ( 'NONE',  ( 0.000000000000000000, 0.000000000000000000, -7.200000000000000178 ) ) ;
#311 = CARTESIAN_POINT ( 'NONE',  ( 0.000000000000000000, 2.500000000000000444, -8.000000000000000000 ) ) ;
#312 = FACE_OUTER_BOUND ( 'NONE', #387, .T. ) ;
#313 = PERSON_AND_ORGANIZATION_ROLE ( 'design_owner' ) ;
#314 = DIRECTION ( 'NONE',  ( 0.000000000000000000, 0.000000000000000000, 1.000000000000000000 ) ) ;
#315 = CARTESIAN_POINT ( 'NONE',  ( -2.309401076758503368, 7.037028111042856199E-16, -66.00000000000000000 ) ) ;
#316 = ORIENTED_EDGE ( 'NONE', *, *, #583, .T. ) ;
#317 = AXIS2_PLACEMENT_3D ( 'NONE', #1128, #259, #326 ) ;
#318 = VERTEX_POINT ( 'NONE', #669 ) ;
#319 = ORIENTED_EDGE ( 'NONE', *, *, #852, .T. ) ;
#320 = PERSON_AND_ORGANIZATION ( #760, #726 ) ;
#321 = CARTESIAN_POINT ( 'NONE',  ( 0.000000000000000000, 0.000000000000000000, -7.200000000000000178 ) ) ;
#322 = CARTESIAN_POINT ( 'NONE',  ( -2.500000000000000000, 3.061616997868383141E-16, -6.789524970308782770 ) ) ;
#323 = CONICAL_SURFACE ( 'NONE', #503, 2.309401076758503368, 1.221730476396017950 ) ;
#324 = ORIENTED_EDGE ( 'NONE', *, *, #1131, .T. ) ;
#325 = EDGE_CURVE ( 'NONE', #1028, #1046, #579, .T. ) ;
#326 = DIRECTION ( 'NONE',  ( -1.000000000000000000, 0.000000000000000000, 0.000000000000000000 ) ) ;
#327 = DIRECTION ( 'NONE',  ( -1.224646799147353207E-16, 1.000000000000000000, 0.000000000000000000 ) ) ;
#328 = LINE ( 'NONE', #435, #137 ) ;
#329 = VERTEX_POINT ( 'NONE', #782 ) ;
#330 = VERTEX_POINT ( 'NONE', #180 ) ;
#331 = EDGE_CURVE ( 'NONE', #318, #1027, #1097, .T. ) ;
#332 = EDGE_LOOP ( 'NONE', ( #369, #580, #868, #231 ) ) ;
#333 =( NAMED_UNIT ( * ) PLANE_ANGLE_UNIT ( ) SI_UNIT ( $, .RADIAN. ) );
#334 = CARTESIAN_POINT ( 'NONE',  ( 7.399698382841712873E-19, 0.000000000000000000, -65.88738721760999795 ) ) ;
#335 = EDGE_LOOP ( 'NONE', ( #999, #945, #867 ) ) ;
#336 = ORIENTED_EDGE ( 'NONE', *, *, #347, .T. ) ;
#337 = VECTOR ( 'NONE', #440, 1000.000000000000000 ) ;
#338 = CARTESIAN_POINT ( 'NONE',  ( 2.000000000000000888, 0.000000000000000000, -66.00000000000000000 ) ) ;
#339 = AXIS2_PLACEMENT_3D ( 'NONE', #205, #404, #293 ) ;
#340 = DIRECTION ( 'NONE',  ( 1.000000000000000000, 0.000000000000000000, 0.000000000000000000 ) ) ;
#341 = CARTESIAN_POINT ( 'NONE',  ( 7.399698382841712873E-19, 0.000000000000000000, -65.88738721760999795 ) ) ;
#342 = ORIENTED_EDGE ( 'NONE', *, *, #707, .F. ) ;
#343 = EDGE_LOOP ( 'NONE', ( #1040, #886, #130, #134 ) ) ;
#344 = AXIS2_PLACEMENT_3D ( 'NONE', #918, #49, #1100 ) ;
#345 = COORDINATED_UNIVERSAL_TIME_OFFSET ( 0, 0, .AHEAD. ) ;
#346 = VECTOR ( 'NONE', #55, 1000.000000000000114 ) ;
#347 = EDGE_CURVE ( 'NONE', #329, #422, #88, .T. ) ;
#348 = DIRECTION ( 'NONE',  ( 0.000000000000000000, 0.000000000000000000, 1.000000000000000000 ) ) ;
#349 = DIRECTION ( 'NONE',  ( -0.000000000000000000, -0.000000000000000000, 1.000000000000000000 ) ) ;
#350 = ORIENTED_EDGE ( 'NONE', *, *, #583, .F. ) ;
#351 = ORIENTED_EDGE ( 'NONE', *, *, #370, .T. ) ;
#352 = EDGE_CURVE ( 'NONE', #692, #1062, #366, .T. ) ;
#353 = PERSON_AND_ORGANIZATION ( #760, #726 ) ;
#354 = DIRECTION ( 'NONE',  ( -1.000000000000000000, 0.000000000000000000, 0.000000000000000000 ) ) ;
#355 = ORIENTED_EDGE ( 'NONE', *, *, #550, .T. ) ;
#356 = EDGE_CURVE ( 'NONE', #686, #1119, #555, .T. ) ;
#357 = PERSON_AND_ORGANIZATION_ROLE ( 'creator' ) ;
#358 = AXIS2_PLACEMENT_3D ( 'NONE', #80, #1116, #1020 ) ;
#359 = LINE ( 'NONE', #1057, #25 ) ;
#360 = AXIS2_PLACEMENT_3D ( 'NONE', #995, #736, #1002 ) ;
#361 = LINE ( 'NONE', #462, #34 ) ;
#362 = ORIENTED_EDGE ( 'NONE', *, *, #546, .T. ) ;
#363 = COORDINATED_UNIVERSAL_TIME_OFFSET ( 0, 0, .AHEAD. ) ;
#364 = EDGE_CURVE ( 'NONE', #565, #728, #7, .T. ) ;
#365 = PLANE ( 'NONE',  #377 ) ;
#366 = CIRCLE ( 'NONE', #295, 1.650000000000000133 ) ;
#367 = DIRECTION ( 'NONE',  ( 0.000000000000000000, 0.000000000000000000, -1.000000000000000000 ) ) ;
#368 = EDGE_CURVE ( 'NONE', #1062, #783, #547, .T. ) ;
#369 = ORIENTED_EDGE ( 'NONE', *, *, #525, .F. ) ;
#370 = EDGE_CURVE ( 'NONE', #1046, #1028, #402, .T. ) ;
#371 = CC_DESIGN_PERSON_AND_ORGANIZATION_ASSIGNMENT ( #529, #696, ( #661 ) ) ;
#372 = DIRECTION ( 'NONE',  ( 0.000000000000000000, -0.000000000000000000, 1.000000000000000000 ) ) ;
#373 = CARTESIAN_POINT ( 'NONE',  ( 0.000000000000000000, 0.000000000000000000, 1.500000000000014877 ) ) ;
#374 = DIRECTION ( 'NONE',  ( 6.570922257487905217E-18, 0.000000000000000000, 1.000000000000000000 ) ) ;
#375 = CARTESIAN_POINT ( 'NONE',  ( -0.9655343075285454102, -1.999999999999999556, -65.92181265628899212 ) ) ;
#376 = DIRECTION ( 'NONE',  ( -1.000000000000000000, 2.664535259100375697E-15, 0.000000000000000000 ) ) ;
#377 = AXIS2_PLACEMENT_3D ( 'NONE', #284, #450, #372 ) ;
#378 = VECTOR ( 'NONE', #1121, 1000.000000000000227 ) ;
#379 = ORIENTED_EDGE ( 'NONE', *, *, #457, .T. ) ;
#380 = CARTESIAN_POINT ( 'NONE',  ( 3.000000000000000000, 0.000000000000000000, -62.89999999999999858 ) ) ;
#381 = CARTESIAN_POINT ( 'NONE',  ( 2.309401076758502924, 4.336808689942017736E-16, -63.00000000000000000 ) ) ;
#382 = CIRCLE ( 'NONE', #558, 2.485500000000000043 ) ;
#383 = CIRCLE ( 'NONE', #52, 2.500000000000000000 ) ;
#384 = ORIENTED_EDGE ( 'NONE', *, *, #974, .F. ) ;
#385 = EDGE_CURVE ( 'NONE', #1010, #565, #1075, .T. ) ;
#386 = CARTESIAN_POINT ( 'NONE',  ( -1.539600717839001431, -1.333333333333333037, -66.00000000000000000 ) ) ;
#387 = EDGE_LOOP ( 'NONE', ( #83, #62, #845, #140 ) ) ;
#388 = FACE_OUTER_BOUND ( 'NONE', #489, .T. ) ;
#389 = DIRECTION ( 'NONE',  ( -1.000000000000000000, 0.000000000000000000, 0.000000000000000000 ) ) ;
#390 = EDGE_CURVE ( 'NONE', #846, #801, #986, .T. ) ;
#391 = PLANE ( 'NONE',  #339 ) ;
#392 = DIRECTION ( 'NONE',  ( 0.000000000000000000, -1.000000000000000000, 0.000000000000000000 ) ) ;
#393 = EDGE_CURVE ( 'NONE', #953, #296, #884, .T. ) ;
#394 = AXIS2_PLACEMENT_3D ( 'NONE', #524, #883, #182 ) ;
#395 = CARTESIAN_POINT ( 'NONE',  ( 0.000000000000000000, 0.000000000000000000, -63.00000000000000000 ) ) ;
#396 = CIRCLE ( 'NONE', #360, 0.2000000000000000944 ) ;
#397 = VERTEX_POINT ( 'NONE', #107 ) ;
#398 = CARTESIAN_POINT ( 'NONE',  ( 2.285499999999999865, 0.000000000000000000, -7.200000000000000178 ) ) ;
#399 = DIRECTION ( 'NONE',  ( -0.000000000000000000, -0.000000000000000000, 1.000000000000000000 ) ) ;
#400 = FACE_OUTER_BOUND ( 'NONE', #20, .T. ) ;
#401 = EDGE_CURVE ( 'NONE', #1062, #692, #948, .T. ) ;
#402 = CIRCLE ( 'NONE', #861, 2.199999999999993516 ) ;
#403 = ORIENTED_EDGE ( 'NONE', *, *, #169, .T. ) ;
#404 = DIRECTION ( 'NONE',  ( -0.8660254037844387076, 0.4999999999999998890, 0.000000000000000000 ) ) ;
#405 = CARTESIAN_POINT ( 'NONE',  ( 2.285499999999999865, 0.000000000000000000, 0.000000000000000000 ) ) ;
#406 = DIRECTION ( 'NONE',  ( 0.000000000000000000, 0.000000000000000000, 1.000000000000000000 ) ) ;
#407 = ORIENTED_EDGE ( 'NONE', *, *, #479, .T. ) ;
#408 = CARTESIAN_POINT ( 'NONE',  ( -8.635403862789991678E-35, 0.000000000000000000, -66.00000000000000000 ) ) ;
#409 = CARTESIAN_POINT ( 'NONE',  ( 0.000000000000000000, 0.000000000000000000, 1.600000000000000089 ) ) ;
#410 = FACE_OUTER_BOUND ( 'NONE', #607, .T. ) ;
#411 = EDGE_CURVE ( 'NONE', #679, #1034, #599, .T. ) ;
#412 = AXIS2_PLACEMENT_3D ( 'NONE', #334, #593, #947 ) ;
#413 = EDGE_LOOP ( 'NONE', ( #513, #664, #697, #1124 ) ) ;
#414 = ORIENTED_EDGE ( 'NONE', *, *, #347, .F. ) ;
#415 = DIRECTION ( 'NONE',  ( 1.000000000000000000, 0.000000000000000000, 0.000000000000000000 ) ) ;
#416 = CARTESIAN_POINT ( 'NONE',  ( 0.000000000000000000, 0.000000000000000000, -8.000000000000000000 ) ) ;
#417 = EDGE_CURVE ( 'NONE', #754, #728, #361, .T. ) ;
#418 = CARTESIAN_POINT ( 'NONE',  ( -3.000000000000000000, 3.673940397442059868E-16, -62.89999999999999858 ) ) ;
#419 = AXIS2_PLACEMENT_3D ( 'NONE', #744, #56, #1091 ) ;
#420 = ORIENTED_EDGE ( 'NONE', *, *, #38, .T. ) ;
#421 = CIRCLE ( 'NONE', #1094, 0.1999999999999996503 ) ;
#422 = VERTEX_POINT ( 'NONE', #101 ) ;
#423 = EDGE_CURVE ( 'NONE', #11, #1062, #813, .T. ) ;
#424 = CARTESIAN_POINT ( 'NONE',  ( 0.000000000000000000, 0.000000000000000000, 0.000000000000000000 ) ) ;
#425 = CARTESIAN_POINT ( 'NONE',  ( -2.485500000000000043, 3.043859619280746004E-16, -8.000000000000000000 ) ) ;
#426 = LINE ( 'NONE', #1136, #505 ) ;
#427 = EDGE_LOOP ( 'NONE', ( #654, #230, #126, #350 ) ) ;
#428 = DIRECTION ( 'NONE',  ( -1.000000000000000000, 0.000000000000000000, 0.000000000000000000 ) ) ;
#429 = DIRECTION ( 'NONE',  ( 1.000000000000000000, 0.000000000000000000, -0.000000000000000000 ) ) ;
#430 = DIRECTION ( 'NONE',  ( 0.000000000000000000, 0.000000000000000000, 1.000000000000000000 ) ) ;
#431 = ORIENTED_EDGE ( 'NONE', *, *, #1055, .F. ) ;
#432 = CARTESIAN_POINT ( 'NONE',  ( 1.550000000000009592, 1.959434878635771147E-16, 1.600000000000000089 ) ) ;
#433 = VECTOR ( 'NONE', #1115, 1000.000000000000000 ) ;
#434 = DIRECTION ( 'NONE',  ( 1.000000000000000000, 0.000000000000000000, 0.000000000000000000 ) ) ;
#435 = CARTESIAN_POINT ( 'NONE',  ( -1.154700538379251018, -1.999999999999999556, -66.00000000000000000 ) ) ;
#436 = ORIENTED_EDGE ( 'NONE', *, *, #1114, .F. ) ;
#437 = AXIS2_PLACEMENT_3D ( 'NONE', #511, #862, #851 ) ;
#438 = PERSON_AND_ORGANIZATION ( #760, #726 ) ;
#439 = AXIS2_PLACEMENT_3D ( 'NONE', #1022, #507, #1130 ) ;
#440 = DIRECTION ( 'NONE',  ( 0.7071067811865660024, 8.659560562355160888E-17, -0.7071067811865291430 ) ) ;
#441 = DIRECTION ( 'NONE',  ( 1.000000000000000000, 0.000000000000000000, 0.000000000000000000 ) ) ;
#442 = EDGE_CURVE ( 'NONE', #973, #1112, #1001, .T. ) ;
#443 = EDGE_LOOP ( 'NONE', ( #931, #853, #1127, #595 ) ) ;
#444 = DIRECTION ( 'NONE',  ( -0.000000000000000000, -0.000000000000000000, 1.000000000000000000 ) ) ;
#445 = DIRECTION ( 'NONE',  ( 0.000000000000000000, 0.000000000000000000, 1.000000000000000000 ) ) ;
#446 = ADVANCED_FACE ( 'NONE', ( #289, #978 ), #207, .T. ) ;
#447 = ORIENTED_EDGE ( 'NONE', *, *, #67, .F. ) ;
#448 = APPROVAL_ROLE ( '' ) ;
#449 = ADVANCED_FACE ( 'NONE', ( #710 ), #195, .T. ) ;
#450 = DIRECTION ( 'NONE',  ( 0.000000000000000000, 1.000000000000000000, 0.000000000000000000 ) ) ;
#451 = AXIS2_PLACEMENT_3D ( 'NONE', #211, #1007, #27 ) ;
#452 = DIRECTION ( 'NONE',  ( -0.000000000000000000, -0.000000000000000000, 1.000000000000000000 ) ) ;
#453 = EDGE_CURVE ( 'NONE', #46, #10, #1058, .T. ) ;
#454 = CC_DESIGN_PERSON_AND_ORGANIZATION_ASSIGNMENT ( #438, #1041, ( #661 ) ) ;
#455 = EDGE_LOOP ( 'NONE', ( #987, #74, #280, #567 ) ) ;
#456 = ORIENTED_EDGE ( 'NONE', *, *, #393, .F. ) ;
#457 = EDGE_CURVE ( 'NONE', #11, #1085, #488, .T. ) ;
#458 = CARTESIAN_POINT ( 'NONE',  ( 0.000000000000000000, 0.000000000000000000, 0.000000000000000000 ) ) ;
#459 = CARTESIAN_POINT ( 'NONE',  ( 2.500000000000000000, 0.000000000000000000, -6.789524970308784546 ) ) ;
#460 = CARTESIAN_POINT ( 'NONE',  ( 7.399698382841712873E-19, 0.000000000000000000, -65.88738721760999795 ) ) ;
#461 = CARTESIAN_POINT ( 'NONE',  ( 2.371300000000000630, 2.904004954818119884E-16, -7.035809988123514103 ) ) ;
#462 = CARTESIAN_POINT ( 'NONE',  ( 1.154700538379251684, 1.999999999999999556, -66.00000000000000000 ) ) ;
#463 = EDGE_LOOP ( 'NONE', ( #336, #509, #990, #138 ) ) ;
#464 = DIRECTION ( 'NONE',  ( -1.000000000000000000, 0.000000000000000000, 0.000000000000000000 ) ) ;
#465 = VECTOR ( 'NONE', #478, 1000.000000000000000 ) ;
#466 = DIRECTION ( 'NONE',  ( -0.000000000000000000, -0.000000000000000000, 1.000000000000000000 ) ) ;
#467 = ADVANCED_FACE ( 'NONE', ( #971 ), #185, .T. ) ;
#468 = FACE_OUTER_BOUND ( 'NONE', #1106, .T. ) ;
#469 = CARTESIAN_POINT ( 'NONE',  ( -2.199999999999993516, 0.000000000000000000, 0.000000000000000000 ) ) ;
#470 = PLANE ( 'NONE',  #828 ) ;
#471 = CIRCLE ( 'NONE', #1037, 2.500000000000000000 ) ;
#472 = ADVANCED_FACE ( 'NONE', ( #802 ), #221, .T. ) ;
#473 = DIRECTION ( 'NONE',  ( 0.000000000000000000, 0.000000000000000000, 1.000000000000000000 ) ) ;
#474 = DIRECTION ( 'NONE',  ( 1.000000000000000000, 0.000000000000000000, 0.000000000000000000 ) ) ;
#475 = CARTESIAN_POINT ( 'NONE',  ( -2.899999999999986144, 0.000000000000000000, -8.000000000000000000 ) ) ;
#476 = DIRECTION ( 'NONE',  ( 6.570922257487905217E-18, 0.000000000000000000, 1.000000000000000000 ) ) ;
#477 = EDGE_LOOP ( 'NONE', ( #351, #175 ) ) ;
#478 = DIRECTION ( 'NONE',  ( 0.7071067811865153763, 0.000000000000000000, 0.7071067811865797692 ) ) ;
#479 = EDGE_CURVE ( 'NONE', #329, #1027, #552, .T. ) ;
#480 = CARTESIAN_POINT ( 'NONE',  ( -2.199999999999993516, 0.000000000000000000, 0.000000000000000000 ) ) ;
#481 = UNCERTAINTY_MEASURE_WITH_UNIT (LENGTH_MEASURE( 1.000000000000000082E-05 ), #763, 'distance_accuracy_value', 'NONE');
#482 = ORIENTED_EDGE ( 'NONE', *, *, #941, .F. ) ;
#483 = CARTESIAN_POINT ( 'NONE',  ( 2.199999999999993516, 2.877919977996276376E-16, 0.000000000000000000 ) ) ;
#484 = CARTESIAN_POINT ( 'NONE',  ( 0.000000000000000000, 0.000000000000000000, -6.789524970308782770 ) ) ;
#485 = CONICAL_SURFACE ( 'NONE', #437, 1.550000000000009592, 0.7853981633974743692 ) ;
#486 = DIRECTION ( 'NONE',  ( 1.000000000000000000, 0.000000000000000000, 0.000000000000000000 ) ) ;
#487 = PRODUCT ( 'NAUT_01695-C', 'NAUT_01695-C', '', ( #500 ) ) ;
#488 = CIRCLE ( 'NONE', #239, 1.550000000000009592 ) ;
#489 = EDGE_LOOP ( 'NONE', ( #282, #1101 ) ) ;
#490 = CARTESIAN_POINT ( 'NONE',  ( 1.732050807568877859, -1.000000000000000000, -66.00000000000000000 ) ) ;
#491 = FACE_OUTER_BOUND ( 'NONE', #695, .T. ) ;
#492 = DESIGN_CONTEXT ( 'detailed design', #190, 'design' ) ;
#493 = ORIENTED_EDGE ( 'NONE', *, *, #442, .T. ) ;
#494 = CARTESIAN_POINT ( 'NONE',  ( 1.650000000000000133, 2.020667218593133001E-16, 1.500000000000014877 ) ) ;
#495 = CARTESIAN_POINT ( 'NONE',  ( 0.000000000000000000, 0.000000000000000000, -7.200000000000000178 ) ) ;
#496 = EDGE_CURVE ( 'NONE', #801, #225, #103, .T. ) ;
#497 = AXIS2_PLACEMENT_3D ( 'NONE', #219, #466, #1090 ) ;
#498 = ORIENTED_EDGE ( 'NONE', *, *, #561, .T. ) ;
#499 = CC_DESIGN_APPROVAL ( #960, ( #661 ) ) ;
#500 = MECHANICAL_CONTEXT ( 'NONE', #717, 'mechanical' ) ;
#501 = FACE_OUTER_BOUND ( 'NONE', #814, .T. ) ;
#502 = DIRECTION ( 'NONE',  ( 0.000000000000000000, 0.000000000000000000, -1.000000000000000000 ) ) ;
#503 = AXIS2_PLACEMENT_3D ( 'NONE', #341, #1033, #935 ) ;
#504 = ORIENTED_EDGE ( 'NONE', *, *, #393, .T. ) ;
#505 = VECTOR ( 'NONE', #866, 1000.000000000000000 ) ;
#506 = DIRECTION ( 'NONE',  ( -0.000000000000000000, -0.000000000000000000, 1.000000000000000000 ) ) ;
#507 = DIRECTION ( 'NONE',  ( -0.000000000000000000, -0.000000000000000000, 1.000000000000000000 ) ) ;
#508 = ORIENTED_EDGE ( 'NONE', *, *, #768, .T. ) ;
#509 = ORIENTED_EDGE ( 'NONE', *, *, #892, .T. ) ;
#510 = FACE_OUTER_BOUND ( 'NONE', #149, .T. ) ;
#511 = CARTESIAN_POINT ( 'NONE',  ( 0.000000000000000000, 0.000000000000000000, 1.600000000000000089 ) ) ;
#512 = ORIENTED_EDGE ( 'NONE', *, *, #411, .F. ) ;
#513 = ORIENTED_EDGE ( 'NONE', *, *, #325, .F. ) ;
#514 = CC_DESIGN_DATE_AND_TIME_ASSIGNMENT ( #621, #85, ( #29 ) ) ;
#515 = VECTOR ( 'NONE', #981, 1000.000000000000000 ) ;
#516 = VECTOR ( 'NONE', #444, 1000.000000000000000 ) ;
#517 = CC_DESIGN_APPROVAL ( #1043, ( #648 ) ) ;
#518 = CARTESIAN_POINT ( 'NONE',  ( -0.3901935713786444104, -1.999999999999999556, -65.98933000461843790 ) ) ;
#519 = CYLINDRICAL_SURFACE ( 'NONE', #439, 2.285499999999999865 ) ;
#520 = ORIENTED_EDGE ( 'NONE', *, *, #331, .F. ) ;
#521 = ORIENTED_EDGE ( 'NONE', *, *, #240, .T. ) ;
#522 = B_SPLINE_CURVE_WITH_KNOTS ( 'NONE', 3,
 ( #740, #386, #636, #989 ),
 .UNSPECIFIED., .F., .F.,
 ( 4, 4 ),
 ( 0.001154931478486928998, 0.002309632016866180158 ),
 .UNSPECIFIED. ) ;
#523 = VECTOR ( 'NONE', #900, 1000.000000000000000 ) ;
#524 = CARTESIAN_POINT ( 'NONE',  ( -1.154700538379251018, -1.999999999999999556, -66.00000000000000000 ) ) ;
#525 = EDGE_CURVE ( 'NONE', #1028, #533, #909, .T. ) ;
#526 = DIRECTION ( 'NONE',  ( 0.4631414470763685620, 0.000000000000000000, 0.8862843787408234419 ) ) ;
#527 = CARTESIAN_POINT ( 'NONE',  ( 0.000000000000000000, 0.000000000000000000, -8.000000000000000000 ) ) ;
#528 = ORIENTED_EDGE ( 'NONE', *, *, #640, .T. ) ;
#529 = PERSON_AND_ORGANIZATION ( #760, #726 ) ;
#530 = DIRECTION ( 'NONE',  ( 1.000000000000000000, 0.000000000000000000, 0.000000000000000000 ) ) ;
#531 = EDGE_CURVE ( 'NONE', #225, #801, #749, .T. ) ;
#532 = CARTESIAN_POINT ( 'NONE',  ( -1.154700538379251462, 1.999999999999999556, -66.00000000000000000 ) ) ;
#533 = VERTEX_POINT ( 'NONE', #116 ) ;
#534 = CIRCLE ( 'NONE', #625, 2.900000000000006128 ) ;
#535 = CARTESIAN_POINT ( 'NONE',  ( -0.3924355615832509359, 1.999999999999999556, -66.00000000000008527 ) ) ;
#536 = DIRECTION ( 'NONE',  ( 0.000000000000000000, 0.000000000000000000, 1.000000000000000000 ) ) ;
#537 = EDGE_LOOP ( 'NONE', ( #431, #254, #712, #512 ) ) ;
#538 = CIRCLE ( 'NONE', #183, 1.650000000000000133 ) ;
#539 = LINE ( 'NONE', #899, #815 ) ;
#540 = VECTOR ( 'NONE', #399, 1000.000000000000000 ) ;
#541 = ORIENTED_EDGE ( 'NONE', *, *, #453, .F. ) ;
#542 = CARTESIAN_POINT ( 'NONE',  ( 0.000000000000000000, 0.000000000000000000, 0.000000000000000000 ) ) ;
#543 = ORIENTED_EDGE ( 'NONE', *, *, #823, .F. ) ;
#544 = ORIENTED_EDGE ( 'NONE', *, *, #161, .F. ) ;
#545 = FACE_OUTER_BOUND ( 'NONE', #455, .T. ) ;
#546 = EDGE_CURVE ( 'NONE', #108, #700, #212, .T. ) ;
#547 = LINE ( 'NONE', #294, #652 ) ;
#548 = CARTESIAN_POINT ( 'NONE',  ( -1.732050807568877415, -1.000000000000000444, -66.00000000000000000 ) ) ;
#549 = DIRECTION ( 'NONE',  ( -1.000000000000000000, 0.000000000000000000, 0.000000000000000000 ) ) ;
#550 = EDGE_CURVE ( 'NONE', #679, #1053, #643, .T. ) ;
#551 = AXIS2_PLACEMENT_3D ( 'NONE', #1036, #327, #1135 ) ;
#552 = LINE ( 'NONE', #1013, #15 ) ;
#553 = CIRCLE ( 'NONE', #958, 2.000000000000000444 ) ;
#554 = CARTESIAN_POINT ( 'NONE',  ( -2.116950987028627829, 0.3333333333333340920, -65.95743332185352870 ) ) ;
#555 = B_SPLINE_CURVE_WITH_KNOTS ( 'NONE', 3,
 ( #633, #191, #19, #722 ),
 .UNSPECIFIED., .F., .F.,
 ( 4, 4 ),
 ( 2.309401076767766445E-07, 0.001154931478486928131 ),
 .UNSPECIFIED. ) ;
#556 = CARTESIAN_POINT ( 'NONE',  ( -2.309401076758503368, 1.517883041479706208E-15, -65.88738721760999795 ) ) ;
#557 = ORIENTED_EDGE ( 'NONE', *, *, #795, .T. ) ;
#558 = AXIS2_PLACEMENT_3D ( 'NONE', #527, #1071, #187 ) ;
#559 = CARTESIAN_POINT ( 'NONE',  ( 0.3901935713786447435, 1.999999999999999556, -65.98933000461842369 ) ) ;
#560 = VECTOR ( 'NONE', #526, 1000.000000000000000 ) ;
#561 = EDGE_CURVE ( 'NONE', #846, #658, #836, .T. ) ;
#562 = PLANE ( 'NONE',  #765 ) ;
#563 = B_SPLINE_CURVE_WITH_KNOTS ( 'NONE', 3,
 ( #688, #164, #1108, #769 ),
 .UNSPECIFIED., .F., .F.,
 ( 4, 4 ),
 ( 0.001154931478486928564, 0.002309632016866180592 ),
 .UNSPECIFIED. ) ;
#564 = ADVANCED_FACE ( 'NONE', ( #227 ), #470, .F. ) ;
#565 = VERTEX_POINT ( 'NONE', #1103 ) ;
#566 = CARTESIAN_POINT ( 'NONE',  ( 0.000000000000000000, 0.000000000000000000, 1.600000000000000089 ) ) ;
#567 = ORIENTED_EDGE ( 'NONE', *, *, #161, .T. ) ;
#568 = EDGE_CURVE ( 'NONE', #700, #46, #234, .T. ) ;
#569 = CARTESIAN_POINT ( 'NONE',  ( 1.154700538379252350, 2.000000000000000000, -65.88738721760999795 ) ) ;
#570 = DIRECTION ( 'NONE',  ( 1.000000000000000000, 0.000000000000000000, 0.000000000000000000 ) ) ;
#571 = FACE_OUTER_BOUND ( 'NONE', #143, .T. ) ;
#572 = CARTESIAN_POINT ( 'NONE',  ( 2.899999999999986144, 3.612708057484683222E-16, -8.000000000000000000 ) ) ;
#573 = LINE ( 'NONE', #418, #650 ) ;
#574 =( GEOMETRIC_REPRESENTATION_CONTEXT ( 3 ) GLOBAL_UNCERTAINTY_ASSIGNED_CONTEXT ( ( #481 ) ) GLOBAL_UNIT_ASSIGNED_CONTEXT ( ( #763, #333, #142 ) ) REPRESENTATION_CONTEXT ( 'NONE', 'WORKASPACE' ) );
#575 = ORIENTED_EDGE ( 'NONE', *, *, #9, .F. ) ;
#576 = CARTESIAN_POINT ( 'NONE',  ( 1.732050807568877859, 1.000000000000000444, -66.00000000000000000 ) ) ;
#577 = CARTESIAN_POINT ( 'NONE',  ( 1.154700538379251462, -1.999999999999999556, -63.00000000000000000 ) ) ;
#578 = CARTESIAN_POINT ( 'NONE',  ( 1.650000000000000133, 2.020667218593133001E-16, 0.000000000000000000 ) ) ;
#579 = CIRCLE ( 'NONE', #898, 2.199999999999993516 ) ;
#580 = ORIENTED_EDGE ( 'NONE', *, *, #370, .F. ) ;
#581 = FACE_OUTER_BOUND ( 'NONE', #343, .T. ) ;
#582 = DIRECTION ( 'NONE',  ( -1.000000000000000000, 0.000000000000000000, 0.000000000000000000 ) ) ;
#583 = EDGE_CURVE ( 'NONE', #422, #329, #660, .T. ) ;
#584 = DIRECTION ( 'NONE',  ( -0.000000000000000000, -0.000000000000000000, 1.000000000000000000 ) ) ;
#585 = VERTEX_POINT ( 'NONE', #36 ) ;
#586 = DATE_AND_TIME ( #666, #875 ) ;
#587 = CARTESIAN_POINT ( 'NONE',  ( 1.154700538379252350, 2.000000000000000000, -65.88738721760999795 ) ) ;
#588 = ADVANCED_FACE ( 'NONE', ( #388, #737 ), #303, .T. ) ;
#589 = DIRECTION ( 'NONE',  ( 0.000000000000000000, 0.000000000000000000, -1.000000000000000000 ) ) ;
#590 = ORIENTED_EDGE ( 'NONE', *, *, #1092, .F. ) ;
#591 = AXIS2_PLACEMENT_3D ( 'NONE', #746, #908, #474 ) ;
#592 = ADVANCED_FACE ( 'NONE', ( #307 ), #796, .T. ) ;
#593 = DIRECTION ( 'NONE',  ( 6.570922257487905217E-18, 0.000000000000000000, 1.000000000000000000 ) ) ;
#594 = CARTESIAN_POINT ( 'NONE',  ( 1.154700538379251684, 1.999999999999999556, -63.00000000000000000 ) ) ;
#595 = ORIENTED_EDGE ( 'NONE', *, *, #216, .T. ) ;
#596 = CONICAL_SURFACE ( 'NONE', #1061, 2.309401076758503368, 1.221730476396017950 ) ;
#597 = ORIENTED_EDGE ( 'NONE', *, *, #270, .T. ) ;
#598 = ORIENTED_EDGE ( 'NONE', *, *, #933, .T. ) ;
#599 = CIRCLE ( 'NONE', #805, 0.1999999999999996503 ) ;
#600 = DIRECTION ( 'NONE',  ( -0.000000000000000000, -0.000000000000000000, 1.000000000000000000 ) ) ;
#601 = EDGE_CURVE ( 'NONE', #754, #397, #729, .T. ) ;
#602 = LINE ( 'NONE', #65, #63 ) ;
#603 = DIRECTION ( 'NONE',  ( 0.5000000000000001110, -0.8660254037844385966, 0.000000000000000000 ) ) ;
#604 = ORIENTED_EDGE ( 'NONE', *, *, #496, .F. ) ;
#605 = CARTESIAN_POINT ( 'NONE',  ( -3.000000000000000000, 3.673940397442059868E-16, -63.00000000000000000 ) ) ;
#606 = CARTESIAN_POINT ( 'NONE',  ( 0.000000000000000000, 0.000000000000000000, 1.500000000000014877 ) ) ;
#607 = EDGE_LOOP ( 'NONE', ( #925, #316, #407, #319 ) ) ;
#608 = EDGE_LOOP ( 'NONE', ( #904, #291, #269, #979, #68 ) ) ;
#609 = CIRCLE ( 'NONE', #251, 1.650000000000000133 ) ;
#610 = CIRCLE ( 'NONE', #131, 2.000000000000000888 ) ;
#611 = PERSON_AND_ORGANIZATION ( #760, #726 ) ;
#612 = DIRECTION ( 'NONE',  ( -0.000000000000000000, -0.000000000000000000, 1.000000000000000000 ) ) ;
#613 = DIRECTION ( 'NONE',  ( 0.000000000000000000, 0.000000000000000000, -1.000000000000000000 ) ) ;
#614 = DIRECTION ( 'NONE',  ( 1.000000000000000000, 0.000000000000000000, 0.000000000000000000 ) ) ;
#615 = EDGE_CURVE ( 'NONE', #1046, #330, #30, .T. ) ;
#616 = AXIS2_PLACEMENT_3D ( 'NONE', #1087, #300, #998 ) ;
#617 = DIRECTION ( 'NONE',  ( 0.000000000000000000, 0.000000000000000000, 1.000000000000000000 ) ) ;
#618 = CARTESIAN_POINT ( 'NONE',  ( -1.154700538379251018, -1.999999999999999556, -63.00000000000000000 ) ) ;
#619 = EDGE_LOOP ( 'NONE', ( #745, #147, #1120 ) ) ;
#620 = ORIENTED_EDGE ( 'NONE', *, *, #685, .F. ) ;
#621 = DATE_AND_TIME ( #283, #780 ) ;
#622 = CARTESIAN_POINT ( 'NONE',  ( -1.154700538379252350, 1.999999999999999556, -65.88738721760999795 ) ) ;
#623 = DIRECTION ( 'NONE',  ( -0.000000000000000000, -0.000000000000000000, 1.000000000000000000 ) ) ;
#624 = CARTESIAN_POINT ( 'NONE',  ( -3.462698137830987430E-17, -2.000000000000000444, -66.00000000000000000 ) ) ;
#625 = AXIS2_PLACEMENT_3D ( 'NONE', #917, #128, #135 ) ;
#626 = FACE_OUTER_BOUND ( 'NONE', #838, .T. ) ;
#627 = TOROIDAL_SURFACE ( 'NONE', #850, 2.485500000000000043, 0.2000000000000000111 ) ;
#628 = DIRECTION ( 'NONE',  ( 1.000000000000000000, 0.000000000000000000, -0.000000000000000000 ) ) ;
#629 = ORIENTED_EDGE ( 'NONE', *, *, #601, .F. ) ;
#630 = CIRCLE ( 'NONE', #912, 2.000000000000000888 ) ;
#631 = FACE_OUTER_BOUND ( 'NONE', #427, .T. ) ;
#632 = VECTOR ( 'NONE', #1049, 1000.000000000000000 ) ;
#633 = CARTESIAN_POINT ( 'NONE',  ( 2.309401076758503368, 6.505213034913026604E-16, -65.88738721760999795 ) ) ;
#634 = VERTEX_POINT ( 'NONE', #572 ) ;
#635 = EDGE_CURVE ( 'NONE', #1119, #754, #268, .T. ) ;
#636 = CARTESIAN_POINT ( 'NONE',  ( -1.347150628109126114, -1.666666666666666297, -65.95743332185352870 ) ) ;
#637 = VERTEX_POINT ( 'NONE', #475 ) ;
#638 = CARTESIAN_POINT ( 'NONE',  ( 0.9655343075285466314, 2.000000000000000000, -65.92181265628897791 ) ) ;
#639 = CARTESIAN_POINT ( 'NONE',  ( 7.399698382841712873E-19, 0.000000000000000000, -65.88738721760999795 ) ) ;
#640 = EDGE_CURVE ( 'NONE', #966, #959, #534, .T. ) ;
#641 = CARTESIAN_POINT ( 'NONE',  ( -2.500000000000000000, 3.061616997868383141E-16, -6.789524970308784546 ) ) ;
#642 = TOROIDAL_SURFACE ( 'NONE', #97, 2.485500000000000043, 0.2000000000000000111 ) ;
#643 = LINE ( 'NONE', #405, #540 ) ;
#644 = B_SPLINE_CURVE_WITH_KNOTS ( 'NONE', 3,
 ( #21, #375, #177, #518, #110, #649 ),
 .UNSPECIFIED., .F., .F.,
 ( 4, 2, 4 ),
 ( 0.002390678481873569940, 0.002967126958237329380, 0.003543575434601088821 ),
 .UNSPECIFIED. ) ;
#645 = DIRECTION ( 'NONE',  ( 0.000000000000000000, 0.000000000000000000, -1.000000000000000000 ) ) ;
#646 = EDGE_CURVE ( 'NONE', #296, #1053, #778, .T. ) ;
#647 = ADVANCED_FACE ( 'NONE', ( #501, #1024 ), #870, .F. ) ;
#648 = PRODUCT_DEFINITION ( 'UNKNOWN', '', #661, #492 ) ;
#649 = CARTESIAN_POINT ( 'NONE',  ( -3.462698137830987430E-17, -2.000000000000000444, -66.00000000000000000 ) ) ;
#650 = VECTOR ( 'NONE', #766, 1000.000000000000000 ) ;
#651 = DIRECTION ( 'NONE',  ( 0.000000000000000000, -0.000000000000000000, 1.000000000000000000 ) ) ;
#652 = VECTOR ( 'NONE', #903, 1000.000000000000000 ) ;
#653 = CYLINDRICAL_SURFACE ( 'NONE', #691, 2.500000000000000000 ) ;
#654 = ORIENTED_EDGE ( 'NONE', *, *, #169, .F. ) ;
#655 = CARTESIAN_POINT ( 'NONE',  ( -2.285499999999999865, 2.798930259451275412E-16, -7.800000000000000711 ) ) ;
#656 = DIRECTION ( 'NONE',  ( 1.000000000000000000, 0.000000000000000000, 0.000000000000000000 ) ) ;
#657 = CYLINDRICAL_SURFACE ( 'NONE', #33, 2.500000000000000000 ) ;
#658 = VERTEX_POINT ( 'NONE', #698 ) ;
#659 = CARTESIAN_POINT ( 'NONE',  ( 0.000000000000000000, 0.000000000000000000, -7.035809988123514103 ) ) ;
#660 = CIRCLE ( 'NONE', #304, 3.000000000000000000 ) ;
#661 = PRODUCT_DEFINITION_FORMATION_WITH_SPECIFIED_SOURCE ( 'ANY', '', #487, .NOT_KNOWN. ) ;
#662 = DIRECTION ( 'NONE',  ( 1.000000000000000000, 0.000000000000000000, 0.000000000000000000 ) ) ;
#663 = LOCAL_TIME ( 10, 40, 5.000000000000000000, #363 ) ;
#664 = ORIENTED_EDGE ( 'NONE', *, *, #525, .T. ) ;
#665 = EDGE_CURVE ( 'NONE', #1053, #846, #705, .T. ) ;
#666 = CALENDAR_DATE ( 2026, 25, 6 ) ;
#667 = FACE_OUTER_BOUND ( 'NONE', #258, .T. ) ;
#668 = AXIS2_PLACEMENT_3D ( 'NONE', #929, #37, #753 ) ;
#669 = CARTESIAN_POINT ( 'NONE',  ( -3.000000000000000000, 3.673940397442059868E-16, -8.100000000000017408 ) ) ;
#670 = AXIS2_PLACEMENT_3D ( 'NONE', #894, #536, #441 ) ;
#671 = EDGE_LOOP ( 'NONE', ( #789, #263, #32, #206 ) ) ;
#672 = ORIENTED_EDGE ( 'NONE', *, *, #453, .T. ) ;
#673 = EDGE_CURVE ( 'NONE', #658, #846, #1107, .T. ) ;
#674 = PLANE ( 'NONE',  #358 ) ;
#675 = CARTESIAN_POINT ( 'NONE',  ( -3.462698137830985581E-17, 0.000000000000000000, -66.00000000000000000 ) ) ;
#676 = ORIENTED_EDGE ( 'NONE', *, *, #685, .T. ) ;
#677 = ORIENTED_EDGE ( 'NONE', *, *, #9, .T. ) ;
#678 = ORIENTED_EDGE ( 'NONE', *, *, #457, .F. ) ;
#679 = VERTEX_POINT ( 'NONE', #689 ) ;
#680 = ADVANCED_FACE ( 'NONE', ( #764 ), #674, .F. ) ;
#681 = DIRECTION ( 'NONE',  ( 0.000000000000000000, 0.000000000000000000, -1.000000000000000000 ) ) ;
#682 = DIRECTION ( 'NONE',  ( -1.000000000000000000, 0.000000000000000000, 0.000000000000000000 ) ) ;
#683 = ORIENTED_EDGE ( 'NONE', *, *, #38, .F. ) ;
#684 = CIRCLE ( 'NONE', #757, 2.899999999999986144 ) ;
#685 = EDGE_CURVE ( 'NONE', #637, #318, #1042, .T. ) ;
#686 = VERTEX_POINT ( 'NONE', #265 ) ;
#687 = CONICAL_SURFACE ( 'NONE', #591, 2.309401076758503368, 1.221730476396017950 ) ;
#688 = CARTESIAN_POINT ( 'NONE',  ( 1.732050807568877859, -1.000000000000000000, -66.00000000000000000 ) ) ;
#689 = CARTESIAN_POINT ( 'NONE',  ( 2.285499999999999865, 0.000000000000000000, -7.800000000000000711 ) ) ;
#690 = DIRECTION ( 'NONE',  ( -1.000000000000000000, 0.000000000000000000, 0.000000000000000000 ) ) ;
#691 = AXIS2_PLACEMENT_3D ( 'NONE', #43, #406, #1015 ) ;
#692 = VERTEX_POINT ( 'NONE', #494 ) ;
#693 = EDGE_LOOP ( 'NONE', ( #155, #1105, #854 ) ) ;
#694 = AXIS2_PLACEMENT_3D ( 'NONE', #96, #367, #831 ) ;
#695 = EDGE_LOOP ( 'NONE', ( #590, #711, #1045 ) ) ;
#696 = PERSON_AND_ORGANIZATION_ROLE ( 'creator' ) ;
#697 = ORIENTED_EDGE ( 'NONE', *, *, #287, .F. ) ;
#698 = CARTESIAN_POINT ( 'NONE',  ( -2.371300000000000630, 0.000000000000000000, -7.035809988123514103 ) ) ;
#699 = DIRECTION ( 'NONE',  ( -0.000000000000000000, -0.000000000000000000, 1.000000000000000000 ) ) ;
#700 = VERTEX_POINT ( 'NONE', #58 ) ;
#701 = ORIENTED_EDGE ( 'NONE', *, *, #276, .F. ) ;
#702 = LINE ( 'NONE', #792, #337 ) ;
#703 = CARTESIAN_POINT ( 'NONE',  ( 0.000000000000000000, 0.000000000000000000, 0.000000000000000000 ) ) ;
#704 = EDGE_LOOP ( 'NONE', ( #1096, #678, #882, #957 ) ) ;
#705 = CIRCLE ( 'NONE', #551, 0.2000000000000000944 ) ;
#706 = PERSON_AND_ORGANIZATION_ROLE ( 'classification_officer' ) ;
#707 = EDGE_CURVE ( 'NONE', #634, #637, #684, .T. ) ;
#708 = CARTESIAN_POINT ( 'NONE',  ( 1.154700538379251462, -1.999999999999999556, -66.00000000000000000 ) ) ;
#709 = CC_DESIGN_APPROVAL ( #45, ( #29 ) ) ;
#710 = FACE_OUTER_BOUND ( 'NONE', #463, .T. ) ;
#711 = ORIENTED_EDGE ( 'NONE', *, *, #270, .F. ) ;
#712 = ORIENTED_EDGE ( 'NONE', *, *, #31, .F. ) ;
#713 = TOROIDAL_SURFACE ( 'NONE', #202, 2.485500000000000043, 0.2000000000000000111 ) ;
#714 = VECTOR ( 'NONE', #48, 1000.000000000000000 ) ;
#715 = DATE_TIME_ROLE ( 'creation_date' ) ;
#716 = CARTESIAN_POINT ( 'NONE',  ( 0.000000000000000000, 0.000000000000000000, 0.000000000000000000 ) ) ;
#717 = APPLICATION_CONTEXT ( 'configuration controlled 3d designs of mechanical parts and assemblies' ) ;
#718 = DIRECTION ( 'NONE',  ( 0.000000000000000000, 0.000000000000000000, 1.000000000000000000 ) ) ;
#719 = EDGE_CURVE ( 'NONE', #686, #108, #602, .T. ) ;
#720 = CARTESIAN_POINT ( 'NONE',  ( -1.550000000000009592, 0.000000000000000000, 1.600000000000000089 ) ) ;
#721 = DIRECTION ( 'NONE',  ( -0.000000000000000000, -0.000000000000000000, 1.000000000000000000 ) ) ;
#722 = CARTESIAN_POINT ( 'NONE',  ( 1.732050807568877859, 1.000000000000000444, -66.00000000000000000 ) ) ;
#723 = CARTESIAN_POINT ( 'NONE',  ( 0.3924355615832509359, -1.999999999999999556, -66.00000000000008527 ) ) ;
#724 = AXIS2_PLACEMENT_3D ( 'NONE', #458, #1066, #1069 ) ;
#725 = CARTESIAN_POINT ( 'NONE',  ( 2.500000000000000000, 0.000000000000000000, -6.789524970308782770 ) ) ;
#726 = ORGANIZATION ( 'UNSPECIFIED', 'UNSPECIFIED', '' ) ;
#727 = CARTESIAN_POINT ( 'NONE',  ( 2.485500000000000043, 0.000000000000000000, -7.800000000000000711 ) ) ;
#728 = VERTEX_POINT ( 'NONE', #144 ) ;
#729 = B_SPLINE_CURVE_WITH_KNOTS ( 'NONE', 3,
 ( #817, #638, #1008, #559, #825, #124 ),
 .UNSPECIFIED., .F., .F.,
 ( 4, 2, 4 ),
 ( 0.002390678481873569072, 0.002967126958237329814, 0.003543575434601090555 ),
 .UNSPECIFIED. ) ;
#730 = FACE_OUTER_BOUND ( 'NONE', #292, .T. ) ;
#731 = ORIENTED_EDGE ( 'NONE', *, *, #1131, .F. ) ;
#732 = VECTOR ( 'NONE', #964, 999.9999999999998863 ) ;
#733 = CARTESIAN_POINT ( 'NONE',  ( 1.732050807568877859, 1.000000000000000444, -66.00000000000000000 ) ) ;
#734 = ORIENTED_EDGE ( 'NONE', *, *, #1114, .T. ) ;
#735 = ADVANCED_FACE ( 'NONE', ( #667 ), #261, .T. ) ;
#736 = DIRECTION ( 'NONE',  ( 1.224646799147353207E-16, 1.000000000000000000, 0.000000000000000000 ) ) ;
#737 = FACE_BOUND ( 'NONE', #936, .T. ) ;
#738 = DIRECTION ( 'NONE',  ( -0.000000000000000000, -0.000000000000000000, 1.000000000000000000 ) ) ;
#739 = ADVANCED_FACE ( 'NONE', ( #848 ), #830, .T. ) ;
#740 = CARTESIAN_POINT ( 'NONE',  ( -1.732050807568877415, -1.000000000000000444, -66.00000000000000000 ) ) ;
#741 = EDGE_LOOP ( 'NONE', ( #863, #403, #414, #482 ) ) ;
#742 = AXIS2_PLACEMENT_3D ( 'NONE', #857, #348, #429 ) ;
#743 = DIRECTION ( 'NONE',  ( 1.000000000000000000, 0.000000000000000000, 0.000000000000000000 ) ) ;
#744 = CARTESIAN_POINT ( 'NONE',  ( 7.399698382841712873E-19, 0.000000000000000000, -65.88738721760999795 ) ) ;
#745 = ORIENTED_EDGE ( 'NONE', *, *, #3, .F. ) ;
#746 = CARTESIAN_POINT ( 'NONE',  ( 7.399698382841712873E-19, 0.000000000000000000, -65.88738721760999795 ) ) ;
#747 = CIRCLE ( 'NONE', #668, 1.550000000000009592 ) ;
#748 = DIRECTION ( 'NONE',  ( -1.000000000000000000, 0.000000000000000000, 0.000000000000000000 ) ) ;
#749 = CIRCLE ( 'NONE', #260, 2.500000000000000000 ) ;
#750 = DIRECTION ( 'NONE',  ( 0.8660254037844384856, -0.5000000000000004441, 0.000000000000000000 ) ) ;
#751 = CARTESIAN_POINT ( 'NONE',  ( -1.650000000000000133, 0.000000000000000000, 1.500000000000014877 ) ) ;
#752 = DIRECTION ( 'NONE',  ( -0.000000000000000000, -0.000000000000000000, 1.000000000000000000 ) ) ;
#753 = DIRECTION ( 'NONE',  ( 1.000000000000000000, 0.000000000000000000, 0.000000000000000000 ) ) ;
#754 = VERTEX_POINT ( 'NONE', #587 ) ;
#755 = DIRECTION ( 'NONE',  ( 1.000000000000000000, 0.000000000000000000, 0.000000000000000000 ) ) ;
#756 = DIRECTION ( 'NONE',  ( 0.000000000000000000, 0.000000000000000000, 1.000000000000000000 ) ) ;
#757 = AXIS2_PLACEMENT_3D ( 'NONE', #76, #506, #72 ) ;
#758 = APPROVAL_PERSON_ORGANIZATION ( #320, #1043, #244 ) ;
#759 = DIRECTION ( 'NONE',  ( 1.000000000000000000, 0.000000000000000000, 0.000000000000000000 ) ) ;
#760 = PERSON ( 'UNSPECIFIED', 'UNSPECIFIED', 'UNSPECIFIED', ('UNSPECIFIED'), ('UNSPECIFIED'), ('UNSPECIFIED') ) ;
#761 = EDGE_CURVE ( 'NONE', #901, #973, #988, .T. ) ;
#762 = ORIENTED_EDGE ( 'NONE', *, *, #977, .T. ) ;
#763 =( LENGTH_UNIT ( ) NAMED_UNIT ( * ) SI_UNIT ( .MILLI., .METRE. ) );
#764 = FACE_OUTER_BOUND ( 'NONE', #1137, .T. ) ;
#765 = AXIS2_PLACEMENT_3D ( 'NONE', #315, #750, #915 ) ;
#766 = DIRECTION ( 'NONE',  ( -0.7071067811865153763, 8.659560562354540893E-17, 0.7071067811865797692 ) ) ;
#767 = ORIENTED_EDGE ( 'NONE', *, *, #364, .F. ) ;
#768 = EDGE_CURVE ( 'NONE', #773, #1034, #81, .T. ) ;
#769 = CARTESIAN_POINT ( 'NONE',  ( 2.309401076758503368, 6.505213034913026604E-16, -65.88738721760999795 ) ) ;
#770 = DIRECTION ( 'NONE',  ( 1.000000000000000000, 0.000000000000000000, -0.000000000000000000 ) ) ;
#771 = ADVANCED_FACE ( 'NONE', ( #510 ), #842, .T. ) ;
#772 = FACE_OUTER_BOUND ( 'NONE', #121, .T. ) ;
#773 = VERTEX_POINT ( 'NONE', #425 ) ;
#774 = ADVANCED_FACE ( 'NONE', ( #1122 ), #213, .T. ) ;
#775 = DIRECTION ( 'NONE',  ( -6.570922257487905217E-18, -0.000000000000000000, -1.000000000000000000 ) ) ;
#776 = CARTESIAN_POINT ( 'NONE',  ( -1.650000000000000133, 0.000000000000000000, 0.000000000000000000 ) ) ;
#777 = DIRECTION ( 'NONE',  ( 1.000000000000000000, 0.000000000000000000, 0.000000000000000000 ) ) ;
#778 = CIRCLE ( 'NONE', #994, 2.285499999999999865 ) ;
#779 = ORIENTED_EDGE ( 'NONE', *, *, #665, .F. ) ;
#780 = LOCAL_TIME ( 10, 40, 5.000000000000000000, #17 ) ;
#781 = DIRECTION ( 'NONE',  ( -0.000000000000000000, -0.000000000000000000, 1.000000000000000000 ) ) ;
#782 = CARTESIAN_POINT ( 'NONE',  ( 3.000000000000000000, 0.000000000000000000, -62.89999999999999858 ) ) ;
#783 = VERTEX_POINT ( 'NONE', #776 ) ;
#784 = AXIS2_PLACEMENT_3D ( 'NONE', #675, #949, #170 ) ;
#785 = ORIENTED_EDGE ( 'NONE', *, *, #561, .F. ) ;
#786 = APPROVAL_STATUS ( 'not_yet_approved' ) ;
#787 = CARTESIAN_POINT ( 'NONE',  ( -3.462698137830985581E-17, 0.000000000000000000, -66.00000000000000000 ) ) ;
#788 = DIRECTION ( 'NONE',  ( 1.000000000000000000, 0.000000000000000000, 0.000000000000000000 ) ) ;
#789 = ORIENTED_EDGE ( 'NONE', *, *, #152, .F. ) ;
#790 = ADVANCED_FACE ( 'NONE', ( #864 ), #954, .T. ) ;
#791 = COORDINATED_UNIVERSAL_TIME_OFFSET ( 0, 0, .AHEAD. ) ;
#792 = CARTESIAN_POINT ( 'NONE',  ( 1.550000000000009592, 1.898202538678409538E-16, 1.600000000000000089 ) ) ;
#793 = DIRECTION ( 'NONE',  ( 1.000000000000000000, 0.000000000000000000, 0.000000000000000000 ) ) ;
#794 = ORIENTED_EDGE ( 'NONE', *, *, #910, .F. ) ;
#795 = EDGE_CURVE ( 'NONE', #10, #565, #976, .T. ) ;
#796 = CONICAL_SURFACE ( 'NONE', #497, 3.000000000000000000, 0.7853981633974026488 ) ;
#797 = ORIENTED_EDGE ( 'NONE', *, *, #546, .F. ) ;
#798 = CIRCLE ( 'NONE', #179, 2.285499999999999865 ) ;
#799 = CALENDAR_DATE ( 2026, 25, 6 ) ;
#800 = DIRECTION ( 'NONE',  ( -1.000000000000000000, 0.000000000000000000, 0.000000000000000000 ) ) ;
#801 = VERTEX_POINT ( 'NONE', #725 ) ;
#802 = FACE_OUTER_BOUND ( 'NONE', #671, .T. ) ;
#803 = ORIENTED_EDGE ( 'NONE', *, *, #1055, .T. ) ;
#804 = EDGE_LOOP ( 'NONE', ( #456, #803, #355, #257 ) ) ;
#805 = AXIS2_PLACEMENT_3D ( 'NONE', #727, #285, #613 ) ;
#806 = DATE_AND_TIME ( #105, #1133 ) ;
#807 = DIRECTION ( 'NONE',  ( 0.000000000000000000, 0.000000000000000000, 1.000000000000000000 ) ) ;
#808 = CARTESIAN_POINT ( 'NONE',  ( -1.154700538379251462, 1.999999999999999556, -63.00000000000000000 ) ) ;
#809 = ADVANCED_FACE ( 'NONE', ( #626 ), #365, .F. ) ;
#810 = CARTESIAN_POINT ( 'NONE',  ( -2.116950987028627384, -0.3333333333333325377, -65.95743332185352870 ) ) ;
#811 = EDGE_CURVE ( 'NONE', #1085, #692, #702, .T. ) ;
#812 = CARTESIAN_POINT ( 'NONE',  ( 0.000000000000000000, 0.000000000000000000, -7.800000000000000711 ) ) ;
#813 = LINE ( 'NONE', #22, #309 ) ;
#814 = EDGE_LOOP ( 'NONE', ( #528, #54 ) ) ;
#815 = VECTOR ( 'NONE', #106, 1000.000000000000000 ) ;
#816 = CARTESIAN_POINT ( 'NONE',  ( 2.485500000000000043, 0.000000000000000000, -8.000000000000000000 ) ) ;
#817 = CARTESIAN_POINT ( 'NONE',  ( 1.154700538379252350, 2.000000000000000000, -65.88738721760999795 ) ) ;
#818 = CARTESIAN_POINT ( 'NONE',  ( -1.924500897298752289, -0.6666666666666660745, -66.00000000000000000 ) ) ;
#819 = CONICAL_SURFACE ( 'NONE', #344, 2.309401076758503368, 1.221730476396017950 ) ;
#820 = CARTESIAN_POINT ( 'NONE',  ( 1.732050807568877859, -1.000000000000000000, -66.00000000000000000 ) ) ;
#821 = CARTESIAN_POINT ( 'NONE',  ( 0.000000000000000000, 0.000000000000000000, -62.89999999999999858 ) ) ;
#822 = FACE_OUTER_BOUND ( 'NONE', #619, .T. ) ;
#823 = EDGE_CURVE ( 'NONE', #79, #1113, #1050, .T. ) ;
#824 = DIRECTION ( 'NONE',  ( -1.000000000000000000, 0.000000000000000000, 0.000000000000000000 ) ) ;
#825 = CARTESIAN_POINT ( 'NONE',  ( 0.1944327734641468908, 1.999999999999999556, -66.00000000000008527 ) ) ;
#826 = CARTESIAN_POINT ( 'NONE',  ( 2.309401076758502924, 4.336808689942017736E-16, -63.00000000000000000 ) ) ;
#827 = ORIENTED_EDGE ( 'NONE', *, *, #852, .F. ) ;
#828 = AXIS2_PLACEMENT_3D ( 'NONE', #835, #392, #299 ) ;
#829 = DIRECTION ( 'NONE',  ( -0.000000000000000000, -0.000000000000000000, 1.000000000000000000 ) ) ;
#830 = CONICAL_SURFACE ( 'NONE', #112, 2.500000000000000000, 0.4815364429796590851 ) ;
#831 = DIRECTION ( 'NONE',  ( -1.000000000000000000, 0.000000000000000000, 0.000000000000000000 ) ) ;
#832 = FACE_OUTER_BOUND ( 'NONE', #1076, .T. ) ;
#833 = ORIENTED_EDGE ( 'NONE', *, *, #531, .F. ) ;
#834 = DIRECTION ( 'NONE',  ( 1.000000000000000000, 0.000000000000000000, 0.000000000000000000 ) ) ;
#835 = CARTESIAN_POINT ( 'NONE',  ( -1.154700538379251462, 1.999999999999999556, -66.00000000000000000 ) ) ;
#836 = CIRCLE ( 'NONE', #984, 2.371299999999999741 ) ;
#837 = CARTESIAN_POINT ( 'NONE',  ( -1.154700538379251018, -1.999999999999999556, -63.00000000000000000 ) ) ;
#838 = EDGE_LOOP ( 'NONE', ( #1035, #598, #57, #939, #171 ) ) ;
#839 = PRODUCT_RELATED_PRODUCT_CATEGORY ( 'detail', '', ( #487 ) ) ;
#840 = ORIENTED_EDGE ( 'NONE', *, *, #385, .F. ) ;
#841 = PERSON_AND_ORGANIZATION ( #760, #726 ) ;
#842 = PLANE ( 'NONE',  #943 ) ;
#843 = EDGE_CURVE ( 'NONE', #959, #966, #1012, .T. ) ;
#844 = CARTESIAN_POINT ( 'NONE',  ( -1.732050807568877415, 1.000000000000000888, -66.00000000000000000 ) ) ;
#845 = ORIENTED_EDGE ( 'NONE', *, *, #287, .T. ) ;
#846 = VERTEX_POINT ( 'NONE', #461 ) ;
#847 = DIRECTION ( 'NONE',  ( 0.000000000000000000, 0.000000000000000000, 1.000000000000000000 ) ) ;
#848 = FACE_OUTER_BOUND ( 'NONE', #1132, .T. ) ;
#849 = CIRCLE ( 'NONE', #8, 3.000000000000000000 ) ;
#850 = AXIS2_PLACEMENT_3D ( 'NONE', #932, #150, #755 ) ;
#851 = DIRECTION ( 'NONE',  ( -1.000000000000000000, 0.000000000000000000, 0.000000000000000000 ) ) ;
#852 = EDGE_CURVE ( 'NONE', #1027, #318, #849, .T. ) ;
#853 = ORIENTED_EDGE ( 'NONE', *, *, #531, .T. ) ;
#854 = ORIENTED_EDGE ( 'NONE', *, *, #933, .F. ) ;
#855 = APPROVAL_DATE_TIME ( #586, #1043 ) ;
#856 = EDGE_CURVE ( 'NONE', #397, #1010, #1118, .T. ) ;
#857 = CARTESIAN_POINT ( 'NONE',  ( 0.000000000000000000, 0.000000000000000000, -63.00000000000000000 ) ) ;
#858 = CONICAL_SURFACE ( 'NONE', #419, 2.309401076758503368, 1.221730476396017950 ) ;
#859 = ADVANCED_FACE ( 'NONE', ( #100 ), #642, .F. ) ;
#860 = EDGE_CURVE ( 'NONE', #84, #783, #609, .T. ) ;
#861 = AXIS2_PLACEMENT_3D ( 'NONE', #542, #445, #2 ) ;
#862 = DIRECTION ( 'NONE',  ( 0.000000000000000000, 0.000000000000000000, -1.000000000000000000 ) ) ;
#863 = ORIENTED_EDGE ( 'NONE', *, *, #843, .F. ) ;
#864 = FACE_OUTER_BOUND ( 'NONE', #1017, .T. ) ;
#865 = B_SPLINE_CURVE_WITH_KNOTS ( 'NONE', 3,
 ( #624, #723, #198, #896 ),
 .UNSPECIFIED., .F., .F.,
 ( 4, 4 ),
 ( 0.003543575434601088821, 0.004707056660091648269 ),
 .UNSPECIFIED. ) ;
#866 = DIRECTION ( 'NONE',  ( 0.000000000000000000, 0.000000000000000000, 1.000000000000000000 ) ) ;
#867 = ORIENTED_EDGE ( 'NONE', *, *, #356, .F. ) ;
#868 = ORIENTED_EDGE ( 'NONE', *, *, #615, .T. ) ;
#869 = APPLICATION_PROTOCOL_DEFINITION ( 'international standard', 'config_control_design', 1994, #717 ) ;
#870 = PLANE ( 'NONE',  #742 ) ;
#871 = CARTESIAN_POINT ( 'NONE',  ( -3.462698137830985581E-17, 0.000000000000000000, -66.00000000000000000 ) ) ;
#872 = VECTOR ( 'NONE', #272, 1000.000000000000114 ) ;
#873 = ORIENTED_EDGE ( 'NONE', *, *, #417, .T. ) ;
#874 = VERTEX_POINT ( 'NONE', #18 ) ;
#875 = LOCAL_TIME ( 10, 40, 5.000000000000000000, #233 ) ;
#876 = DIRECTION ( 'NONE',  ( 0.000000000000000000, 0.000000000000000000, -1.000000000000000000 ) ) ;
#877 = ADVANCED_FACE ( 'NONE', ( #963 ), #288, .F. ) ;
#878 = CARTESIAN_POINT ( 'NONE',  ( 0.000000000000000000, 0.000000000000000000, -6.789524970308784546 ) ) ;
#879 = CLOSED_SHELL ( 'NONE', ( #94, #1025, #472, #592, #739, #1083, #41, #859, #123, #735, #790, #449, #117, #647, #77, #564, #680, #1074, #809, #877, #588, #252, #771, #970, #446, #60, #1095, #210, #467, #199, #1047, #245, #1063, #28, #165, #996, #184, #145, #774, #962 ) ) ;
#880 = EDGE_LOOP ( 'NONE', ( #544, #1018 ) ) ;
#881 = AXIS2_PLACEMENT_3D ( 'NONE', #871, #584, #682 ) ;
#882 = ORIENTED_EDGE ( 'NONE', *, *, #423, .T. ) ;
#883 = DIRECTION ( 'NONE',  ( 0.8660254037844385966, 0.5000000000000001110, 0.000000000000000000 ) ) ;
#884 = LINE ( 'NONE', #92, #166 ) ;
#885 = EDGE_CURVE ( 'NONE', #901, #700, #91, .T. ) ;
#886 = ORIENTED_EDGE ( 'NONE', *, *, #122, .F. ) ;
#887 = PERSON_AND_ORGANIZATION ( #760, #726 ) ;
#888 = DIRECTION ( 'NONE',  ( -0.000000000000000000, -0.000000000000000000, -1.000000000000000000 ) ) ;
#889 = CARTESIAN_POINT ( 'NONE',  ( 0.000000000000000000, 0.000000000000000000, 0.000000000000000000 ) ) ;
#890 = EDGE_CURVE ( 'NONE', #225, #330, #359, .T. ) ;
#891 = ORIENTED_EDGE ( 'NONE', *, *, #152, .T. ) ;
#892 = EDGE_CURVE ( 'NONE', #422, #318, #968, .T. ) ;
#893 = CARTESIAN_POINT ( 'NONE',  ( -0.7760961912465915713, 1.999999999999999556, -65.95628757407003206 ) ) ;
#894 = CARTESIAN_POINT ( 'NONE',  ( 0.000000000000000000, 0.000000000000000000, -63.00000000000000000 ) ) ;
#895 = EDGE_CURVE ( 'NONE', #637, #634, #23, .T. ) ;
#896 = CARTESIAN_POINT ( 'NONE',  ( 1.154700538379252350, -1.999999999999999556, -65.88738721760999795 ) ) ;
#897 = CONICAL_SURFACE ( 'NONE', #1000, 2.309401076758503368, 1.221730476396017950 ) ;
#898 = AXIS2_PLACEMENT_3D ( 'NONE', #78, #430, #777 ) ;
#899 = CARTESIAN_POINT ( 'NONE',  ( 2.899999999999986144, 3.551475717527307069E-16, -8.000000000000000000 ) ) ;
#900 = DIRECTION ( 'NONE',  ( -0.000000000000000000, -0.000000000000000000, 1.000000000000000000 ) ) ;
#901 = VERTEX_POINT ( 'NONE', #200 ) ;
#902 = LINE ( 'NONE', #380, #465 ) ;
#903 = DIRECTION ( 'NONE',  ( -0.000000000000000000, -0.000000000000000000, -1.000000000000000000 ) ) ;
#904 = ORIENTED_EDGE ( 'NONE', *, *, #417, .F. ) ;
#905 = ORIENTED_EDGE ( 'NONE', *, *, #44, .T. ) ;
#906 = AXIS2_PLACEMENT_3D ( 'NONE', #416, #942, #434 ) ;
#907 = APPROVAL_PERSON_ORGANIZATION ( #611, #960, #1065 ) ;
#908 = DIRECTION ( 'NONE',  ( 6.570922257487905217E-18, 0.000000000000000000, 1.000000000000000000 ) ) ;
#909 = LINE ( 'NONE', #921, #346 ) ;
#910 = EDGE_CURVE ( 'NONE', #634, #1027, #539, .T. ) ;
#911 = CARTESIAN_POINT ( 'NONE',  ( -2.309401076758503368, 1.517883041479706208E-15, -65.88738721760999795 ) ) ;
#912 = AXIS2_PLACEMENT_3D ( 'NONE', #125, #738, #389 ) ;
#913 = DIRECTION ( 'NONE',  ( -0.000000000000000000, -0.000000000000000000, 1.000000000000000000 ) ) ;
#914 = DIRECTION ( 'NONE',  ( -0.7071067811865450192, 0.000000000000000000, -0.7071067811865501263 ) ) ;
#915 = DIRECTION ( 'NONE',  ( 0.5000000000000003331, 0.8660254037844383745, 0.000000000000000000 ) ) ;
#916 = DIRECTION ( 'NONE',  ( 0.000000000000000000, 0.000000000000000000, -1.000000000000000000 ) ) ;
#917 = CARTESIAN_POINT ( 'NONE',  ( 0.000000000000000000, 0.000000000000000000, -63.00000000000000000 ) ) ;
#918 = CARTESIAN_POINT ( 'NONE',  ( 7.399698382841712873E-19, 0.000000000000000000, -65.88738721760999795 ) ) ;
#919 = ORIENTED_EDGE ( 'NONE', *, *, #910, .T. ) ;
#920 = DIRECTION ( 'NONE',  ( 1.000000000000000000, 0.000000000000000000, 0.000000000000000000 ) ) ;
#921 = CARTESIAN_POINT ( 'NONE',  ( 2.199999999999993516, 2.694222958124169118E-16, 0.000000000000000000 ) ) ;
#922 = AXIS2_PLACEMENT_3D ( 'NONE', #1098, #39, #824 ) ;
#923 = DIRECTION ( 'NONE',  ( -0.000000000000000000, -0.000000000000000000, 1.000000000000000000 ) ) ;
#924 = ORIENTED_EDGE ( 'NONE', *, *, #665, .T. ) ;
#925 = ORIENTED_EDGE ( 'NONE', *, *, #892, .F. ) ;
#926 = LINE ( 'NONE', #946, #433 ) ;
#927 = DIRECTION ( 'NONE',  ( -1.000000000000000000, 0.000000000000000000, 0.000000000000000000 ) ) ;
#928 = AXIS2_PLACEMENT_3D ( 'NONE', #13, #452, #376 ) ;
#929 = CARTESIAN_POINT ( 'NONE',  ( 0.000000000000000000, 0.000000000000000000, 1.600000000000000089 ) ) ;
#930 = EDGE_LOOP ( 'NONE', ( #249, #541, #1068, #797, #218, #767 ) ) ;
#931 = ORIENTED_EDGE ( 'NONE', *, *, #890, .F. ) ;
#932 = CARTESIAN_POINT ( 'NONE',  ( 0.000000000000000000, 0.000000000000000000, -7.800000000000000711 ) ) ;
#933 = EDGE_CURVE ( 'NONE', #585, #1113, #644, .T. ) ;
#934 = DIRECTION ( 'NONE',  ( 0.000000000000000000, 0.000000000000000000, -1.000000000000000000 ) ) ;
#935 = DIRECTION ( 'NONE',  ( 1.000000000000000000, 0.000000000000000000, 0.000000000000000000 ) ) ;
#936 = EDGE_LOOP ( 'NONE', ( #40, #508 ) ) ;
#937 = ORIENTED_EDGE ( 'NONE', *, *, #248, .F. ) ;
#938 = ORIENTED_EDGE ( 'NONE', *, *, #44, .F. ) ;
#939 = ORIENTED_EDGE ( 'NONE', *, *, #885, .T. ) ;
#940 = FACE_OUTER_BOUND ( 'NONE', #413, .T. ) ;
#941 = EDGE_CURVE ( 'NONE', #966, #329, #902, .T. ) ;
#942 = DIRECTION ( 'NONE',  ( 0.000000000000000000, 0.000000000000000000, -1.000000000000000000 ) ) ;
#943 = AXIS2_PLACEMENT_3D ( 'NONE', #159, #756, #770 ) ;
#944 = FACE_OUTER_BOUND ( 'NONE', #335, .T. ) ;
#945 = ORIENTED_EDGE ( 'NONE', *, *, #248, .T. ) ;
#946 = CARTESIAN_POINT ( 'NONE',  ( 1.650000000000000133, 2.020667218593133001E-16, 1.600000000000000089 ) ) ;
#947 = DIRECTION ( 'NONE',  ( 1.000000000000000000, 0.000000000000000000, 0.000000000000000000 ) ) ;
#948 = CIRCLE ( 'NONE', #141, 1.650000000000000133 ) ;
#949 = DIRECTION ( 'NONE',  ( -0.000000000000000000, -0.000000000000000000, 1.000000000000000000 ) ) ;
#950 = EDGE_LOOP ( 'NONE', ( #98, #983, #324, #1125, #362 ) ) ;
#951 = CARTESIAN_POINT ( 'NONE',  ( 1.154700538379252350, -1.999999999999999556, -65.88738721760999795 ) ) ;
#952 = FACE_OUTER_BOUND ( 'NONE', #704, .T. ) ;
#953 = VERTEX_POINT ( 'NONE', #655 ) ;
#954 = CYLINDRICAL_SURFACE ( 'NONE', #724, 2.285499999999999865 ) ;
#955 = DIRECTION ( 'NONE',  ( 0.000000000000000000, 0.000000000000000000, -1.000000000000000000 ) ) ;
#956 = AXIS2_PLACEMENT_3D ( 'NONE', #194, #888, #1 ) ;
#957 = ORIENTED_EDGE ( 'NONE', *, *, #352, .F. ) ;
#958 = AXIS2_PLACEMENT_3D ( 'NONE', #408, #775, #158 ) ;
#959 = VERTEX_POINT ( 'NONE', #1089 ) ;
#960 = APPROVAL ( #786, 'UNSPECIFIED' ) ;
#961 = SHAPE_DEFINITION_REPRESENTATION ( #139, #1029 ) ;
#962 = ADVANCED_FACE ( 'NONE', ( #730 ), #1084, .T. ) ;
#963 = FACE_OUTER_BOUND ( 'NONE', #181, .T. ) ;
#964 = DIRECTION ( 'NONE',  ( -0.5000000000000002220, 0.8660254037844385966, 0.000000000000000000 ) ) ;
#965 = VECTOR ( 'NONE', #603, 1000.000000000000114 ) ;
#966 = VERTEX_POINT ( 'NONE', #35 ) ;
#967 = SECURITY_CLASSIFICATION_LEVEL ( 'unclassified' ) ;
#968 = LINE ( 'NONE', #605, #515 ) ;
#969 = ORIENTED_EDGE ( 'NONE', *, *, #390, .F. ) ;
#970 = ADVANCED_FACE ( 'NONE', ( #545 ), #297, .T. ) ;
#971 = FACE_OUTER_BOUND ( 'NONE', #332, .T. ) ;
#972 = ORIENTED_EDGE ( 'NONE', *, *, #635, .T. ) ;
#973 = VERTEX_POINT ( 'NONE', #820 ) ;
#974 = EDGE_CURVE ( 'NONE', #1053, #296, #798, .T. ) ;
#975 = APPROVAL_STATUS ( 'not_yet_approved' ) ;
#976 = LINE ( 'NONE', #12, #872 ) ;
#977 = EDGE_CURVE ( 'NONE', #79, #585, #522, .T. ) ;
#978 = FACE_BOUND ( 'NONE', #880, .T. ) ;
#979 = ORIENTED_EDGE ( 'NONE', *, *, #385, .T. ) ;
#980 = AXIS2_PLACEMENT_3D ( 'NONE', #311, #651, #656 ) ;
#981 = DIRECTION ( 'NONE',  ( 0.000000000000000000, 0.000000000000000000, 1.000000000000000000 ) ) ;
#982 = DIRECTION ( 'NONE',  ( 0.000000000000000000, 0.000000000000000000, -1.000000000000000000 ) ) ;
#983 = ORIENTED_EDGE ( 'NONE', *, *, #761, .T. ) ;
#984 = AXIS2_PLACEMENT_3D ( 'NONE', #659, #997, #748 ) ;
#985 = DIRECTION ( 'NONE',  ( -0.000000000000000000, -0.000000000000000000, -1.000000000000000000 ) ) ;
#986 = LINE ( 'NONE', #459, #560 ) ;
#987 = ORIENTED_EDGE ( 'NONE', *, *, #1078, .F. ) ;
#988 = B_SPLINE_CURVE_WITH_KNOTS ( 'NONE', 3,
 ( #951, #242, #172, #490 ),
 .UNSPECIFIED., .F., .F.,
 ( 4, 4 ),
 ( 2.309401076774635882E-07, 0.001154931478486928564 ),
 .UNSPECIFIED. ) ;
#989 = CARTESIAN_POINT ( 'NONE',  ( -1.154700538379251018, -1.999999999999999556, -65.88738721760999795 ) ) ;
#990 = ORIENTED_EDGE ( 'NONE', *, *, #331, .T. ) ;
#991 = EDGE_CURVE ( 'NONE', #658, #225, #301, .T. ) ;
#992 = CARTESIAN_POINT ( 'NONE',  ( 0.000000000000000000, 0.000000000000000000, -6.789524970308782770 ) ) ;
#993 = DIRECTION ( 'NONE',  ( 1.000000000000000000, 0.000000000000000000, 0.000000000000000000 ) ) ;
#994 = AXIS2_PLACEMENT_3D ( 'NONE', #321, #681, #582 ) ;
#995 = CARTESIAN_POINT ( 'NONE',  ( -2.485500000000000043, 3.043859619280746004E-16, -7.800000000000000711 ) ) ;
#996 = ADVANCED_FACE ( 'NONE', ( #571 ), #687, .T. ) ;
#997 = DIRECTION ( 'NONE',  ( 0.000000000000000000, 0.000000000000000000, -1.000000000000000000 ) ) ;
#998 = DIRECTION ( 'NONE',  ( -1.000000000000000000, 0.000000000000000000, 0.000000000000000000 ) ) ;
#999 = ORIENTED_EDGE ( 'NONE', *, *, #1088, .F. ) ;
#1000 = AXIS2_PLACEMENT_3D ( 'NONE', #460, #374, #614 ) ;
#1001 = CIRCLE ( 'NONE', #928, 2.000000000000000888 ) ;
#1002 = DIRECTION ( 'NONE',  ( -1.000000000000000000, 1.224646799147353207E-16, 0.000000000000000000 ) ) ;
#1003 = CARTESIAN_POINT ( 'NONE',  ( 1.539600717839001875, 1.333333333333333037, -66.00000000000000000 ) ) ;
#1004 = CYLINDRICAL_SURFACE ( 'NONE', #102, 3.000000000000000000 ) ;
#1005 = EDGE_CURVE ( 'NONE', #953, #773, #396, .T. ) ;
#1006 = ORIENTED_EDGE ( 'NONE', *, *, #442, .F. ) ;
#1007 = DIRECTION ( 'NONE',  ( 0.000000000000000000, 0.000000000000000000, -1.000000000000000000 ) ) ;
#1008 = CARTESIAN_POINT ( 'NONE',  ( 0.7750340072517223344, 1.999999999999999556, -65.95015486615990596 ) ) ;
#1009 = CARTESIAN_POINT ( 'NONE',  ( -1.732050807568877415, -1.000000000000000444, -66.00000000000000000 ) ) ;
#1010 = VERTEX_POINT ( 'NONE', #47 ) ;
#1011 = APPROVAL_STATUS ( 'not_yet_approved' ) ;
#1012 = CIRCLE ( 'NONE', #956, 2.900000000000006128 ) ;
#1013 = CARTESIAN_POINT ( 'NONE',  ( 3.000000000000000000, 0.000000000000000000, -63.00000000000000000 ) ) ;
#1014 = CONICAL_SURFACE ( 'NONE', #1032, 2.899999999999986144, 0.7853981633974352894 ) ;
#1015 = DIRECTION ( 'NONE',  ( 1.000000000000000000, 0.000000000000000000, 0.000000000000000000 ) ) ;
#1016 = ORIENTED_EDGE ( 'NONE', *, *, #895, .F. ) ;
#1017 = EDGE_LOOP ( 'NONE', ( #193, #504, #93, #24 ) ) ;
#1018 = ORIENTED_EDGE ( 'NONE', *, *, #860, .F. ) ;
#1019 = CARTESIAN_POINT ( 'NONE',  ( 2.309401076758503368, 0.000000000000000000, -65.88738721760999795 ) ) ;
#1020 = DIRECTION ( 'NONE',  ( 0.5000000000000000000, -0.8660254037844385966, 0.000000000000000000 ) ) ;
#1021 = AXIS2_PLACEMENT_3D ( 'NONE', #82, #349, #1044 ) ;
#1022 = CARTESIAN_POINT ( 'NONE',  ( 0.000000000000000000, 0.000000000000000000, 0.000000000000000000 ) ) ;
#1023 = ORIENTED_EDGE ( 'NONE', *, *, #67, .T. ) ;
#1024 = FACE_BOUND ( 'NONE', #930, .T. ) ;
#1025 = ADVANCED_FACE ( 'NONE', ( #222 ), #1014, .T. ) ;
#1026 = CARTESIAN_POINT ( 'NONE',  ( -1.732050807568877415, 1.000000000000000888, -66.00000000000000000 ) ) ;
#1027 = VERTEX_POINT ( 'NONE', #127 ) ;
#1028 = VERTEX_POINT ( 'NONE', #483 ) ;
#1029 = ADVANCED_BREP_SHAPE_REPRESENTATION ( 'NAUT_01695-C', ( #298, #114 ), #574 ) ;
#1030 = CARTESIAN_POINT ( 'NONE',  ( -3.462698137830987430E-17, -2.000000000000000444, -66.00000000000000000 ) ) ;
#1031 = CARTESIAN_POINT ( 'NONE',  ( 0.000000000000000000, 0.000000000000000000, -7.035809988123514103 ) ) ;
#1032 = AXIS2_PLACEMENT_3D ( 'NONE', #115, #916, #464 ) ;
#1033 = DIRECTION ( 'NONE',  ( 6.570922257487905217E-18, 0.000000000000000000, 1.000000000000000000 ) ) ;
#1034 = VERTEX_POINT ( 'NONE', #816 ) ;
#1035 = ORIENTED_EDGE ( 'NONE', *, *, #240, .F. ) ;
#1036 = CARTESIAN_POINT ( 'NONE',  ( 2.485500000000000043, 3.043859619280746004E-16, -7.200000000000000178 ) ) ;
#1037 = AXIS2_PLACEMENT_3D ( 'NONE', #66, #153, #1117 ) ;
#1038 = AXIS2_PLACEMENT_3D ( 'NONE', #1039, #262, #759 ) ;
#1039 = CARTESIAN_POINT ( 'NONE',  ( 0.000000000000000000, 0.000000000000000000, -8.100000000000017408 ) ) ;
#1040 = ORIENTED_EDGE ( 'NONE', *, *, #1005, .F. ) ;
#1041 = PERSON_AND_ORGANIZATION_ROLE ( 'design_supplier' ) ;
#1042 = LINE ( 'NONE', #151, #1072 ) ;
#1043 = APPROVAL ( #1011, 'UNSPECIFIED' ) ;
#1044 = DIRECTION ( 'NONE',  ( 1.000000000000000000, 0.000000000000000000, 0.000000000000000000 ) ) ;
#1045 = ORIENTED_EDGE ( 'NONE', *, *, #856, .F. ) ;
#1046 = VERTEX_POINT ( 'NONE', #469 ) ;
#1047 = ADVANCED_FACE ( 'NONE', ( #631 ), #178, .T. ) ;
#1048 = DIRECTION ( 'NONE',  ( 1.000000000000000000, 0.000000000000000000, 0.000000000000000000 ) ) ;
#1049 = DIRECTION ( 'NONE',  ( 1.000000000000000000, 0.000000000000000000, 0.000000000000000000 ) ) ;
#1050 = CIRCLE ( 'NONE', #290, 2.000000000000000888 ) ;
#1051 = VERTEX_POINT ( 'NONE', #556 ) ;
#1052 = CIRCLE ( 'NONE', #197, 2.285499999999999865 ) ;
#1053 = VERTEX_POINT ( 'NONE', #398 ) ;
#1054 = DATE_AND_TIME ( #799, #64 ) ;
#1055 = EDGE_CURVE ( 'NONE', #953, #679, #1052, .T. ) ;
#1056 = CC_DESIGN_SECURITY_CLASSIFICATION ( #29, ( #661 ) ) ;
#1057 = CARTESIAN_POINT ( 'NONE',  ( -2.500000000000000000, 3.061616997868383141E-16, -63.00000000000000000 ) ) ;
#1058 = LINE ( 'NONE', #618, #732 ) ;
#1059 = AXIS2_PLACEMENT_3D ( 'NONE', #878, #266, #89 ) ;
#1060 = ORIENTED_EDGE ( 'NONE', *, *, #860, .T. ) ;
#1061 = AXIS2_PLACEMENT_3D ( 'NONE', #639, #476, #662 ) ;
#1062 = VERTEX_POINT ( 'NONE', #751 ) ;
#1063 = ADVANCED_FACE ( 'NONE', ( #120 ), #1109, .T. ) ;
#1064 = CC_DESIGN_PERSON_AND_ORGANIZATION_ASSIGNMENT ( #70, #357, ( #648 ) ) ;
#1065 = APPROVAL_ROLE ( '' ) ;
#1066 = DIRECTION ( 'NONE',  ( -0.000000000000000000, -0.000000000000000000, 1.000000000000000000 ) ) ;
#1067 = DIRECTION ( 'NONE',  ( -0.000000000000000000, -0.000000000000000000, 1.000000000000000000 ) ) ;
#1068 = ORIENTED_EDGE ( 'NONE', *, *, #568, .F. ) ;
#1069 = DIRECTION ( 'NONE',  ( 1.000000000000000000, 0.000000000000000000, 0.000000000000000000 ) ) ;
#1070 = DIRECTION ( 'NONE',  ( -0.7071067811865660024, 0.000000000000000000, -0.7071067811865291430 ) ) ;
#1071 = DIRECTION ( 'NONE',  ( 0.000000000000000000, 0.000000000000000000, -1.000000000000000000 ) ) ;
#1072 = VECTOR ( 'NONE', #167, 1000.000000000000000 ) ;
#1073 = CARTESIAN_POINT ( 'NONE',  ( 0.000000000000000000, 0.000000000000000000, -8.100000000000017408 ) ) ;
#1074 = ADVANCED_FACE ( 'NONE', ( #53 ), #391, .F. ) ;
#1075 = LINE ( 'NONE', #532, #523 ) ;
#1076 = EDGE_LOOP ( 'NONE', ( #384, #924, #498, #447 ) ) ;
#1077 = CIRCLE ( 'NONE', #881, 2.000000000000000888 ) ;
#1078 = EDGE_CURVE ( 'NONE', #692, #84, #926, .T. ) ;
#1079 = AXIS2_PLACEMENT_3D ( 'NONE', #703, #718, #628 ) ;
#1080 = DIRECTION ( 'NONE',  ( 0.000000000000000000, 0.000000000000000000, -1.000000000000000000 ) ) ;
#1081 = DIRECTION ( 'NONE',  ( 1.000000000000000000, 0.000000000000000000, 0.000000000000000000 ) ) ;
#1082 = CARTESIAN_POINT ( 'NONE',  ( -1.924500897298752511, 0.6666666666666674068, -66.00000000000000000 ) ) ;
#1083 = ADVANCED_FACE ( 'NONE', ( #940 ), #26, .T. ) ;
#1084 = PLANE ( 'NONE',  #451 ) ;
#1085 = VERTEX_POINT ( 'NONE', #432 ) ;
#1086 = DIRECTION ( 'NONE',  ( -0.000000000000000000, -0.000000000000000000, 1.000000000000000000 ) ) ;
#1087 = CARTESIAN_POINT ( 'NONE',  ( 0.000000000000000000, 0.000000000000000000, -7.200000000000000178 ) ) ;
#1088 = EDGE_CURVE ( 'NONE', #1112, #686, #241, .T. ) ;
#1089 = CARTESIAN_POINT ( 'NONE',  ( -2.900000000000006128, 3.612708057484695548E-16, -63.00000000000000000 ) ) ;
#1090 = DIRECTION ( 'NONE',  ( 1.000000000000000000, 0.000000000000000000, 0.000000000000000000 ) ) ;
#1091 = DIRECTION ( 'NONE',  ( 1.000000000000000000, 0.000000000000000000, 0.000000000000000000 ) ) ;
#1092 = EDGE_CURVE ( 'NONE', #874, #397, #553, .T. ) ;
#1093 = ORIENTED_EDGE ( 'NONE', *, *, #356, .T. ) ;
#1094 = AXIS2_PLACEMENT_3D ( 'NONE', #214, #305, #645 ) ;
#1095 = ADVANCED_FACE ( 'NONE', ( #581 ), #627, .F. ) ;
#1096 = ORIENTED_EDGE ( 'NONE', *, *, #811, .F. ) ;
#1097 = CIRCLE ( 'NONE', #1038, 3.000000000000000000 ) ;
#1098 = CARTESIAN_POINT ( 'NONE',  ( 0.000000000000000000, 0.000000000000000000, -8.000000000000000000 ) ) ;
#1099 = DIRECTION ( 'NONE',  ( 1.000000000000000000, 0.000000000000000000, 0.000000000000000000 ) ) ;
#1100 = DIRECTION ( 'NONE',  ( 1.000000000000000000, 0.000000000000000000, 0.000000000000000000 ) ) ;
#1101 = ORIENTED_EDGE ( 'NONE', *, *, #707, .T. ) ;
#1102 = CARTESIAN_POINT ( 'NONE',  ( -3.462698137830985581E-17, 0.000000000000000000, -66.00000000000000000 ) ) ;
#1103 = CARTESIAN_POINT ( 'NONE',  ( -1.154700538379251462, 1.999999999999999556, -63.00000000000000000 ) ) ;
#1104 = CARTESIAN_POINT ( 'NONE',  ( -2.309401076758503368, 7.037028111042856199E-16, -66.00000000000000000 ) ) ;
#1105 = ORIENTED_EDGE ( 'NONE', *, *, #823, .T. ) ;
#1106 = EDGE_LOOP ( 'NONE', ( #734, #575, #238 ) ) ;
#1107 = CIRCLE ( 'NONE', #271, 2.371299999999999741 ) ;
#1108 = CARTESIAN_POINT ( 'NONE',  ( 2.116950987028627829, -0.3333333333333326487, -65.95743332185352870 ) ) ;
#1109 = CONICAL_SURFACE ( 'NONE', #922, 2.899999999999986144, 0.7853981633974352894 ) ;
#1110 = CARTESIAN_POINT ( 'NONE',  ( 0.000000000000000000, 0.000000000000000000, -6.789524970308784546 ) ) ;
#1111 = FACE_OUTER_BOUND ( 'NONE', #51, .T. ) ;
#1112 = VERTEX_POINT ( 'NONE', #338 ) ;
#1113 = VERTEX_POINT ( 'NONE', #1030 ) ;
#1114 = EDGE_CURVE ( 'NONE', #874, #79, #610, .T. ) ;
#1115 = DIRECTION ( 'NONE',  ( -0.000000000000000000, -0.000000000000000000, -1.000000000000000000 ) ) ;
#1116 = DIRECTION ( 'NONE',  ( -0.8660254037844387076, -0.5000000000000001110, 0.000000000000000000 ) ) ;
#1117 = DIRECTION ( 'NONE',  ( 1.000000000000000000, 0.000000000000000000, 0.000000000000000000 ) ) ;
#1118 = B_SPLINE_CURVE_WITH_KNOTS ( 'NONE', 3,
 ( #95, #535, #893, #622 ),
 .UNSPECIFIED., .F., .F.,
 ( 4, 4 ),
 ( 0.003543575434601090555, 0.004707056660091649136 ),
 .UNSPECIFIED. ) ;
#1119 = VERTEX_POINT ( 'NONE', #576 ) ;
#1120 = ORIENTED_EDGE ( 'NONE', *, *, #761, .F. ) ;
#1121 = DIRECTION ( 'NONE',  ( 0.9396926207859039870, 0.000000000000000000, 0.3420201433256806478 ) ) ;
#1122 = FACE_OUTER_BOUND ( 'NONE', #693, .T. ) ;
#1123 = CARTESIAN_POINT ( 'NONE',  ( -1.154700538379252350, 1.999999999999999556, -65.88738721760999795 ) ) ;
#1124 = ORIENTED_EDGE ( 'NONE', *, *, #615, .F. ) ;
#1125 = ORIENTED_EDGE ( 'NONE', *, *, #719, .T. ) ;
#1126 = B_SPLINE_CURVE_WITH_KNOTS ( 'NONE', 3,
 ( #208, #810, #818, #548 ),
 .UNSPECIFIED., .F., .F.,
 ( 4, 4 ),
 ( 2.309401076758871540E-07, 0.001154931478486928998 ),
 .UNSPECIFIED. ) ;
#1127 = ORIENTED_EDGE ( 'NONE', *, *, #302, .T. ) ;
#1128 = CARTESIAN_POINT ( 'NONE',  ( 0.000000000000000000, 0.000000000000000000, 0.000000000000000000 ) ) ;
#1129 = DIRECTION ( 'NONE',  ( -0.000000000000000000, -0.000000000000000000, 1.000000000000000000 ) ) ;
#1130 = DIRECTION ( 'NONE',  ( 1.000000000000000000, 0.000000000000000000, 0.000000000000000000 ) ) ;
#1131 = EDGE_CURVE ( 'NONE', #973, #686, #563, .T. ) ;
#1132 = EDGE_LOOP ( 'NONE', ( #69, #286, #604, #969 ) ) ;
#1133 = LOCAL_TIME ( 10, 40, 5.000000000000000000, #791 ) ;
#1134 = CC_DESIGN_PERSON_AND_ORGANIZATION_ASSIGNMENT ( #841, #313, ( #487 ) ) ;
#1135 = DIRECTION ( 'NONE',  ( -1.000000000000000000, -1.224646799147353207E-16, 0.000000000000000000 ) ) ;
#1136 = CARTESIAN_POINT ( 'NONE',  ( 2.500000000000000000, 0.000000000000000000, -63.00000000000000000 ) ) ;
#1137 = EDGE_LOOP ( 'NONE', ( #148, #1093, #972, #873, #156 ) ) ;
#1138 = ORIENTED_EDGE ( 'NONE', *, *, #168, .T. ) ;
ENDSEC;
END-ISO-10303-21;
